<svg width="212" height="34" viewBox="0 0 212 34" fill="none" xmlns="http://www.w3.org/2000/svg">
<path d="M40.48 9.472H56.848V12.136H40.48V9.472ZM47.08 11.8H50.272V25H47.08V11.8ZM65.653 23.968H68.773V29.8H65.653V23.968ZM67.213 25.312C65.149 25.312 63.381 24.992 61.909 24.352C60.453 23.696 59.333 22.768 58.549 21.568C57.781 20.368 57.397 18.928 57.397 17.248C57.397 15.552 57.781 14.104 58.549 12.904C59.333 11.704 60.453 10.784 61.909 10.144C63.381 9.488 65.149 9.16 67.213 9.16C69.293 9.16 71.061 9.488 72.517 10.144C73.973 10.784 75.085 11.704 75.853 12.904C76.637 14.104 77.029 15.552 77.029 17.248C77.029 18.928 76.637 20.368 75.853 21.568C75.085 22.768 73.973 23.696 72.517 24.352C71.061 24.992 69.293 25.312 67.213 25.312ZM67.213 22.552C68.493 22.552 69.613 22.36 70.573 21.976C71.549 21.592 72.309 21.008 72.853 20.224C73.413 19.44 73.693 18.448 73.693 17.248C73.693 16.048 73.413 15.056 72.853 14.272C72.309 13.488 71.549 12.904 70.573 12.52C69.613 12.12 68.493 11.92 67.213 11.92C65.949 11.92 64.821 12.12 63.829 12.52C62.837 12.904 62.061 13.488 61.501 14.272C60.941 15.056 60.661 16.048 60.661 17.248C60.661 18.448 60.941 19.44 61.501 20.224C62.061 21.008 62.837 21.592 63.829 21.976C64.821 22.36 65.949 22.552 67.213 22.552ZM89.0249 9.472C90.7689 9.472 92.2249 9.68 93.3929 10.096C94.5609 10.512 95.4889 11.08 96.1769 11.8C96.8809 12.504 97.3769 13.32 97.6649 14.248C97.9689 15.176 98.1209 16.152 98.1209 17.176C98.1209 18.2 97.9529 19.184 97.6169 20.128C97.2969 21.072 96.7769 21.912 96.0569 22.648C95.3529 23.368 94.4169 23.944 93.2489 24.376C92.0969 24.792 90.6889 25 89.0249 25H80.1449V9.472H89.0249ZM83.3369 22.264H88.9529C90.1049 22.264 91.0569 22.128 91.8089 21.856C92.5769 21.568 93.1849 21.184 93.6329 20.704C94.0809 20.224 94.4009 19.68 94.5929 19.072C94.7849 18.464 94.8809 17.832 94.8809 17.176C94.8809 16.52 94.7849 15.896 94.5929 15.304C94.4009 14.712 94.0809 14.184 93.6329 13.72C93.1849 13.256 92.5769 12.888 91.8089 12.616C91.0569 12.344 90.1049 12.208 88.9529 12.208H83.3369V22.264ZM103.494 22.264V25H99.8697V22.264H103.494ZM104.113 9.472H120.481V12.136H104.113V9.472ZM110.713 11.8H113.905V25H110.713V11.8ZM122.801 25V9.472H133.337C134.537 9.472 135.577 9.64 136.457 9.976C137.353 10.296 138.049 10.808 138.545 11.512C139.041 12.2 139.289 13.088 139.289 14.176C139.289 14.912 139.161 15.536 138.905 16.048C138.649 16.56 138.289 16.976 137.825 17.296C137.377 17.616 136.857 17.864 136.265 18.04C135.673 18.2 135.041 18.304 134.369 18.352L134.033 18.16C135.153 18.176 136.073 18.272 136.793 18.448C137.513 18.608 138.049 18.912 138.401 19.36C138.769 19.792 138.953 20.44 138.953 21.304V25H135.761V21.52C135.761 20.928 135.657 20.472 135.449 20.152C135.241 19.816 134.865 19.584 134.321 19.456C133.793 19.328 133.025 19.264 132.017 19.264H125.993V25H122.801ZM125.993 16.768H133.337C134.233 16.768 134.913 16.552 135.377 16.12C135.857 15.688 136.097 15.104 136.097 14.368C136.097 13.664 135.857 13.128 135.377 12.76C134.913 12.392 134.233 12.208 133.337 12.208H125.993V16.768ZM145.053 21.616V18.952H155.325V21.616H145.053ZM141.189 25L148.485 9.472H151.941L159.309 25H155.829L149.445 11.008H150.981L144.645 25H141.189ZM165.305 25L158.441 9.472H161.969L167.849 23.488H166.745L172.601 9.472H176.081L169.289 25H165.305ZM181.61 18.52V22.336H193.586V25H178.418V9.472H193.562V12.136H181.61V16H191.402V18.52H181.61ZM200.056 9.472V22.336H210.376V25H196.864V9.472H200.056Z" fill="#191B1D"/>
<path d="M15.4068 0.072937C9.5918 0.613068 4.6265 4.0819 2 8.99022L6.12922 16.1422L15.4068 0.072937Z" fill="#191B1D"/>
<path d="M1.52424 9.95483C0.545347 12.1014 0 14.4873 0 17.0006C0 20.097 0.827845 23.0002 2.27433 25.5007H10.4997L1.52424 9.95483Z" fill="#191B1D"/>
<path d="M2.82812 26.3947C5.8732 30.9785 11.083 34 16.9986 34C17.1351 34 17.2711 33.9984 17.4067 33.9952L21.7949 26.3947H2.82812Z" fill="#191B1D"/>
<path d="M18.4727 33.9371C24.3951 33.4281 29.4498 29.8828 32.073 24.8651L27.8917 17.623L18.4727 33.9371Z" fill="#191B1D"/>
<path d="M32.546 23.8906C33.4809 21.7845 34.0004 19.4529 34.0004 17.0001C34.0004 13.9036 33.1725 11.0005 31.726 8.5H23.6602L32.546 23.8906Z" fill="#191B1D"/>
<path d="M31.1718 7.60533H12.0938L16.4801 0.00782898C16.6532 0.00262157 16.827 0 17.0012 0C22.9169 0 28.1267 3.02146 31.1718 7.60533Z" fill="#191B1D"/>
<path d="M17.6057 12.942C18.623 12.942 19.4723 13.0633 20.1537 13.306C20.835 13.5487 21.3763 13.88 21.7777 14.3C22.1883 14.7107 22.4777 15.1867 22.6457 15.728C22.823 16.2693 22.9117 16.8387 22.9117 17.436C22.9117 18.0333 22.8137 18.6073 22.6177 19.158C22.431 19.7087 22.1277 20.1987 21.7077 20.628C21.297 21.048 20.751 21.384 20.0697 21.636C19.3977 21.8787 18.5763 22 17.6057 22H12.4257V12.942H17.6057ZM14.2877 20.404H17.5637C18.2357 20.404 18.791 20.3247 19.2297 20.166C19.6777 19.998 20.0323 19.774 20.2937 19.494C20.555 19.214 20.7417 18.8967 20.8537 18.542C20.9657 18.1873 21.0217 17.8187 21.0217 17.436C21.0217 17.0533 20.9657 16.6893 20.8537 16.344C20.7417 15.9987 20.555 15.6907 20.2937 15.42C20.0323 15.1493 19.6777 14.9347 19.2297 14.776C18.791 14.6173 18.2357 14.538 17.5637 14.538H14.2877V20.404Z" fill="#191B1D"/>
</svg>
