<svg width="970" height="487" viewBox="0 0 970 487" fill="none" xmlns="http://www.w3.org/2000/svg">
<g opacity="0.07">
<path d="M478.24 93.8273C478.786 95.1191 478.944 96.5418 478.696 97.9221C478.448 99.3023 477.803 100.581 476.841 101.601C476.716 102.114 476.714 102.648 476.836 103.162C476.958 103.675 477.199 104.153 477.541 104.555C478.712 105.715 480.252 106.43 481.894 106.576C484.226 106.576 486.947 104.322 488.268 107.975C493.01 107.975 496.43 103 501.561 105.488C502.805 106.11 505.292 104.088 507.391 103.233C507.236 101.734 507.236 100.224 507.391 98.7246C508.557 92.428 509.646 92.1171 514.698 96.0816C516.642 94.3714 517.419 92.8167 514.698 90.5623C511.978 88.308 513.221 87.2197 515.864 86.4423C518.507 85.665 519.751 85.8982 521.695 85.7427L529.468 85.1208V84.0325C528.117 83.5471 526.704 83.2591 525.271 83.1774C522.538 84.048 519.726 84.6469 516.875 84.9654C513.686 84.7223 510.598 83.7374 507.858 82.0891C506.458 81.1563 508.324 73.305 509.957 72.1389C512.833 69.8068 515.787 67.4748 519.751 64.3653C517.73 63.6657 515.942 62.4219 514.543 62.8106C512.116 63.5318 509.866 64.7496 507.935 66.3865C506.303 67.7857 505.292 69.7291 503.738 71.2838C502.183 72.8385 499.773 73.6936 498.296 75.3261C495.42 78.3578 495.808 80.5344 499.073 83.0997C499.472 83.2827 499.829 83.5439 500.124 83.8679C500.419 84.1918 500.646 84.5719 500.791 84.9854C500.936 85.3988 500.996 85.8373 500.968 86.2745C500.94 86.7118 500.825 87.139 500.628 87.5306C500.223 88.3282 499.527 88.9403 498.685 89.2408C497.581 89.7557 496.642 90.5654 495.97 91.5805C495.298 92.5956 494.919 93.7766 494.876 94.9933C494.876 97.4032 494.876 100.901 490.289 99.9684C485.003 106.887 485.159 99.9684 483.682 97.4031C483.47 96.8625 483.21 96.3422 482.904 95.8484C481.427 93.4386 480.339 89.9405 478.162 89.0076C475.986 88.0748 473.732 91.1842 471.322 92.2725C469.999 92.7413 468.548 92.6888 467.263 92.1256C465.977 91.5625 464.955 90.5309 464.403 89.2408C463.37 86.7515 462.664 84.1384 462.304 81.4672C462.264 80.5484 462.416 79.6313 462.751 78.7746C463.086 77.9179 463.595 77.1405 464.248 76.4921C467.371 73.5992 471.123 71.4705 475.208 70.2733C478.316 68.7272 480.988 66.4292 482.982 63.588C486.247 59.9344 489.279 55.8144 491.999 52.4717L485.936 53.9487C487.343 52.6311 488.88 51.4591 490.523 50.4506C492.263 49.8525 494.06 49.4357 495.886 49.2067C497.674 48.1962 500.628 44.7758 502.883 45.2422C506.925 46.0196 509.879 42.9879 513.688 43.9207C515.476 44.3094 517.808 42.2105 520.762 40.8113L519.207 44.0762C520.816 43.2545 522.55 42.703 524.338 42.4437C527.285 42.8338 530.196 43.4576 533.044 44.3094L532.034 45.8641C538.252 47.3411 544.549 48.5072 550.612 50.2951C554.066 51.3789 557.4 52.8114 560.563 54.5706C563.206 55.8921 563.361 57.8355 560.563 59.2347C555.356 61.2194 549.601 61.2194 544.394 59.2347C542.763 58.5997 540.998 58.3859 539.263 58.6129L544.16 61.1781C544.16 67.0083 547.736 70.0401 553.489 68.3299L549.602 65.8423V64.9095L559.552 66.4642L557.764 62.8106C559.708 61.8777 561.729 61.0227 563.75 60.2453C565.953 59.777 568.188 59.4652 570.435 59.3125C569.7 58.3128 569.171 57.1763 568.88 55.9698C568.687 54.1871 568.687 52.3887 568.88 50.606L576.654 52.2385V53.7155L573 55.0369C575.799 59.3124 576.887 58.9238 580.774 56.0476C584.036 53.9501 587.566 52.3027 591.268 51.1501C592.614 50.7463 593.993 50.4602 595.388 50.2951C598.342 55.037 602.696 50.2951 606.582 50.2951C608.293 50.2951 610.236 47.8075 611.713 50.9947C613.266 50.6105 614.797 50.1435 616.299 49.5955L608.526 43.843C613.944 44.5386 619.317 45.5509 624.617 46.8747C628.834 49.0549 633.422 50.4259 638.143 50.917C636.476 50.0207 635.088 48.6842 634.128 47.053C633.169 45.4219 632.675 43.5587 632.702 41.6664C634.261 39.3839 636.088 37.2961 638.143 35.4475C640.218 34.4183 642.513 33.9112 644.829 33.9705C646.558 34.127 648.258 34.5193 649.881 35.1365L647.394 38.7124L649.26 51.3057L651.047 51.8498L643.274 59.6234C644.604 59.9612 645.995 59.9853 647.336 59.6939C648.677 59.4026 649.932 58.8037 651.002 57.9445C652.073 57.0853 652.929 55.9892 653.503 54.7427C654.078 53.4962 654.355 52.1333 654.312 50.7615C656.878 50.7615 660.143 49.5177 660.376 54.1042C663.33 51.5389 662.63 49.2845 659.054 49.0513H651.825C651.825 46.0196 651.203 42.9879 650.892 39.412L656.023 36.0694V40.5003L660.531 41.1999L657.189 38.3237L662.63 39.0233V38.0905L659.987 36.3026V35.3697C663.33 36.3803 666.595 37.4686 670.171 38.4792C671.503 38.7942 672.852 39.0278 674.213 39.1788C674.249 38.817 674.249 38.4523 674.213 38.0905C673.047 37.4686 671.803 37.0022 670.015 36.2248L668.849 32.338L686.262 30.8611L683.697 28.0626C691.684 24.2603 700.531 22.6249 709.35 23.3207C712.479 23.2418 715.587 22.7717 718.6 21.9214C718.6 21.9214 719.067 21.9214 719.3 21.5327C722.157 21.2363 724.862 20.1002 727.073 18.2678C730.416 15.9357 734.225 13.1372 737.801 18.2678C738.5 19.2784 740.677 19.2007 742.076 19.6671C746.758 19.2784 751.465 19.2784 756.147 19.6671C757.857 19.6671 759.1 22.932 760.655 24.7976L741.066 31.7939V32.5712C742.31 32.5712 743.631 32.5712 744.953 32.5712C746.274 32.5712 748.295 32.5712 749.228 32.5712C753.659 29.2286 758.168 31.2497 762.676 31.7939C764.464 31.7939 766.485 30.7056 768.196 31.0165C770.331 31.5475 772.34 32.4989 774.104 33.815C775.97 34.9443 778.189 35.339 780.33 34.9223C782.471 34.5056 784.38 33.3074 785.686 31.5607C786.159 31.2072 786.701 30.9557 787.276 30.8219C787.851 30.6881 788.448 30.675 789.029 30.7833L802.244 32.8822C801.7 37.935 802.244 42.2105 808.541 42.366L810.329 39.412H831.24L829.063 35.8362C834.172 34.7606 839.415 34.4723 844.61 34.9811C849.197 36.2249 855.105 34.9811 860.158 39.0233C864.407 41.0748 869.15 41.8832 873.839 41.3554C878.503 41.3554 883.4 40.5004 886.743 45.5532C887.52 46.6415 890.397 46.486 892.263 46.6415C895.214 46.7969 898.172 46.7969 901.124 46.6415C903.274 46.4039 905.404 46.0142 907.499 45.4754C908.845 45.3977 910.195 45.3977 911.541 45.4754L912.396 46.8747L909.753 47.6521V48.5071L916.905 50.6838L916.205 45.1645C923.824 45.4026 931.389 46.5244 938.749 48.5071C945.589 51.1502 953.441 51.8498 957.561 59.0793C959.815 55.8921 961.836 56.203 969.999 61.3336C967.356 63.5102 963.002 63.6657 962.225 67.7857L953.752 65.1427C952.275 64.6762 950.875 64.0544 949.398 63.5102C948.281 63.1778 947.189 62.7621 946.134 62.2664C945.461 61.6865 944.884 61.0045 944.423 60.2453C944.118 61.1121 943.859 61.9943 943.646 62.8883C943.646 63.7434 943.646 63.6657 943.646 64.2098L935.872 66.9306C937.272 67.8033 938.395 69.0557 939.111 70.5421C939.827 72.0284 940.105 73.6875 939.915 75.3261C929.342 73.3827 922.269 79.3684 914.573 84.3435C913.521 83.0495 912.005 82.219 910.348 82.0301C908.691 81.8411 907.027 82.3089 905.711 83.3329C904.599 83.8646 903.354 84.054 902.135 83.8771C896.382 83.4107 895.527 88.7745 891.796 91.6507L895.372 92.3503C895.372 94.6824 895.916 96.7035 896.227 98.9578C892.34 98.9578 891.096 101.057 893.351 104.555C891.33 106.654 885.577 105.021 887.754 110.696C881.302 109.763 883.478 117.848 878.348 119.169C876.793 110.152 871.74 101.368 878.348 93.5163C886.679 88.9597 893.919 82.6469 899.57 75.0151L898.87 73.9268C897.937 73.9268 896.305 74.5487 896.305 74.7819C896.305 77.8136 894.206 78.1246 892.185 78.9797C890.164 79.8348 887.521 84.3435 886.355 77.9691C883.743 77.6742 881.098 77.9122 878.581 78.6687C876.523 79.6918 874.778 81.249 873.528 83.1774C872.828 83.9548 873.062 85.5095 872.751 87.3752L862.801 88.6967L864.744 85.7427C860.127 86.5539 855.43 86.8148 850.751 86.5201C840.801 84.4212 835.204 90.7956 829.141 96.0039L820.434 103.777C821.666 105.333 823.045 106.765 824.554 108.053C825.688 108.444 826.919 108.444 828.052 108.053C829.529 108.053 831.395 105.954 832.095 106.42C832.794 106.887 836.059 109.53 835.826 110.774C834.271 117.537 835.36 125.077 831.084 131.218C826.809 137.359 823.311 142.49 819.501 148.009C819.012 148.714 818.388 149.316 817.666 149.779C816.944 150.243 816.137 150.559 815.292 150.711C814.448 150.862 813.581 150.846 812.743 150.663C811.905 150.479 811.111 150.132 810.406 149.642C808.463 152.518 804.576 153.529 804.265 158.27C804.265 160.214 800.378 161.924 799.756 163.79C801.387 167.775 802.789 171.849 803.954 175.994C805.354 182.602 799.135 182.213 794.937 184.778C794.937 180.581 795.714 177.005 795.792 172.963C795.792 172.03 794.704 170.086 794.237 170.164C789.029 170.708 791.672 167.677 792.061 165.655C792.287 165.071 792.547 164.5 792.838 163.945C791.497 162.912 789.807 162.44 788.125 162.628C786.443 162.817 784.9 163.651 783.821 164.956L783.121 165.966L781.877 165.111L783.743 158.504C779.778 157.649 778.612 161.613 775.969 163.246C775.347 163.712 774.959 164.567 774.259 164.956C773.44 165.32 772.578 165.581 771.694 165.733L773.559 168.687C774.181 169.542 775.114 170.941 775.347 171.175H786.153L776.358 179.57C778.923 185.867 781.022 190.92 783.199 196.128L779.856 199.082L784.676 199.859C782.577 203.979 780.478 208.177 778.301 212.297C776.972 215.562 775.277 218.665 773.248 221.548C770.605 224.579 768.74 228.544 763.609 229.321C760.237 230.025 757.022 231.343 754.125 233.208C752.726 233.985 751.793 235.696 750.239 237.328L749.694 233.363C747.376 233.082 745.033 233.651 743.103 234.967C741.173 236.282 739.786 238.254 739.2 240.515C737.801 247.2 743.087 251.087 746.974 255.052L752.882 253.575L753.581 254.585C752.4 255.992 751.309 257.472 750.316 259.016C749.62 259.775 749.161 260.721 748.995 261.737C749.383 267.801 749.85 273.398 742.543 276.429C740.522 277.207 739.589 280.783 737.257 282.804V278.373L725.052 264.069C724.502 264.694 724.056 265.402 723.731 266.168C723.604 267.875 723.318 269.567 722.876 271.221C719.922 277.284 723.964 282.415 725.052 287.779C725.519 290.033 729.017 291.432 730.338 293.687C731.599 296.133 732.489 298.753 732.981 301.46C733.883 304.699 734.328 308.048 734.303 311.41C731.687 309.557 729.356 307.331 727.384 304.803C726.141 301.76 725.279 298.574 724.819 295.319C724.532 293.348 723.815 291.464 722.72 289.8C720.963 287.664 719.771 285.121 719.255 282.404C718.738 279.687 718.915 276.884 719.766 274.253C721.165 265.702 717.201 258.161 716.035 249.61C713.159 252.02 712.381 256.218 707.639 253.73C710.593 247.123 706.784 241.914 703.053 236.551C701.952 234.401 701.191 232.093 700.799 229.71C697.456 230.41 694.191 230.954 691.159 231.731C689.993 231.731 688.283 232.819 688.128 233.597C686.962 239.893 680.898 242.381 677.866 247.123C675.845 250.232 672.503 252.487 670.093 255.518C669.229 257.47 668.932 259.625 669.238 261.737C669.751 270.222 666.966 278.578 661.464 285.058C657.654 276.324 654.712 267.237 652.68 257.928C650.348 248.755 649.104 239.271 647.549 231.187L644.284 235.229L637.677 229.632L640.475 228.544C637.133 224.89 634.023 220.77 630.525 217.35C625.161 217.35 619.176 217.35 613.19 217.35C607.204 217.35 606.893 216.339 604.872 211.209C603.593 211.879 602.194 212.288 600.756 212.412C599.317 212.536 597.869 212.372 596.494 211.931C595.12 211.49 593.847 210.779 592.749 209.841C591.652 208.903 590.752 207.756 590.102 206.467C589.848 205.995 589.64 205.501 589.48 204.99C589.48 204.212 588.859 203.435 588.47 202.658C585.671 197.294 584.816 197.139 580.696 201.569L588.081 217.117L589.714 213.074C590.258 215.329 590.491 216.417 590.646 217.272C590.802 218.127 591.191 220.304 591.424 221.859C593.911 221.392 596.865 223.647 598.731 219.915C600.156 217.683 601.768 215.577 603.551 213.619C603.55 215.532 603.785 217.438 604.25 219.293C604.661 220.772 605.639 222.029 606.971 222.791C613.579 226.134 614.745 230.565 609.614 236.084C608.771 237.102 608.065 238.226 607.515 239.427C606.893 240.437 606.349 241.604 605.572 242.692C602.878 245.963 599.511 248.614 595.699 250.465C591.502 252.953 587.926 256.607 583.961 259.25C580.071 261.628 576.048 263.783 571.912 265.702C569.658 266.868 568.569 265.702 568.103 263.447C567.861 256.244 566.029 249.183 562.739 242.77C561.179 240.728 559.776 238.571 558.542 236.317C557.714 234.263 557.014 232.16 556.443 230.021C555.354 227.145 554.188 224.346 553.1 221.548C552.012 218.749 549.991 214.629 548.358 211.209C547.347 209.188 546.104 207.244 545.249 205.767L538.952 207.633L538.563 206.389L541.906 203.902L535.298 197.061C536.076 196.517 537.63 194.806 539.263 194.729C543.461 194.729 544.704 192.163 545.482 188.821L549.291 171.952L542.217 175.295C542.217 175.295 542.217 175.295 541.751 175.295C538.952 174.595 534.832 172.418 533.588 173.507C529.701 176.927 527.758 172.963 525.815 171.952C523.871 170.941 523.016 168.143 521.772 166.277L522.317 158.504C519.518 156.871 519.596 156.949 516.331 159.903C515.631 160.525 513.843 159.903 511.978 159.903C513.23 161.641 514.323 163.488 515.243 165.422C515.86 166.648 516.025 168.052 515.709 169.387C514.778 171.479 513.66 173.483 512.366 175.372C509.412 168.765 503.427 163.479 503.349 155.006C503.349 153.14 500.706 150.808 498.685 149.564C495.42 147.621 491.922 146.299 490.911 141.79C490.911 141.79 489.356 141.79 488.89 140.935C488.287 140.105 487.815 139.188 487.491 138.215C483.293 139.303 482.671 141.324 485.703 145.055C487.024 146.532 487.724 148.398 489.046 150.03C489.768 151.099 490.76 151.957 491.922 152.518C495.886 153.373 497.752 157.027 500.784 159.126C500.784 159.126 500.784 159.903 501.172 160.758L495.964 158.504L497.441 163.79L494.098 168.143C496.042 160.836 490.833 158.426 486.325 155.083C483.684 152.788 481.334 150.177 479.328 147.31C478.007 145.833 476.841 144.278 475.675 142.723C473.94 143.72 472.278 144.837 470.7 146.066C469.904 146.995 468.81 147.619 467.605 147.832C466.4 148.044 465.158 147.832 464.092 147.232C461.605 146.221 458.884 145.988 459.117 150.497C459.117 151.974 457.174 153.606 456.008 155.006C454.02 156.938 452.151 158.989 450.411 161.147C449.789 162.002 450.411 163.712 450.411 166.044C448.234 172.107 441.471 173.118 434.863 174.75L432.143 171.175L427.556 171.719C422.97 163.945 429.344 156.172 425.535 148.398C432.143 144.278 439.294 147.543 446.291 146.999C446.757 143.112 449.633 139.225 446.291 135.261C443.518 132.58 440.922 129.724 438.517 126.71H446.835L446.368 122.823C448.019 123.597 449.909 123.688 451.626 123.077C453.344 122.466 454.751 121.201 455.541 119.558C455.541 119.558 457.174 118.236 457.951 117.459L465.258 110.23L474.664 106.42C474.742 105.1 474.742 103.776 474.664 102.456C471.944 97.2477 471.866 97.3254 478.24 93.8273Z" fill="#191B1D"/>
<path d="M112.251 147.077H117.148C115.384 143.469 112.292 140.683 108.52 139.303C102.85 136.426 98.5467 131.425 96.5482 125.389C95.9263 123.912 93.5942 123.134 92.2727 122.124L91.1844 125.156C89.4742 121.269 84.5768 119.714 88.3859 115.05C88.3859 115.05 85.8984 111.085 85.0433 111.241C83.1971 111.386 81.3403 111.166 79.5795 110.592C77.8186 110.019 76.1883 109.103 74.7821 107.898C72.6789 106.882 70.4602 106.125 68.1746 105.644L52.1609 102.768L52.705 105.177L41.5888 108.054L42.4439 102.223L35.8363 107.665C37.0801 110.23 26.508 119.17 19.9004 120.958L22.1548 123.057V124.378C17.0242 119.869 12.8264 124.378 7.8513 124.378L14.9253 120.647C17.6218 119.512 20.2216 118.161 22.6989 116.605C24.8647 114.609 26.8185 112.394 28.5291 109.997H15.7804L14.8476 104.789C7.92911 109.764 8.24002 101.524 4.9751 100.125C6.76303 93.1283 13.2151 94.0611 18.1902 92.3509L17.3351 88.5418C9.5615 89.2415 8.16229 91.4958 0 85.1992C1.78793 84.655 3.34269 84.1886 4.89741 83.5667C6.45213 82.9449 7.92913 82.012 9.40612 81.3124C12.1269 84.5773 14.3034 84.8105 18.1902 82.0897L1.9434 75.6376C4.35322 74.7048 5.83027 74.2384 7.22952 73.5388C8.62876 72.8392 10.8053 71.5177 12.7487 70.818C16.4023 69.2633 20.0559 67.8641 23.7872 66.6203C29.8594 65.2064 36.2021 65.4751 42.1329 67.3976C46.9947 68.2401 51.8997 68.8111 56.825 69.1078C64.4165 69.5534 71.917 70.9908 79.1354 73.3833C80.7941 73.7738 82.4857 74.008 84.1882 74.0829C84.1882 68.2527 88.6191 72.9169 90.6403 71.2844C93.2152 69.9235 96.1443 69.3811 99.0358 69.7297L89.9407 73.3833L90.5625 74.6271L103.855 68.4859L108.52 72.6059L111.784 69.9629L113.572 72.9169C115.671 69.341 118.625 70.5071 121.735 71.2844C124.844 72.0618 130.208 72.8392 134.483 73.6165C135.883 73.6165 137.126 74.3939 139.07 74.938L136.349 77.0369V78.1252C139.697 77.6602 143.074 77.4265 146.455 77.4256C149.441 77.9645 152.379 78.7444 155.239 79.7576L154.773 76.415C158.115 76.415 160.991 76.415 163.868 76.415C169.387 76.415 174.751 79.2135 180.425 75.7154C181.591 75.0935 184.39 77.2701 187.111 78.3584L192.008 74.3939L184.623 68.7969C184.001 65.9206 185.4 63.5108 189.21 63.1999C193.019 62.8889 196.206 67.7086 195.817 70.9735L200.559 71.7508L200.015 76.5705L204.135 71.7508L208.488 81.0014L215.562 71.1289L223.336 72.4505V79.7576L224.269 80.9237L217.117 82.4784L219.449 86.132L211.675 81.6233C212.608 85.5879 210.665 86.3652 208.177 86.132C205.812 85.5291 203.388 85.1902 200.948 85.1214L210.665 87.9977L203.513 91.2626C202.456 91.7175 201.483 92.3483 200.637 93.1282C196.983 97.7147 189.598 99.4249 189.987 106.965C190.024 107.619 190.204 108.256 190.513 108.834C190.821 109.411 191.252 109.914 191.775 110.308C195.428 111.163 195.662 113.651 195.428 116.916C200.17 114.35 203.202 116.916 207.555 119.092C212.225 121.24 217.029 123.083 221.936 124.611C221.936 127.643 221.936 132.385 226.134 135.106C226.989 135.65 228.544 136.738 228.777 136.505C229.01 136.272 231.498 133.94 231.498 132.696C231.13 130.05 230.505 127.447 229.632 124.922C232.12 122.746 236.24 120.958 236.706 118.315C237.173 115.672 234.374 112.407 232.742 108.986C236.784 106.11 232.742 101.679 233.208 97.2482C240.931 96.164 248.771 98.1451 255.052 102.768C254.715 103.464 254.523 104.222 254.486 104.995C254.449 105.768 254.568 106.54 254.837 107.266C255.105 107.992 255.517 108.656 256.049 109.219C256.58 109.782 257.219 110.231 257.928 110.541C258.391 110.778 258.89 110.935 259.405 111.008C264.691 112.329 265.235 106.888 267.179 103.778C269.433 107.121 271.843 109.842 273.786 112.951C274.875 114.817 274.408 117.926 275.807 119.248C278.724 121.462 281.848 123.388 285.136 125L282.648 126.633C284.579 126.784 286.47 127.257 288.245 128.032C288.88 128.485 289.415 129.063 289.816 129.732C290.217 130.401 290.477 131.145 290.577 131.919C290.473 132.568 290.223 133.184 289.846 133.723C289.469 134.261 288.975 134.708 288.401 135.028C282.435 139.242 275.143 141.148 267.879 140.392C262.67 139.226 259.172 143.89 255.596 147.31C257.698 146.291 259.851 145.383 262.048 144.59C263.727 144.191 265.459 144.06 267.179 144.201C267.567 144.201 268.267 146.455 268.034 146.766C264.691 149.798 265.857 152.285 268.967 154.54C272.076 156.794 274.408 157.183 277.207 153.14C277.349 152.846 277.569 152.596 277.843 152.418C278.117 152.24 278.435 152.14 278.762 152.13L277.751 155.706L279.617 154.617L280.316 155.784L265.235 163.557H264.147L267.257 156.95C262.36 159.1 257.608 161.567 253.031 164.335C251.865 165.112 252.409 168.377 252.176 170.476L253.42 171.098C252.014 171.49 250.586 171.802 249.144 172.03C245.49 172.03 243.392 173.041 242.925 177.394C242.925 179.804 240.515 182.058 238.883 185.168L237.25 178.871C236.991 181.456 236.991 184.06 237.25 186.645C238.961 194.418 238.572 195.429 231.964 199.16C228.078 201.415 223.491 208.255 224.191 211.209C224.89 214.163 226.601 218.983 227.533 223.336C227.676 225.572 227.545 227.817 227.145 230.021H225.046L218.438 212.686L214.707 214.319C211.442 208.722 206.933 212.298 202.58 212.064L204.368 216.107C200.559 215.329 197.527 214.863 194.418 214.086C191.308 213.308 190.453 213.386 189.054 215.796C188.355 216.962 186.8 217.584 185.711 218.517C184.623 219.449 183.224 220.382 183.146 221.393C183.146 228.7 183.146 236.007 183.146 243.314C183.378 245.724 184.295 248.017 185.789 249.922C187.266 251.71 189.909 254.042 191.697 253.809C194.962 253.187 199.471 253.809 200.559 248.6C201.647 243.392 203.513 241.915 210.043 242.926L205.456 262.826C207.578 262.983 209.709 262.983 211.831 262.826C217.428 262.126 219.604 264.614 218.905 270.056C218.205 275.497 216.806 283.815 224.579 287.935C230.876 284.825 230.798 284.903 235.929 290.189C237.323 291.309 238.835 292.273 240.438 293.065C241.915 284.281 249.3 282.027 255.985 278.062C255.441 281.716 253.264 285.059 255.441 288.479L258.783 279.695L268.034 284.126C271.166 285.147 274.541 285.147 277.673 284.126C280.783 283.504 282.415 286.847 284.669 288.401C285.447 289.076 286.151 289.832 286.768 290.656C288.054 292.214 289.486 293.645 291.044 294.931C292.967 296.572 295.262 297.72 297.729 298.274C305.891 298.74 309.856 300.917 311.799 308.846C312.529 312.062 314.264 314.963 316.751 317.129C319.238 319.295 322.35 320.614 325.636 320.895C328.513 321.595 329.834 322.45 329.29 325.17C335.898 325.17 342.583 323.849 347.325 330.223C347.791 330.767 348.491 331.467 349.035 331.467C350.009 331.506 350.965 331.74 351.847 332.155C352.729 332.569 353.519 333.156 354.171 333.88C354.823 334.604 355.323 335.452 355.642 336.372C355.962 337.293 356.094 338.268 356.031 339.241V339.785C356.031 343.05 352.922 346.626 350.901 349.657C348.879 352.689 346.625 355.021 344.526 357.431C344.409 357.995 344.409 358.577 344.526 359.141C344.198 364.351 343.601 369.54 342.738 374.688C341.53 378.407 339.858 381.959 337.763 385.26C337.159 386.036 336.309 386.584 335.353 386.815C331.311 388.37 327.036 389.536 323.149 391.401C321.574 392.127 320.252 393.307 319.352 394.788C318.451 396.27 318.014 397.987 318.096 399.719C317.237 403.532 315.767 407.181 313.743 410.525C313.199 411.846 312.499 413.09 311.566 414.956L310.867 410.758C306.591 419.231 303.093 428.637 291.199 420.708C292.676 423.429 293.842 425.217 294.775 427.082C295.463 428.261 295.661 429.662 295.327 430.985C294.993 432.308 294.152 433.446 292.987 434.156C292.393 434.457 291.767 434.692 291.122 434.856C288.012 435.711 284.669 436.1 281.327 436.722C281.327 442.785 280.394 443.873 273.553 441.775C276.896 449.548 272.62 454.29 266.324 457.866C267.189 458.798 268.153 459.632 269.2 460.353C272.543 462.219 272.543 462.763 269.2 465.406C265.857 468.049 263.992 469.293 263.525 471.703C263.137 474.873 263.911 478.076 265.702 480.72C267.023 482.741 270.133 483.596 272.931 485.307C268.607 486.339 264.151 486.705 259.716 486.395C255.208 485.154 251.123 482.709 247.9 479.321C246.085 476.4 245.092 473.043 245.024 469.604C244.402 466.184 243.936 462.686 248.289 460.82H245.024L248.755 451.336H249.61L250.31 455.223H250.854L252.564 445.273C248.522 444.806 248.522 442.396 249.921 439.52C249.921 438.976 250.932 438.354 250.776 438.121C247.978 431.902 253.575 427.627 254.352 422.574C255.13 417.521 255.441 412.235 256.14 407.026C257.073 400.419 258.239 393.811 259.017 386.971C259.717 383.141 259.717 379.217 259.017 375.388C258.551 373.922 257.775 372.573 256.743 371.433C255.71 370.293 254.444 369.388 253.031 368.78C244.48 365.749 242.148 357.975 238.805 351.212C236.929 345.518 233.973 340.239 230.099 335.665C229.211 334.763 228.713 333.549 228.713 332.283C228.713 331.018 229.211 329.803 230.099 328.902C231.08 327.909 231.917 326.784 232.586 325.559C229.477 324.549 228.622 322.45 230.099 319.807C232.016 316.218 234.254 312.81 236.784 309.623C237.663 308.838 238.351 307.864 238.798 306.774C239.245 305.685 239.438 304.507 239.363 303.332C239.288 302.156 238.947 301.013 238.366 299.989C237.784 298.964 236.978 298.086 236.007 297.419C234.454 295.59 233.219 293.514 232.353 291.278L230.721 288.168H229.399L226.989 294.309L224.579 292.521C223.805 291.841 222.908 291.313 221.936 290.967C220.071 290.5 218.205 290.5 218.283 287.857C213.93 286.691 213.541 282.804 212.064 279.462C211.29 277.618 210.066 275.997 208.504 274.748C206.943 273.499 205.093 272.66 203.124 272.31C199.489 271.25 196.366 268.901 194.34 265.702C192.474 263.526 190.687 262.049 187.733 264.225C187.049 264.534 186.307 264.694 185.556 264.694C184.805 264.694 184.063 264.534 183.379 264.225C177.005 260.572 170.708 256.452 164.645 252.72C163.968 252.209 163.414 251.553 163.023 250.8C162.633 250.046 162.417 249.215 162.391 248.367C162.742 246.315 162.632 244.211 162.067 242.207C161.502 240.203 160.497 238.351 159.126 236.785C156.016 232.354 152.518 228.078 149.797 223.569C147.077 219.061 145.522 215.252 143.112 211.287C142.257 209.888 140.391 209.11 138.914 207.944L137.671 208.877C138.992 211.676 140.391 214.474 141.791 217.35L149.564 231.965C150.108 233.053 150.808 233.986 151.274 235.074C151.741 236.163 152.285 237.795 152.829 239.194L151.041 239.972C149.353 236.024 147.378 232.205 145.133 228.544C143.501 226.655 141.587 225.03 139.459 223.725C139.459 221.16 140.314 219.138 139.459 218.594C135.928 214.168 133.288 209.099 131.685 203.669C131.063 202.503 130.052 200.87 128.886 200.559C122.279 198.927 121.113 192.786 118.547 188.044C117.161 186.074 116.037 183.931 115.205 181.67C113.552 175.994 113.128 170.031 113.961 164.179C113.912 158.438 113.34 152.714 112.251 147.077Z" fill="#191B1D"/>
<path d="M503.72 422.496C502.282 421.823 501.102 420.701 500.358 419.298C499.615 417.896 499.349 416.289 499.6 414.722C499.437 411.047 497.881 407.572 495.246 405.005C491.602 400.81 489.66 395.402 489.805 389.846C489.205 384.543 487.251 379.484 484.13 375.154C482.523 371.915 481.833 368.297 482.135 364.694C482.436 361.09 483.717 357.637 485.84 354.71C487.24 351.834 488.483 349.812 486.384 346.936C485.907 346.199 485.689 345.324 485.763 344.449C486 341.256 485.577 338.048 484.52 335.025C483.464 332.003 481.796 329.23 479.621 326.88C477.42 324.69 475.925 321.89 475.329 318.842C474.733 315.793 475.064 312.637 476.279 309.778C476.684 307.632 476.267 305.413 475.113 303.559C474.539 302.956 473.833 302.495 473.051 302.211C472.268 301.928 471.431 301.831 470.604 301.927C467.339 301.927 465.24 301.927 463.996 298.584C462.753 295.242 458.71 296.097 455.834 296.719C452.958 297.341 450.159 298.818 447.283 299.75C445.93 300.077 444.552 300.285 443.163 300.372C439.509 300.384 435.864 300.748 432.28 301.461C431.193 301.92 430 302.069 428.833 301.891C427.667 301.712 426.572 301.214 425.673 300.45C422.164 297.887 418.839 295.081 415.722 292.055C412.875 288.59 410.277 284.927 407.949 281.094C407.405 280.394 406.394 279.928 405.772 279.15C405.15 278.373 404.14 277.362 404.14 276.43C403.568 271.971 403.939 267.443 405.228 263.137C406.51 259.89 406.51 256.278 405.228 253.031C402.43 248.755 405.228 246.19 406.705 243.159C408.804 238.883 411.291 234.841 413.779 230.798C414.413 229.9 415.353 229.264 416.422 229.011C420.62 227.689 423.496 225.668 423.418 220.537C423.446 218.918 423.917 217.337 424.781 215.966C425.644 214.596 426.867 213.488 428.316 212.764C430.846 210.765 433.072 208.408 434.923 205.767C439.665 209.577 444.873 207.711 450.004 205.767C453.297 204.435 456.745 203.521 460.265 203.047C465.218 202.439 470.201 202.102 475.19 202.036C477.129 202.104 479.056 202.364 480.943 202.813C479.932 205.767 478.922 208.566 477.833 211.909C480.166 216.262 485.607 214.007 489.883 215.795C490.349 215.795 491.36 215.795 491.36 215.795C492.37 220.848 497.501 219.604 500.455 221.781C503.409 223.958 504.341 222.248 504.575 219.371C504.615 218.092 505.146 216.878 506.058 215.98C506.97 215.083 508.192 214.571 509.472 214.552C510.339 214.619 511.185 214.857 511.96 215.251C516.268 217.046 520.681 218.577 525.175 219.838C527.485 220.228 529.856 220.068 532.093 219.371C535.047 218.516 537.224 218.205 538.468 222.014C540.192 227.155 542.217 232.191 544.531 237.095C546.397 241.06 550.05 244.869 550.439 248.6C552.048 254.447 554.344 260.084 557.28 265.391C557.976 267.06 559.008 268.568 560.311 269.822C562.643 272.154 565.364 274.097 567.463 276.663C568.551 277.984 568.396 280.316 569.407 281.949C569.764 282.432 570.234 282.819 570.776 283.076C571.319 283.334 571.916 283.454 572.516 283.426C578.191 282.182 583.788 280.627 590.084 278.995C589.94 281.831 589.39 284.632 588.452 287.313C584.589 296.531 578.813 304.825 571.505 311.644C565.649 317.606 560.581 324.294 556.425 331.544C555.958 332.166 555.803 333.721 556.425 333.954C559.456 336.442 557.513 339.707 558.057 342.583C558.601 345.459 560.234 347.48 560.622 350.356C561.525 354.122 561.736 358.021 561.244 361.862C560.7 364.349 557.902 366.603 555.803 368.469C552.538 371.501 549.195 374.222 545.93 377.176C545.386 377.564 545.542 378.963 545.93 379.819C546.319 380.674 547.019 382.85 547.485 384.327C548.124 385.967 548.091 387.793 547.392 389.408C546.694 391.024 545.386 392.298 543.754 392.956C542.354 393.656 541.033 394.511 540.411 394.822C540.411 397.62 540.877 400.03 539.945 401.429C536.079 410.032 529.112 416.861 520.433 420.552C516.506 421.274 512.53 421.69 508.539 421.796C506.911 421.838 505.293 422.073 503.72 422.496Z" fill="#191B1D"/>
<path d="M296.65 74.0825L291.986 70.3511L302.325 65.065V60.7118L293.696 57.4469V56.1254L302.714 57.3692L295.873 52.9382C291.675 55.4258 290.354 54.4152 290.198 48.1186H293.152C291.287 45.3978 289.732 42.7548 287.789 40.345C285.489 36.9524 282.175 34.3737 278.322 32.9775C274.469 31.5813 270.272 31.4392 266.333 32.5714C264.749 33.1803 263.053 33.4453 261.358 33.3488C259.57 33.3488 256.383 34.9812 256.15 30.7057C256.15 30.1616 252.807 29.7729 250.786 29.3842V27.8295L259.493 27.3631L244.723 23.1653C245.777 22.4639 246.897 21.8652 248.065 21.3774C252.341 20.6778 256.694 20.2891 260.97 19.434C263.535 18.9676 266.722 18.8899 266.722 14.6921H260.503V13.2151L274.807 9.48381V6.84075C274.807 6.84075 275.428 6.84075 275.662 6.84075C279.782 8.31774 283.435 5.20828 287.089 5.13055C288.239 5.07685 289.386 5.27911 290.448 5.72274C291.51 6.16637 292.46 6.8403 293.23 7.69585C294.318 8.62869 296.573 4.12002 299.527 6.68531C300.071 7.15172 301.47 6.68531 302.792 6.68531L301.159 3.80905L316.084 7.6181V6.2966C314.829 6.20669 313.596 5.91806 312.431 5.4415C312.008 5.26088 311.633 4.98412 311.337 4.63325C311.04 4.28238 310.829 3.86706 310.721 3.42035C310.721 2.87619 311.887 1.78794 312.586 1.7102C316.318 1.7102 320.36 1.71016 323.936 0.932795C326.507 0.474703 329.103 0.163294 331.709 0C342.204 0 352.698 4.74927e-06 363.192 0.855101C367.965 1.6142 372.651 2.83784 377.185 4.50865L365.913 6.37435V8.16225H369.023C370.874 8.07037 372.717 7.86272 374.542 7.54041L372.365 11.1163C377.172 10.5101 381.927 9.54868 386.591 8.24C389.166 7.26525 391.92 6.85117 394.668 7.02544C397.416 7.19971 400.095 7.95829 402.527 9.25055C393.432 13.6038 383.637 16.4023 377.807 24.7978C379.892 24.6403 381.988 24.7976 384.026 25.2642C385.347 25.8084 385.969 27.9072 387.135 29.6952H380.839C380.839 32.2605 387.057 33.9707 382.082 37.4688L384.881 40.4227L378.429 41.3556L381.383 44.6982H371.432C369.489 47.2635 369.878 49.2847 373.609 50.7616C374.406 50.9858 375.15 51.3648 375.8 51.8769C376.45 52.389 376.993 53.0242 377.397 53.7462C377.801 54.4681 378.059 55.2627 378.156 56.0844C378.253 56.9061 378.187 57.739 377.962 58.5352L369.256 54.9594L366.302 58.5352L377.263 59.6235C369.894 64.6652 361.461 67.9373 352.62 69.185C351.143 69.185 349.355 71.0508 348.345 72.45C346.822 75.1469 344.529 77.3275 341.759 78.7125C338.989 80.0975 335.869 80.6237 332.798 80.2236C331.865 80.2236 329.766 82.478 329.766 83.5663C330.045 85.2424 329.798 86.9637 329.061 88.4945C328.323 90.0253 327.131 91.2906 325.646 92.1172C325.18 92.1172 324.946 93.1278 324.791 93.7497C324.091 96.8591 323.158 100.046 322.614 103.233C322.07 106.421 320.282 105.643 318.339 104.788C315.672 103.858 313.074 102.741 310.565 101.446C308.872 100.503 307.452 99.1369 306.445 97.481C302.869 90.7957 299.527 84.1881 296.339 77.5806C296.221 76.4053 296.326 75.2183 296.65 74.0825Z" fill="#191B1D"/>
<path d="M842.359 358.286C843.84 359.351 845.151 360.636 846.246 362.095C847.476 363.834 848.202 365.878 848.345 368.003C848.345 372.9 851.688 374.688 854.564 377.098C855.112 377.502 855.608 377.972 856.041 378.497C857.099 380.921 858.758 383.034 860.861 384.638C864.183 387.71 866.648 391.595 868.012 395.91C869.123 398.894 869.533 402.094 869.21 405.261C868.886 408.429 867.838 411.48 866.147 414.178C862.982 418.934 860.643 424.19 859.228 429.725C855.617 432.093 851.418 433.412 847.101 433.534L844.847 432.29C843.808 432.943 842.65 433.382 841.44 433.583C840.23 433.783 838.993 433.741 837.799 433.459C836.606 433.177 835.48 432.66 834.488 431.939C833.496 431.218 832.657 430.307 832.021 429.259C831.632 428.651 831.319 427.998 831.088 427.315C829.869 425.137 828.408 423.103 826.734 421.252L825.18 422.34L826.424 415.888L820.516 422.573C818.728 419.542 817.639 415.888 815.23 414.333C812.133 412.599 808.576 411.866 805.046 412.235C800.213 412.639 795.496 413.93 791.131 416.044C788.169 418.251 784.564 419.426 780.87 419.386C778.079 419.433 775.368 420.328 773.097 421.952C771.919 422.781 770.479 423.152 769.048 422.994C767.616 422.837 766.292 422.162 765.323 421.096C764.709 420.097 764.462 418.915 764.623 417.754C764.623 415.888 765.789 413.789 765.401 412.079C764.329 408.36 763.058 404.701 761.592 401.118C760.892 399.253 759.493 397.387 761.592 395.366C761.592 395.366 760.97 393.656 760.814 392.723C760.814 389.691 759.026 385.804 760.426 383.861C761.825 381.918 766.256 380.363 769.288 378.575C773.641 376.087 780.559 377.953 782.503 371.345C782.503 370.335 782.503 369.324 783.125 368.391L784.835 366.059L786.389 367.303C788.577 364.538 790.967 361.939 793.541 359.53C796.495 356.886 798.283 358.519 799.371 363.105C800.898 360.807 802.559 358.6 804.346 356.498C806.112 355.087 807.983 353.814 809.943 352.689C810.624 352.071 811.248 351.395 811.809 350.668L823.159 353.388C818.805 360.074 818.805 360.074 825.413 364.971L829.144 367.536L833.886 370.49L835.907 359.141C836.529 355.643 837.074 351.911 837.618 348.258H839.094L842.359 358.286Z" fill="#191B1D"/>
<path d="M237.717 65.5319C238.184 60.5568 233.442 60.7123 231.11 58.3025C229.944 60.9455 229.244 63.744 225.979 60.79C225.357 60.2459 223.802 60.79 222.714 60.79C217.35 60.2459 212.064 59.7017 207.167 58.9243C206.079 58.9243 205.224 57.7583 203.824 56.9809L208.566 55.4262C204.058 54.5711 200.248 54.3379 202.192 49.2851C202.972 47.0089 204.615 45.1304 206.767 44.0543C208.919 42.9783 211.408 42.7909 213.697 43.5326C212.764 45.5537 210.976 47.7303 211.132 49.596C211.287 51.4617 213.386 53.5605 214.785 55.3485C213.386 46.1756 214.085 44.5431 220.693 43.6881C223.958 43.2216 225.59 45.1651 225.901 50.8398C228.604 49.2354 231.73 48.488 234.867 48.6962C238.003 48.9044 241.003 50.0583 243.47 52.0058C244.836 52.6489 246.315 53.0186 247.823 53.0941H249.144C252.132 54.4337 255.016 55.9927 257.773 57.7583C259.789 59.6455 261.612 61.7287 263.215 63.9772L259.328 64.6768L258.784 65.6874L276.274 75.0934L269.667 83.4889L260.96 75.7153L259.25 79.8353C262.593 82.867 268.656 85.1214 267.024 92.7395L262.049 92.2731L264.225 97.4037C258.084 94.8384 252.021 94.683 248.134 89.1637C246.999 87.6778 245.442 86.5705 243.665 85.9876C241.889 85.4048 239.978 85.3738 238.184 85.8987C236.519 85.913 234.864 85.6504 233.286 85.1214C233.286 83.7221 233.753 82.4007 234.141 81.0791C234.289 80.2217 234.606 79.4024 235.074 78.6693C235.781 77.596 236.742 76.7147 237.873 76.104C238.339 76.104 239.427 77.0368 240.205 77.581L237.329 81.3123L243.625 80.6127V79.5244L241.526 78.8248C242.537 75.4821 248.756 75.2489 246.579 70.4293C245.931 68.6889 244.68 67.2383 243.055 66.3399C241.429 65.4416 239.536 65.155 237.717 65.5319Z" fill="#191B1D"/>
<path d="M209.747 11.2717C205.705 13.6038 201.974 9.63929 197.543 6.37437C203.706 5.28396 209.943 4.66026 216.2 4.50867C221.842 4.35187 227.426 3.32938 232.757 1.47697C236.909 0.893095 241.121 0.893095 245.273 1.47697C253.047 1.47697 260.82 1.94342 268.594 2.48757C271.007 2.99428 273.355 3.77674 275.59 4.81962C273.957 5.67471 272.558 6.52984 271.159 7.15172C264.551 10.028 257.788 12.9042 250.87 15.6249C249.459 16.2631 247.969 16.7077 246.439 16.9465C244.612 17.0639 242.885 17.8222 241.563 19.0879C240.24 20.3535 239.407 22.0452 239.209 23.865L229.648 27.8295L233.768 30.2393C230.192 30.7835 227.394 34.0484 224.051 30.2393C224.051 30.2393 222.418 30.2393 221.563 30.2393C214.96 31.5387 208.145 31.2724 201.663 29.462L208.27 27.5186L207.493 25.3419L213.479 25.8084L213.867 24.7978L208.659 22.3102C211.769 17.4906 216.433 21.6106 220.009 20.6L210.68 15.0031L211.846 14.0702C217.443 16.2468 222.574 12.9042 228.404 12.8264C222.729 9.09509 216.433 14.0702 209.747 11.2717Z" fill="#191B1D"/>
<path d="M130.999 59.313L143.048 58.5356V57.7583C140.56 57.7583 138.073 57.2141 135.274 57.1364C132.476 57.0587 130.377 57.1364 127.967 57.1364V55.7371L132.942 53.8715L126.102 52.1613C128.434 46.642 133.331 45.9424 138.773 45.165V48.119H140.172C142.426 45.9424 144.369 46.7198 146.468 48.5077C148.567 50.2956 149.422 45.2428 151.521 47.8858C152.703 49.5349 154.148 50.9792 155.797 52.1613L154.242 45.2428H160.539C161.532 48.7299 163.025 52.0551 164.97 55.1152C166.991 57.6028 170.644 58.6911 173.287 61.2564L169.245 61.6451L171.033 64.91C168.691 65.2986 166.301 65.2986 163.959 64.91C158.924 63.752 153.647 64.2988 148.956 66.4647C146.235 67.2421 142.348 68.7191 140.249 64.2881C140.249 63.6662 138.462 63.6662 137.606 63.433L130.61 61.4118L130.999 59.313Z" fill="#191B1D"/>
<path d="M853.792 335.12L850.449 337.452L860.399 347.869C858.189 347.813 856.025 347.226 854.09 346.157C852.155 345.088 850.506 343.569 849.283 341.728C848.836 340.688 848.002 339.862 846.957 339.427C845.912 338.992 844.739 338.98 843.686 339.396C843.103 339.648 842.58 340.021 842.151 340.49C841.723 340.959 841.398 341.513 841.198 342.116C840.866 343.021 840.188 343.758 839.315 344.165C838.441 344.573 837.442 344.619 836.534 344.293C836.053 344.11 835.606 343.847 835.213 343.516C832.57 340.406 829.693 340.484 825.34 341.883L828.916 336.908C828.619 335.303 827.857 333.82 826.723 332.645C825.59 331.47 824.136 330.655 822.542 330.3C819.393 329.567 816.301 328.605 813.291 327.424C812.358 327.036 811.814 325.559 810.959 324.47L814.224 322.916L805.906 318.951C807.652 318.256 809.444 317.685 811.27 317.241C811.745 317.082 812.246 317.019 812.745 317.054C813.244 317.09 813.732 317.223 814.179 317.447C814.627 317.671 815.026 317.981 815.354 318.359C815.682 318.737 815.932 319.176 816.09 319.651C816.09 319.651 816.09 320.117 816.09 320.273C816.635 322.284 817.31 324.257 818.111 326.18H819.51C820.077 325.178 820.784 324.262 821.609 323.46C824.174 321.205 826.351 319.184 830.393 322.294C834.435 325.403 838.167 324.548 842.053 326.491C846.179 329.066 850.103 331.951 853.792 335.12Z" fill="#191B1D"/>
<path d="M748.209 309.467L752.329 310.866L769.897 294.309L775.105 299.517C769.975 304.414 769.741 307.757 774.561 312.81C772.153 314.558 770.266 316.929 769.102 319.667C767.938 322.406 767.541 325.41 767.953 328.357L751.318 325.092C750.618 319.728 746.11 315.453 748.209 309.467Z" fill="#191B1D"/>
<path d="M570.826 364.971C579.533 365.359 579.999 357.197 584.819 353.854C586.172 355.075 587.054 356.732 587.31 358.537C587.565 360.341 587.179 362.178 586.218 363.727C585.936 364.365 585.778 365.051 585.752 365.748C583.419 374.066 581.243 382.306 578.678 390.624C578.476 391.228 578.157 391.786 577.738 392.266C577.32 392.746 576.81 393.138 576.239 393.42C575.668 393.702 575.047 393.868 574.411 393.908C573.776 393.949 573.138 393.863 572.536 393.655C571.91 393.425 571.331 393.082 570.826 392.645C569.571 390.975 568.773 389.006 568.514 386.933C568.255 384.861 568.543 382.756 569.349 380.829C570.254 378.336 570.727 375.707 570.748 373.055C570.982 370.412 570.826 367.847 570.826 364.971Z" fill="#191B1D"/>
<path d="M441.087 117.615L437.511 116.526V111.318C437.511 110.696 438.444 109.685 438.6 109.763C440.776 110.696 441.865 109.141 441.631 107.664C441.398 106.187 439.222 105.488 437.9 104.399C436.579 103.311 437.045 104.399 436.345 104.399L436.889 101.679C433.08 98.1027 431.603 95.4597 432.614 93.905C434.791 90.7956 439.61 88.9299 441.709 90.2515C443.808 91.573 444.974 94.1382 442.642 98.6469L452.048 111.629C452.913 111.762 453.722 112.139 454.38 112.717C454.38 113.184 453.68 114.738 453.292 115.749L451.893 119.791L434.635 122.512L441.087 117.615Z" fill="#191B1D"/>
<path d="M738.816 333.488L733.919 333.099C730.188 327.735 726.145 321.594 721.715 315.608C717.284 309.623 713.941 304.259 709.121 298.04C718.061 299.051 721.481 305.814 727.078 310.167C730.845 313.216 733.919 317.032 736.096 321.361C736.795 322.449 738.816 322.76 739.982 323.382L738.739 333.643L738.816 333.488Z" fill="#191B1D"/>
<path d="M607.443 43.687C604.341 44.1902 601.166 44.0202 598.135 43.1886C595.104 42.357 592.287 40.8834 589.875 38.8674C593.564 35.813 597.02 32.487 600.214 28.9172C603.909 25.2492 608.725 22.9232 613.895 22.3096C619.191 21.2865 624.536 20.534 629.909 20.0553C632.319 19.5111 634.729 18.8115 637.139 18.0342L637.838 19.6666C636.715 20.6036 635.421 21.3161 634.029 21.7655C629.017 22.4043 624.056 23.3914 619.181 24.7195C612.764 26.9875 607.054 30.9012 602.624 36.0689C602.002 36.8463 602.624 39.3338 603.323 40.3444C604.513 41.668 605.903 42.796 607.443 43.687Z" fill="#191B1D"/>
<path d="M378.565 87.9975L372.423 86.2096L377.943 83.3334H371.802L371.18 82.556L376.932 79.2133L376.466 77.8141L379.731 82.0896L393.024 78.7469V77.3477C395.354 79.0567 397.446 81.0698 399.242 83.3334C401.108 86.676 397.299 87.6088 395.589 89.0081C393.261 90.6879 390.616 91.8779 387.815 92.5062C386.127 92.895 384.373 92.895 382.685 92.5062C380.051 91.8772 377.456 91.0986 374.911 90.1741L378.565 87.9975Z" fill="#191B1D"/>
<path d="M818.478 182.058L807.906 184.623C811.093 179.415 812.804 178.637 820.733 178.637C821.355 177.471 822.132 176.305 822.676 175.061C823.036 174.305 823.348 173.526 823.609 172.729C825.319 172.729 827.34 172.729 827.573 172.729C829.128 169.464 830.372 166.122 831.616 162.779C832.471 160.68 831.616 157.415 835.658 157.571C836.795 159.201 837.405 161.141 837.405 163.129C837.405 165.117 836.795 167.057 835.658 168.687C834.411 171.27 833.951 174.163 834.336 177.005C834.803 181.591 830.761 181.591 828.817 182.135C825.241 183.068 822.21 184.001 821.044 188.121H819.722L818.478 182.058Z" fill="#191B1D"/>
<path d="M111.625 39.5675C119.555 39.3791 127.454 40.6166 134.946 43.2211L124.141 49.8287C120.954 51.8498 118.622 53.7932 116.367 55.3479L108.594 50.4506C109.993 47.5743 114.346 45.1645 111.625 39.5675Z" fill="#191B1D"/>
<path d="M191.852 20.3665L194.184 18.3455L184.855 16.5575C186.643 11.8156 188.82 9.17258 193.329 9.94994C194.483 10.2485 195.603 10.6653 196.671 11.1937C197.929 11.7318 199.27 12.0474 200.636 12.1265C202.502 13.9922 203.979 16.7129 206.932 14.2254L210.975 17.4903C206.311 23.9424 200.558 24.8752 191.852 20.3665Z" fill="#191B1D"/>
<path d="M480.164 8.16252L494.157 9.32858L492.524 6.29688L515.845 15.7029V17.2577H508.071C507.527 16.0916 507.372 14.7701 506.672 14.3037C506.214 14.0715 505.708 13.9505 505.195 13.9505C504.682 13.9505 504.176 14.0715 503.718 14.3037C501.231 15.9361 498.898 17.9573 495.944 20.2116L489.259 18.5014L492.135 17.0244H487.938V16.2471L493.301 14.3814V13.2931C491.064 13.9881 488.725 14.3034 486.383 14.2259C484.151 13.1914 482.103 11.7998 480.319 10.1059L480.164 8.16252Z" fill="#191B1D"/>
<path d="M194.974 30.861L198.239 30.0059V32.2602C207.878 38.9455 218.528 32.2602 228.634 35.6028C228.085 37.2194 226.918 38.5525 225.388 39.3102C223.858 40.0679 222.09 40.1883 220.472 39.6451H219.772C218.429 39.4903 217.073 39.4903 215.73 39.6451C209.815 39.7486 203.899 39.541 198.006 39.0232C197.073 39.0232 195.985 37.0798 195.441 35.7583C195.093 34.1499 194.936 32.5061 194.974 30.861Z" fill="#191B1D"/>
<path d="M134.475 34.6703H133.153H131.987C131.598 34.6703 131.987 34.0484 131.987 33.8929C136.263 28.4514 140.849 31.7163 145.28 33.271C147.223 33.9707 149.089 34.6703 151.888 35.8363L149.556 30.5503L152.276 28.6846C152.743 28.6846 153.131 29.2287 153.287 29.5397C154.22 31.8718 154.919 34.437 158.495 32.5714C158.962 32.5714 160.827 33.3488 161.06 34.0484C161.061 34.5698 160.934 35.0834 160.69 35.5442C160.446 36.005 160.093 36.3989 159.661 36.6914C153.054 37.9352 146.446 38.9457 139.839 40.034C139.839 40.034 139.217 39.5676 138.362 38.7903L144.969 37.0801V36.0695L130.199 37.3133V36.6137L134.63 34.9812L134.475 34.6703Z" fill="#191B1D"/>
<path d="M903.844 456.544L922.112 440.997C922.905 441.315 923.64 441.761 924.288 442.319C924.91 442.863 925.61 444.34 925.377 444.573C923.433 446.672 923.355 450.403 919.78 451.18C918.964 451.442 918.255 451.96 917.759 452.657C912.317 459.421 912.317 459.421 903.844 456.544Z" fill="#191B1D"/>
<path d="M782.277 321.516L785.619 328.513L782.821 330.611L779.478 324.004C779.478 331.233 779.478 331.777 776.991 333.254C776.447 330.611 775.825 327.968 775.28 325.481H774.348C775.747 320.894 777.146 316.386 778.545 311.644C782.821 311.022 787.796 315.764 791.76 309.545C790.361 314.131 789.895 314.442 786.241 314.209C784.258 313.899 782.239 313.899 780.256 314.209C776.369 315.531 778.934 317.552 779.711 319.262L786.708 316.93L787.096 317.863L782.277 321.516Z" fill="#191B1D"/>
<path d="M422.588 115.127V108.519C424.112 107.197 425.565 105.795 426.942 104.321C429.274 101.678 431.606 103.466 433.627 104.321C435.648 105.176 435.259 106.964 433.238 108.208C433.238 108.208 432.772 109.063 432.772 109.607C432.772 110.151 433.238 113.883 432.772 114.271C429.901 115.703 426.876 116.798 423.754 117.536C423.132 117.536 422.277 116.448 421.5 115.826L422.588 115.127Z" fill="#191B1D"/>
<path d="M183.45 43.6881L180.574 46.0202L184.771 47.8859C186.015 52.3168 181.429 52.1613 179.641 53.9493C179.641 53.9493 177.309 52.6278 176.065 51.9282L168.758 47.7304V46.4089L175.132 47.4972L171.79 43.9991C173.304 42.4282 175.375 41.5152 177.556 41.4571C179.737 41.3989 181.854 42.2002 183.45 43.6881Z" fill="#191B1D"/>
<path d="M843.501 126.01H839.847C840.236 129.741 840.625 133.395 841.013 136.738H837.438C839.77 126.865 834.328 116.215 840.003 105.177C841.247 112.795 842.335 119.402 843.501 126.01Z" fill="#191B1D"/>
<path d="M738.738 333.643C741.272 334.503 743.872 335.153 746.512 335.586C750.632 336.053 754.752 336.053 758.949 336.286C759.97 336.192 760.991 336.468 761.826 337.063L759.338 338.385L765.79 340.95V341.961C762.564 341.971 759.342 341.737 756.151 341.261C751.16 340.576 746.225 339.537 741.381 338.152C740.53 337.948 739.793 337.419 739.328 336.677C738.863 335.936 738.707 335.042 738.894 334.187C738.864 333.955 738.864 333.72 738.894 333.487L738.738 333.643Z" fill="#191B1D"/>
<path d="M835.037 152.207L833.093 156.483C831.383 151.119 832.16 149.331 835.814 149.253L837.058 140.158C840.4 142.102 841.178 147.465 846.231 145.755L847.008 149.564L840.012 153.607L835.037 152.207Z" fill="#191B1D"/>
<path d="M833.099 27.3632C830.883 27.284 828.675 27.0503 826.491 26.6636C825.792 26.6636 824.703 25.0311 824.859 24.4092C825.014 23.7873 826.18 22.7768 827.035 22.2326C827.306 22.1172 827.597 22.0576 827.891 22.0576C828.184 22.0576 828.475 22.1172 828.746 22.2326C833.641 22.9698 838.62 22.9698 843.515 22.2326C844.448 22.2326 845.381 23.4764 846.236 24.0983C845.459 24.7979 844.759 26.1194 843.826 26.2749C840.251 26.819 836.752 27.0522 833.099 27.3632Z" fill="#191B1D"/>
<path d="M937.658 431.357C937.197 432.524 936.625 433.643 935.948 434.699C933.926 437.498 931.75 440.219 929.573 442.473C929.508 442.541 929.429 442.596 929.343 442.633C929.256 442.67 929.162 442.689 929.068 442.689C928.973 442.689 928.88 442.67 928.793 442.633C928.706 442.596 928.628 442.541 928.563 442.473C928.484 442.273 928.484 442.051 928.563 441.851L925.453 435.788L928.252 428.481C931.05 427.159 933.149 435.244 937.58 429.647L937.658 431.357Z" fill="#191B1D"/>
<path d="M170.706 33.2709V30.6278L175.682 33.2709L174.515 30.3946C176.478 30.1614 178.461 30.1614 180.423 30.3946C181.123 30.3946 181.978 32.649 181.823 33.7373C181.667 34.8256 180.734 37.6241 179.724 37.7796C178.713 37.9351 176.459 36.769 174.826 36.2248C173.194 35.6807 172.417 35.6807 171.251 35.3697C170.026 35.1256 168.828 34.7611 167.675 34.2814C166.511 33.5485 165.395 32.7437 164.332 31.8716C164.876 31.2498 165.654 30.1615 165.809 30.2392C167.101 30.9237 168.325 31.7307 169.463 32.649C169.733 32.9305 169.968 33.2437 170.162 33.5818L170.706 33.2709Z" fill="#191B1D"/>
<path d="M217.973 249.455C219.278 247.234 221.344 245.56 223.788 244.746C226.232 243.931 228.889 244.03 231.266 245.024C236.474 247.667 241.527 250.621 247.357 253.731L239.583 254.663C237.873 252.565 236.785 250.466 235.075 249.533C231.975 247.87 228.607 246.765 225.124 246.268C222.87 246.113 220.46 248.211 217.973 249.455Z" fill="#191B1D"/>
<path d="M778.376 257.851C784.284 259.639 785.295 262.282 783.04 265.624C780.786 268.967 781.641 270.599 785.761 271.454C787.005 271.787 788.226 272.202 789.415 272.698L788.015 275.73C785.295 273.165 780.786 273.709 778.065 270.133C775.344 266.557 781.33 262.826 778.376 257.851Z" fill="#191B1D"/>
<path d="M200.103 42.5211C200.054 43.271 199.855 44.0034 199.518 44.6748C199.18 45.3461 198.711 45.9426 198.138 46.4286C197.565 46.9147 196.9 47.2804 196.182 47.5038C195.465 47.7273 194.709 47.8041 193.962 47.7294C193.418 47.7294 192.407 47.7294 192.329 48.1958C191.863 51.5385 189.375 50.3724 188.676 49.0509C187.976 47.7294 187.121 44.2313 188.132 43.0653C189.952 41.8095 192.144 41.2067 194.35 41.3551C196.308 41.5095 198.24 41.901 200.103 42.5211Z" fill="#191B1D"/>
<path d="M792.511 294.309L793.133 297.418L791.89 298.118L787.225 292.054L783.65 292.754L783.105 291.821L794.299 285.524L795.077 294.309H792.511Z" fill="#191B1D"/>
<path d="M717.029 5.36392L698.527 9.63943C698.527 8.47339 698.527 6.84095 699.149 6.37453C701.662 4.38332 704.728 3.21741 707.929 3.0365C711.129 2.85559 714.308 3.6685 717.029 5.36392Z" fill="#191B1D"/>
<path d="M116.828 31.9496C119.632 30.2162 122.569 28.7086 125.612 27.4409C128.62 26.6783 131.69 26.184 134.785 25.9639L135.485 27.4409C134.073 28.8626 132.567 30.1872 130.976 31.4054C130.158 30.8929 129.379 30.3213 128.644 29.6952C125.69 33.2711 118.305 34.6703 116.828 31.9496Z" fill="#191B1D"/>
<path d="M246.574 258.239L253.182 258.783L249.917 254.974C256.213 253.342 263.132 255.751 262.821 259.638C257.302 259.172 251.549 261.893 246.574 258.239Z" fill="#191B1D"/>
<path d="M227.462 92.35C225.13 92.35 223.031 93.2051 222.253 92.35C219.844 90.3289 218.367 92.35 216.268 92.35C214.076 92.6636 211.852 92.6636 209.66 92.35C214.169 85.276 215.335 84.5764 220.932 87.9968L222.02 88.6187L227.462 92.35Z" fill="#191B1D"/>
<path d="M723.195 6.7627L721.952 11.0382C713.012 12.4375 710.524 12.1265 706.016 8.2397L723.195 6.7627Z" fill="#191B1D"/>
<path d="M523.625 8.86218C519.316 9.34256 514.98 9.55028 510.644 9.48408C507.312 8.91576 504.088 7.8409 501.082 6.29688H523.625V8.86218Z" fill="#191B1D"/>
<path d="M177.709 24.8753L163.172 21.8436L166.437 20.4444L161.695 19.1229V17.7236C163.651 17.8417 165.598 18.0753 167.526 18.4232C169.452 18.8074 171.33 19.4072 173.123 20.2112C174.943 21.188 176.684 22.3056 178.331 23.5538L177.709 24.8753Z" fill="#191B1D"/>
<path d="M737.884 14.0702L721.637 15.3917L720.938 14.6921C723.581 13.1374 726.146 10.5721 728.711 10.3389C731.913 10.5883 735.045 11.4043 737.962 12.7487L737.884 14.0702Z" fill="#191B1D"/>
<path d="M669.309 285.058C671.007 287.517 672.489 290.118 673.74 292.831C673.74 293.686 672.341 296.174 671.097 296.563C668.687 297.495 667.755 295.863 667.988 293.531C668.221 291.199 667.988 288.245 667.988 285.757L669.309 285.058Z" fill="#191B1D"/>
<path d="M849.67 450.325L845.395 440.996C847.98 440.749 850.583 440.749 853.168 440.996C853.945 440.996 855.034 443.717 854.645 444.495C853.233 446.636 851.562 448.594 849.67 450.325Z" fill="#191B1D"/>
<path d="M806.132 185.09C810.873 188.899 810.563 193.485 805.51 196.284V189.676L803.566 188.51L806.132 185.09Z" fill="#191B1D"/>
<path d="M473.02 158.582L475.818 157.416C475.818 158.271 476.829 159.204 476.595 159.67C475.662 161.769 477.917 165.734 473.02 165.967V158.582Z" fill="#191B1D"/>
<path d="M490.753 174.751L483.602 170.398V169.465H491.375L490.753 174.751Z" fill="#191B1D"/>
<path d="M225.367 42.7549L236.017 45.1647L235.551 46.8749C232.363 45.1647 227.699 50.1398 225.367 42.7549Z" fill="#191B1D"/>
<path d="M179.41 19.7451C182.908 20.4447 185.24 20.8334 187.65 21.4553C187.854 21.6078 188.017 21.8081 188.126 22.0385C188.234 22.2689 188.285 22.5225 188.272 22.7768C188.03 23.3971 187.556 23.8988 186.951 24.1761C183.686 25.1866 181.587 23.9429 179.41 19.7451Z" fill="#191B1D"/>
<path d="M783.502 237.483L780.004 247.978C777.05 243.314 777.827 240.593 783.502 237.483Z" fill="#191B1D"/>
<path d="M855.953 332.244C857.754 332.555 859.594 332.555 861.395 332.244C862.794 331.623 863.805 329.835 865.981 328.979C865.354 330.335 864.571 331.614 863.649 332.789C862.821 333.752 861.646 334.35 860.379 334.452C859.113 334.554 857.857 334.152 856.886 333.333C856.496 333.046 856.177 332.673 855.953 332.244Z" fill="#191B1D"/>
<path d="M184.465 36.6134L191.539 34.2812L192.161 38.7122C190.711 38.7899 189.258 38.7899 187.808 38.7122C186.694 38.4303 185.603 38.0666 184.543 37.6239L184.465 36.6134Z" fill="#191B1D"/>
<path d="M797.117 341.339L786.156 349.112C786.648 346.663 788.056 344.494 790.094 343.049C792.131 341.605 794.643 340.993 797.117 341.339Z" fill="#191B1D"/>
<path d="M181.584 70.2734L187.647 73.8493V74.7821L178.008 73.927L181.584 70.2734Z" fill="#191B1D"/>
<path d="M184.003 28.374L192.788 29.1514C189.523 33.116 186.802 30.6284 183.926 29.1514L184.003 28.374Z" fill="#191B1D"/>
<path d="M140.699 24.7982L149.561 23.3213C148.006 27.519 144.975 28.1409 140.699 24.7982Z" fill="#191B1D"/>
<path d="M816.63 183.379C819.117 189.131 812.432 186.722 812.432 189.753C810.1 185.089 814.764 185.633 816.63 183.379Z" fill="#191B1D"/>
<path d="M807.294 326.569H798.898C798.898 325.714 799.598 324.159 799.987 324.159C802.785 323.926 805.817 323.382 807.294 326.569Z" fill="#191B1D"/>
</g>
</svg>
