<svg width="370" height="302" viewBox="0 0 370 302" fill="none" xmlns="http://www.w3.org/2000/svg">
<path d="M128.385 246.999L350.613 246.999V32.2676L128.385 32.2676L128.385 246.999Z" fill="white"/>
<path d="M350.614 247.731H128.386C128.196 247.731 128.013 247.656 127.878 247.521C127.744 247.386 127.668 247.204 127.668 247.013V32.2818C127.668 32.0913 127.744 31.9087 127.878 31.774C128.013 31.6394 128.196 31.5637 128.386 31.5637H350.614C350.805 31.5637 350.987 31.6394 351.122 31.774C351.257 31.9087 351.332 32.0913 351.332 32.2818V247.013C351.332 247.204 351.257 247.386 351.122 247.521C350.987 247.656 350.805 247.731 350.614 247.731ZM129.104 246.295H349.896V32.9999H129.104V246.295Z" fill="#191B1D"/>
<path d="M330.36 74.6335H150.355C150.164 74.6335 149.982 74.5579 149.847 74.4232C149.712 74.2885 149.637 74.1059 149.637 73.9155C149.637 73.725 149.712 73.5424 149.847 73.4077C149.982 73.273 150.164 73.1974 150.355 73.1974H330.36C330.551 73.1974 330.733 73.273 330.868 73.4077C331.003 73.5424 331.078 73.725 331.078 73.9155C331.078 74.1059 331.003 74.2885 330.868 74.4232C330.733 74.5579 330.551 74.6335 330.36 74.6335Z" fill="#D1D3D4"/>
<path d="M230.118 120.906H150.355C150.164 120.906 149.982 120.83 149.847 120.696C149.712 120.561 149.637 120.378 149.637 120.188C149.637 119.997 149.712 119.815 149.847 119.68C149.982 119.545 150.164 119.47 150.355 119.47H230.118C230.308 119.47 230.491 119.545 230.626 119.68C230.76 119.815 230.836 119.997 230.836 120.188C230.836 120.378 230.76 120.561 230.626 120.696C230.491 120.83 230.308 120.906 230.118 120.906Z" fill="#D1D3D4"/>
<path d="M242.985 42.7224L241.678 51.0808C241.678 51.0808 238.203 53.3499 235.388 50.851L234.426 41.9182L242.985 42.7224Z" fill="white"/>
<path d="M238.479 52.7754C237.164 52.7922 235.891 52.3098 234.918 51.4254C234.786 51.3067 234.704 51.1425 234.688 50.9658L233.711 42.0331C233.7 41.9284 233.712 41.8224 233.747 41.723C233.781 41.6236 233.838 41.5332 233.912 41.4586C233.984 41.3799 234.074 41.3193 234.174 41.2819C234.274 41.2444 234.381 41.2312 234.487 41.2432L243.104 42.0474C243.302 42.0761 243.481 42.1788 243.606 42.3347C243.666 42.4112 243.709 42.499 243.734 42.5928C243.759 42.6866 243.764 42.7844 243.75 42.8804L242.443 51.2244C242.405 51.4219 242.292 51.597 242.127 51.7126C241.035 52.4023 239.771 52.7706 238.479 52.7754ZM236.081 50.5206C236.804 51.0224 237.657 51.3032 238.537 51.3287C239.417 51.3542 240.285 51.1233 241.036 50.6643L242.17 43.4836L235.234 42.7224L236.081 50.5206Z" fill="#191B1D"/>
<path d="M239.501 45.5661C251.509 45.5661 261.244 39.6185 261.244 32.2818C261.244 24.9451 251.509 18.9976 239.501 18.9976C227.493 18.9976 217.758 24.9451 217.758 32.2818C217.758 39.6185 227.493 45.5661 239.501 45.5661Z" fill="white"/>
<path d="M239.5 46.284C227.121 46.284 217.039 39.9937 217.039 32.2817C217.039 24.5696 227.092 18.2793 239.5 18.2793C251.909 18.2793 261.961 24.5552 261.961 32.2817C261.961 40.0081 251.88 46.284 239.5 46.284ZM239.5 19.7154C227.911 19.7154 218.475 25.3451 218.475 32.2817C218.475 39.2182 227.911 44.8479 239.5 44.8479C251.09 44.8479 260.525 39.2038 260.525 32.2817C260.525 25.3595 251.09 19.7442 239.5 19.7442V19.7154Z" fill="#191B1D"/>
<path d="M249.628 14.7034C249.628 14.9906 249.025 29.5818 249.025 29.5818C249.025 29.5818 245.736 33.7753 238.34 32.971C230.944 32.1668 230.053 28.0882 230.053 28.0882L229.551 10.4955L249.628 14.7034Z" fill="#191B1D"/>
<path d="M240.189 33.8041C239.546 33.7999 238.903 33.7616 238.264 33.6892C230.437 32.8419 229.389 28.4186 229.346 28.2319L228.829 10.5243C228.824 10.415 228.845 10.3062 228.89 10.2065C228.935 10.1068 229.002 10.0189 229.087 9.94984C229.168 9.87838 229.266 9.82791 229.371 9.80287C229.476 9.77784 229.586 9.77899 229.69 9.80623L249.796 13.9998C249.96 14.0303 250.107 14.1177 250.212 14.2465C250.317 14.3753 250.374 14.5372 250.371 14.7035C250.371 15.0051 249.825 28.117 249.768 29.6106C249.765 29.7635 249.709 29.9107 249.61 30.0271C248.41 31.3056 246.945 32.3062 245.317 32.9587C243.69 33.6112 241.939 33.8997 240.189 33.8041ZM230.294 11.386L230.768 28.0595C230.768 28.0595 231.701 31.535 238.408 32.2674C244.54 32.9281 247.628 30.0414 248.317 29.2946C248.489 24.9862 248.805 17.4321 248.892 15.2779L230.294 11.386Z" fill="#191B1D"/>
<path d="M255.453 12.1122C255.897 6.83252 249.452 1.98107 241.058 1.27623C232.664 0.571381 225.5 4.28005 225.057 9.55976C224.613 14.8395 231.058 19.6909 239.452 20.3957C247.846 21.1006 255.01 17.3919 255.453 12.1122Z" fill="white"/>
<path d="M241.486 21.1803C240.787 21.1803 240.084 21.1516 239.375 21.0942C230.6 20.3617 223.85 15.1486 224.324 9.49018C224.798 3.81743 232.324 -0.189396 241.098 0.543035C245.012 0.79988 248.779 2.13171 251.984 4.39189C254.857 6.58918 256.379 9.34656 256.149 12.1614C255.919 14.9762 253.995 17.432 250.749 19.1123C247.868 20.5216 244.694 21.2302 241.486 21.1803ZM225.76 9.69123C225.344 14.5597 231.505 19.0692 239.49 19.7442C243.122 20.1269 246.789 19.5008 250.089 17.9347C252.875 16.4985 254.526 14.4161 254.713 12.1901C254.9 9.9641 253.636 7.59447 251.123 5.69877C248.136 3.59909 244.627 2.36643 240.984 2.13715C232.999 1.47653 226.163 4.89453 225.76 9.76304V9.69123Z" fill="#191B1D"/>
<path d="M192.625 85.0023L224.952 110.594L225.828 112.117L230.122 119.57L221.879 117.1L220.199 116.597L187.871 90.991L192.625 85.0023Z" fill="white"/>
<path d="M230.118 120.274C230.052 120.287 229.983 120.287 229.917 120.274L219.993 117.301C219.905 117.272 219.822 117.229 219.749 117.172L187.422 91.5512C187.274 91.4327 187.179 91.2605 187.157 91.0722C187.135 90.8839 187.189 90.6947 187.307 90.5459L192.06 84.5572C192.177 84.407 192.348 84.3091 192.536 84.2849C192.725 84.2607 192.915 84.3121 193.066 84.4279L225.393 110.034C225.462 110.091 225.52 110.159 225.565 110.235L230.75 119.211C230.827 119.331 230.867 119.471 230.867 119.613C230.867 119.756 230.827 119.895 230.75 120.015C230.672 120.105 230.574 120.175 230.465 120.22C230.355 120.264 230.236 120.283 230.118 120.274ZM220.539 115.966L228.596 118.378L224.388 111.083L192.793 86.0221L188.944 90.8906L220.539 115.966Z" fill="#191B1D"/>
<path d="M180.532 83.9096L184.019 79.5077C184.331 79.1135 184.787 78.8596 185.286 78.8016C185.786 78.7436 186.288 78.8864 186.682 79.1986L202.038 91.3609L196.197 98.7349L180.842 86.5726C180.447 86.2605 180.193 85.8045 180.135 85.3051C180.078 84.8057 180.22 84.3037 180.532 83.9096Z" fill="#191B1D"/>
<path d="M196.227 99.4212C196.067 99.4244 195.91 99.3738 195.782 99.2776L180.43 87.1135C180.156 86.9036 179.928 86.6398 179.76 86.3385C179.592 86.0371 179.488 85.7046 179.453 85.3614C179.411 85.0205 179.437 84.6745 179.531 84.3439C179.625 84.0134 179.784 83.705 179.999 83.437L183.474 79.028C183.907 78.4849 184.537 78.1341 185.226 78.0515C185.568 78.012 185.915 78.0412 186.245 78.1374C186.576 78.2336 186.883 78.3948 187.151 78.6116L202.517 90.7756C202.59 90.8332 202.651 90.9048 202.695 90.9863C202.739 91.0677 202.767 91.1573 202.776 91.2496C202.788 91.3432 202.782 91.4384 202.757 91.5296C202.732 91.6208 202.69 91.7062 202.632 91.781L196.787 99.1483C196.722 99.2346 196.637 99.3042 196.54 99.3517C196.443 99.3991 196.335 99.4229 196.227 99.4212ZM185.528 79.4732H185.399C185.244 79.4866 185.095 79.5317 184.959 79.6059C184.823 79.68 184.704 79.7816 184.609 79.9041L181.09 84.3705C180.898 84.6163 180.812 84.9282 180.849 85.2378C180.887 85.5475 181.046 85.8295 181.291 86.022L196.084 97.7409L201.024 91.4937L186.174 79.7317C185.984 79.5734 185.747 79.4825 185.499 79.4732H185.528Z" fill="#191B1D"/>
<path d="M192.037 101.116C191.876 101.114 191.719 101.058 191.592 100.958C191.262 100.699 183.564 94.6677 182.544 93.7773C181.525 92.8869 180.419 88.1476 180.117 86.7545C180.114 86.5806 180.171 86.411 180.28 86.2749C180.388 86.1388 180.54 86.0447 180.71 86.009C180.881 85.9732 181.058 85.998 181.212 86.0791C181.366 86.1601 181.487 86.2924 181.553 86.4529C181.908 88.6222 182.58 90.7273 183.55 92.7002C184.325 93.4182 189.725 97.6836 192.482 99.8808C192.561 99.9386 192.627 100.012 192.676 100.096C192.726 100.18 192.757 100.273 192.769 100.37C192.781 100.467 192.774 100.565 192.747 100.659C192.72 100.752 192.674 100.84 192.612 100.915C192.536 100.988 192.445 101.043 192.346 101.078C192.247 101.113 192.142 101.126 192.037 101.116Z" fill="#191B1D"/>
<path d="M125.684 202.953C125.684 202.953 149.279 215.361 163.267 213.178C177.629 210.923 201.856 155.603 210.028 143.252C217.525 131.935 222.953 120.375 220.598 106.387C220.376 104.638 219.792 102.956 218.885 101.445C217.978 99.9345 216.766 98.6291 215.327 97.6118C213.891 96.7501 212.268 96.0751 211.766 94.5672C211.579 94.0071 211.579 93.4039 211.364 92.8725C211.06 92.2983 210.572 91.8436 209.977 91.5828C209.382 91.322 208.717 91.2704 208.089 91.4364C206.856 91.8205 205.75 92.53 204.887 93.4901C201.023 97.2096 196.011 103.184 194.072 108.225C193.418 110.124 192.97 112.089 192.737 114.084C191.689 120.892 191.631 127.598 187.696 133.285C183.761 138.973 155.871 170.079 155.871 170.079L141.251 163.186" fill="white"/>
<path d="M159.663 214.154C145.618 214.154 126.244 204.101 125.354 203.599C125.184 203.511 125.057 203.36 124.999 203.178C124.941 202.996 124.958 202.799 125.045 202.629C125.133 202.46 125.284 202.332 125.466 202.274C125.648 202.216 125.845 202.233 126.015 202.32C126.259 202.45 149.567 214.599 163.153 212.474C173.407 210.866 189.42 180.247 200.004 159.997C203.896 152.573 207.185 146.153 209.44 142.85C216.276 132.51 222.365 120.963 219.895 106.516C219.694 104.863 219.149 103.271 218.296 101.841C217.442 100.412 216.299 99.1763 214.94 98.2148L214.122 97.7265C212.788 97.1766 211.704 96.1539 211.077 94.8543C210.995 94.5708 210.928 94.2831 210.876 93.9926C210.847 93.7286 210.789 93.4685 210.704 93.2171C210.455 92.8116 210.08 92.4992 209.636 92.3279C209.192 92.1566 208.704 92.136 208.248 92.2692C207.141 92.6238 206.149 93.2684 205.376 94.1362C201.67 97.7265 196.658 103.658 194.748 108.612C194.108 110.475 193.67 112.401 193.441 114.357C193.24 115.678 193.082 117 192.91 118.306C192.221 123.879 191.56 129.121 188.286 133.845C184.408 139.461 157.538 169.447 156.403 170.711C156.299 170.826 156.16 170.905 156.008 170.936C155.855 170.967 155.697 170.948 155.556 170.883L140.95 163.99C140.854 163.958 140.766 163.906 140.691 163.838C140.616 163.769 140.557 163.686 140.517 163.593C140.477 163.5 140.457 163.399 140.458 163.298C140.46 163.196 140.483 163.096 140.525 163.005C140.568 162.913 140.63 162.831 140.707 162.765C140.784 162.699 140.873 162.649 140.971 162.62C141.068 162.591 141.17 162.583 141.27 162.596C141.371 162.61 141.467 162.644 141.554 162.697L155.685 169.361C158.96 165.699 183.518 138.226 187.108 133.027C190.167 128.604 190.813 123.52 191.416 118.134C191.574 116.813 191.747 115.477 191.948 114.142C192.217 112.087 192.698 110.065 193.384 108.11C195.38 102.954 200.564 96.8218 204.37 93.1309C205.329 92.078 206.555 91.3039 207.918 90.8905C208.704 90.6704 209.542 90.7306 210.289 91.0607C211.035 91.3909 211.644 91.9704 212.011 92.7001C212.145 93.0466 212.237 93.4084 212.283 93.7772C212.317 94.0001 212.365 94.2208 212.427 94.4378C212.743 95.3856 213.748 95.9745 214.825 96.592C215.113 96.7643 215.414 96.9223 215.687 97.109C217.221 98.1726 218.513 99.547 219.481 101.143C220.448 102.739 221.069 104.521 221.302 106.372C223.772 121.351 217.296 133.659 210.617 143.712C208.478 146.957 205.131 153.348 201.268 160.73C189.894 182.473 174.341 212.244 163.354 213.953C162.131 214.116 160.897 214.184 159.663 214.154Z" fill="#191B1D"/>
<path d="M56.2074 105.123C46.8725 102.337 42.004 91.5512 39.5625 82.9343C36.7908 73.1112 33.5308 65.0975 37.4658 54.8722C38.3849 52.5313 39.821 50.0755 42.2481 49.4005C42.8689 49.3023 43.4643 49.0827 44.0002 48.7543C44.4149 48.3569 44.7256 47.8637 44.905 47.3181C50.549 34.0338 66.4471 33.6604 78.4388 35.5418C85.3754 36.6333 94.3656 39.8502 96.5054 46.916C100.469 60.0279 97.123 74.2888 89.8561 85.6199C82.9483 96.2474 70.0805 109.302 56.2074 105.123Z" fill="white"/>
<path d="M61.4924 106.631C59.6285 106.632 57.7747 106.356 55.992 105.812C46.3411 102.94 41.3577 91.8383 38.8732 83.0635C38.5573 81.9433 38.227 80.8518 37.911 79.7604C35.3834 71.2153 33.2148 63.8336 36.8195 54.5561C38.0977 51.253 39.8641 49.2711 42.0614 48.6536L42.5354 48.5387C42.8778 48.4882 43.2057 48.3658 43.4976 48.1797C43.7823 47.8861 43.9981 47.5329 44.1295 47.1457V47.002C49.874 33.3731 65.9731 32.8561 78.4388 34.8092C83.1924 35.556 94.5236 38.2129 97.1086 46.6717C100.871 59.1231 98.4155 73.4557 90.3731 85.9788C83.6233 96.5201 72.8953 106.631 61.4924 106.631ZM56.4085 104.476C69.0321 108.268 81.6127 97.0227 89.1811 85.232C96.9937 73.0249 99.3921 59.1374 95.7012 47.0308C93.3747 39.3474 82.6898 36.8773 78.1947 36.1736C66.246 34.2922 50.908 34.7374 45.4364 47.5047C45.2218 48.1763 44.8357 48.7802 44.3162 49.2568C43.8562 49.5742 43.3312 49.7852 42.7795 49.8743L42.3774 49.9749C40.6397 50.4631 39.1892 52.1578 38.069 55.0157C34.6653 63.8336 36.7764 70.9999 39.2179 79.3008C39.5338 80.3923 39.8641 81.4981 40.1801 82.6183C42.5641 91.0484 47.3608 101.676 56.3366 104.39L56.4085 104.476Z" fill="#191B1D"/>
<path d="M15.5614 184.9C15.5614 184.9 -2.72064 238.382 1.30055 253.533C5.32173 268.685 55.443 256.032 55.443 256.032L42.8624 179.989L15.5614 184.9Z" fill="white"/>
<path d="M20.3592 261.734C10.5935 261.734 2.22079 259.852 0.597955 253.749C-3.42323 238.569 14.1264 186.911 14.8732 184.713C14.9166 184.592 14.9913 184.484 15.0896 184.401C15.1879 184.318 15.3065 184.262 15.4333 184.239L42.7199 179.328C42.8126 179.313 42.9074 179.317 42.9986 179.339C43.0899 179.361 43.1758 179.401 43.2513 179.457C43.331 179.508 43.399 179.576 43.451 179.655C43.5029 179.734 43.5376 179.823 43.5529 179.917L56.1478 255.96C56.1786 256.139 56.1411 256.322 56.0425 256.474C55.944 256.625 55.7918 256.734 55.6164 256.779C54.3526 257.095 35.6685 261.734 20.3592 261.734ZM16.0508 185.618C14.3849 190.558 -1.8004 239.344 1.93356 253.433C5.48083 266.832 48.7517 256.98 54.568 255.587L42.2029 180.908L16.0508 185.618Z" fill="#191B1D"/>
<path d="M141.655 301.385L131.473 255.07L29.8516 282.356C29.8516 282.356 30.0526 289.954 30.3398 301.385H141.655Z" fill="#191B1D"/>
<path d="M98.3125 78.6259C98.3125 78.6259 108.251 91.0485 106.7 93.9638C105.149 96.8792 98.9588 95.601 98.9588 95.601" fill="white"/>
<path d="M101.858 96.549C100.837 96.5421 99.8184 96.446 98.8138 96.2617C98.6234 96.2236 98.4559 96.1115 98.3481 95.9499C98.2404 95.7883 98.2013 95.5905 98.2394 95.4001C98.2775 95.2096 98.3896 95.0421 98.5512 94.9344C98.7128 94.8266 98.9106 94.7875 99.101 94.8256C100.666 95.1415 104.989 95.5437 106.066 93.5474C106.885 92.0108 102.39 84.8014 97.7511 78.9994C97.6312 78.85 97.5746 78.6596 97.5934 78.469C97.6122 78.2784 97.7049 78.1028 97.8516 77.9797C98.0041 77.865 98.1947 77.8129 98.3843 77.8343C98.5739 77.8557 98.7482 77.9488 98.8713 78.0946C100.58 80.2344 109.025 91.0198 107.33 94.2224C106.325 96.1181 103.869 96.549 101.858 96.549Z" fill="#191B1D"/>
<path d="M94.8542 61.2629C100.843 65.2985 100.096 75.0499 100.599 81.3689C101.336 90.1676 101.863 98.9759 102.178 107.794C102.394 113.38 87.9751 114.817 85.2752 113.38L89.5836 135.181L58.2327 126.306L56.9258 100.742C56.9258 100.742 66.4617 99.9525 71.0574 88.09C75.653 76.2275 73.8435 58.8071 73.8435 58.8071C73.8435 58.8071 89.0235 57.3136 94.8542 61.2629Z" fill="white"/>
<path d="M89.5525 135.827H89.3515L58.0006 126.952C57.8572 126.913 57.7299 126.829 57.637 126.713C57.5441 126.597 57.4904 126.454 57.4836 126.306L56.1336 100.814C56.1251 100.629 56.187 100.448 56.3069 100.306C56.4268 100.165 56.5958 100.075 56.7799 100.053C57.1533 100.053 65.9424 99.134 70.3226 87.8603C74.8034 76.3712 73.08 59.1375 73.0513 58.9077C73.0376 58.7217 73.0939 58.5373 73.2093 58.3907C73.3315 58.2411 73.5061 58.1435 73.6976 58.1179C74.3295 58.1179 89.2797 56.6817 95.2396 60.7029C100.51 64.2502 100.855 71.8043 101.113 77.9366C101.113 79.1286 101.228 80.2775 101.315 81.3259C102.033 90.1007 102.564 98.9904 102.894 107.78C102.882 108.656 102.625 109.511 102.153 110.249C101.681 110.987 101.013 111.579 100.223 111.959C96.5322 114.271 89.5238 115.032 86.2063 114.429L90.2419 135.052C90.2629 135.175 90.2529 135.301 90.2127 135.418C90.1726 135.536 90.1036 135.642 90.0121 135.727C89.8741 135.81 89.7126 135.845 89.5525 135.827ZM58.891 125.688L88.619 134.104L84.5835 113.452C84.5615 113.319 84.5766 113.183 84.6273 113.058C84.6779 112.933 84.7621 112.824 84.8705 112.744C84.979 112.664 85.1074 112.615 85.2418 112.603C85.3761 112.591 85.5111 112.617 85.6319 112.677C87.384 113.61 95.5269 113.122 99.4763 110.652C100.036 110.396 100.516 109.994 100.868 109.489C101.219 108.984 101.428 108.393 101.472 107.78C101.157 99.0191 100.625 90.1294 99.8927 81.3977C99.8066 80.3206 99.7491 79.1573 99.6917 77.9366C99.4475 72.192 99.1172 65.0113 94.4498 61.8805C89.7823 58.7498 77.6039 59.2668 74.5592 59.4966C74.8465 62.972 75.7943 77.7355 71.687 88.3773C67.6371 98.7893 59.9824 100.958 57.6272 101.389L58.891 125.688Z" fill="#191B1D"/>
<path d="M155.919 163.502C155.919 163.502 115.965 141.96 100.24 129.81C85.6483 118.551 46.571 111.657 31.908 132.395C31.908 132.395 8.92983 175.249 6.44531 198.73L24.1673 206.658C24.0787 234.124 25.4786 261.576 28.3608 288.891C64.1781 295.181 138.369 266.545 137.737 266.257L130.169 210.463L136.732 215.533L155.919 163.502Z" fill="#05AAFF"/>
<path d="M101.441 101.188C101.441 101.188 92.8246 101.188 90.7422 89.5405L101.441 101.188Z" fill="white"/>
<path d="M101.442 101.906C101.356 101.906 92.1787 101.762 90.0389 89.6698C90.0046 89.4793 90.0474 89.2831 90.1578 89.1242C90.2682 88.9653 90.4373 88.8567 90.6277 88.8225C90.8182 88.7882 91.0144 88.831 91.1733 88.9414C91.3322 89.0518 91.4407 89.2208 91.475 89.4113C93.4138 100.297 101.14 100.47 101.528 100.47C101.718 100.47 101.901 100.545 102.036 100.68C102.17 100.815 102.246 100.997 102.246 101.188C102.247 101.29 102.226 101.391 102.184 101.484C102.143 101.577 102.082 101.66 102.006 101.728C101.93 101.796 101.84 101.847 101.743 101.878C101.646 101.908 101.543 101.918 101.442 101.906Z" fill="#191B1D"/>
<path d="M81.9722 85.8067C81.5166 83.6531 80.4783 81.666 78.9707 80.0621C77.9779 78.6585 76.7825 77.4098 75.4234 76.3569C74.739 75.8354 73.9462 75.4743 73.1036 75.3003C72.2609 75.1263 71.3899 75.1438 70.5549 75.3516C69.8384 75.6038 69.183 76.0039 68.6312 76.526C68.0795 77.048 67.6437 77.6803 67.3523 78.3818C66.7952 79.8016 66.5551 81.3259 66.6486 82.8482C66.8082 86.1661 67.8369 89.3838 69.6314 92.179C71.426 94.9742 73.9236 97.2488 76.8739 98.775L76.3426 98.3011" fill="white"/>
<path d="M76.8688 99.3638C76.7598 99.3855 76.6475 99.3855 76.5385 99.3638C73.4814 97.766 70.8943 95.398 69.033 92.4939C67.1716 89.5898 66.1004 86.2501 65.9254 82.8052C65.8186 81.1776 66.0838 79.547 66.7009 78.0372C67.0244 77.2376 67.5164 76.5172 68.1434 75.9248C68.7704 75.3325 69.5177 74.8823 70.3344 74.6048C71.2729 74.363 72.2541 74.3369 73.2042 74.5284C74.1544 74.7199 75.0488 75.1241 75.8204 75.7106C77.2435 76.7983 78.4928 78.0961 79.5256 79.5595C81.1342 81.283 82.2286 83.422 82.6852 85.7349C82.6946 85.8292 82.6853 85.9244 82.658 86.0151C82.6306 86.1059 82.5856 86.1903 82.5256 86.2637C82.4656 86.337 82.3917 86.3978 82.3082 86.4426C82.2247 86.4874 82.1332 86.5153 82.0389 86.5248C81.9446 86.5342 81.8494 86.5249 81.7586 86.4976C81.6679 86.4702 81.5835 86.4252 81.5101 86.3652C81.4368 86.3052 81.3759 86.2313 81.3311 86.1478C81.2863 86.0643 81.2584 85.9728 81.249 85.8785C80.8019 83.8418 79.809 81.9652 78.3767 80.4499C77.4295 79.1014 76.2873 77.9012 74.9875 76.8883C74.3832 76.4236 73.6828 76.0999 72.9373 75.9409C72.1919 75.7818 71.4203 75.7915 70.679 75.9691C70.059 76.1942 69.4932 76.5471 69.0182 77.0047C68.5432 77.4624 68.1696 78.0148 67.9217 78.626C67.3964 79.9381 67.1754 81.3522 67.2754 82.7621C67.4282 85.7594 68.3132 88.6737 69.8529 91.2499C71.3927 93.8261 73.5402 95.9857 76.1076 97.5399C76.2158 97.5191 76.3273 97.5224 76.4341 97.5497C76.5409 97.577 76.6403 97.6276 76.7252 97.6979L77.2566 98.1862C77.3875 98.3002 77.4716 98.4586 77.4928 98.6309C77.5141 98.8032 77.4708 98.9773 77.3714 99.1197C77.3082 99.1919 77.2312 99.2507 77.1448 99.2927C77.0585 99.3346 76.9646 99.3588 76.8688 99.3638Z" fill="#191B1D"/>
<path d="M85.2851 113.309C85.2851 113.309 77.6017 111.671 73.6523 106.86C73.6523 106.86 75.0885 118.507 86.8504 121.337L85.2851 113.309Z" fill="#191B1D"/>
<path d="M86.8522 122.055H86.6942C74.5301 119.182 72.9647 107.09 72.9504 106.975C72.932 106.822 72.9638 106.666 73.041 106.532C73.1182 106.398 73.2367 106.292 73.3787 106.231C73.5208 106.17 73.6788 106.156 73.8294 106.192C73.9799 106.227 74.1149 106.311 74.2142 106.429C77.9481 110.982 85.373 112.619 85.4448 112.634C85.5829 112.663 85.7088 112.734 85.8062 112.837C85.9035 112.939 85.9677 113.069 85.9905 113.208L87.5559 121.222C87.582 121.34 87.5772 121.463 87.542 121.578C87.5067 121.694 87.4423 121.799 87.3548 121.882C87.2155 122.002 87.0356 122.064 86.8522 122.055ZM74.9179 109.129C75.6735 111.761 77.0781 114.161 79.0028 116.108C80.9274 118.055 83.3105 119.488 85.933 120.274L84.6692 113.84C81.1238 112.98 77.8005 111.38 74.9179 109.144V109.129Z" fill="#191B1D"/>
<path d="M136.701 216.251C136.549 216.252 136.402 216.202 136.284 216.108C135.983 215.892 106.01 193.977 94.2197 181.841C94.1537 181.773 94.1017 181.693 94.0667 181.605C94.0317 181.517 94.0144 181.423 94.0157 181.328C94.017 181.234 94.037 181.14 94.0745 181.053C94.1119 180.966 94.1662 180.888 94.234 180.822C94.3019 180.756 94.3822 180.704 94.4702 180.669C94.5582 180.634 94.6522 180.616 94.7468 180.618C94.8415 180.619 94.935 180.639 95.022 180.676C95.109 180.714 95.1877 180.768 95.2537 180.836C106.958 192.885 136.83 214.729 137.132 214.944C137.283 215.059 137.384 215.227 137.414 215.415C137.443 215.603 137.399 215.794 137.289 215.95C137.224 216.044 137.135 216.121 137.033 216.174C136.93 216.226 136.816 216.253 136.701 216.251Z" fill="#191B1D"/>
<path d="M94.9456 72.9142C95.0852 71.1693 94.6454 69.7105 93.9633 69.6559C93.2811 69.6013 92.615 70.9717 92.4754 72.7166C92.3358 74.4615 92.7756 75.9203 93.4577 75.9749C94.1399 76.0295 94.806 74.6592 94.9456 72.9142Z" fill="#191B1D"/>
<path d="M22.7863 199.376C22.6908 199.375 22.5965 199.354 22.5092 199.315C22.4218 199.276 22.343 199.221 22.2775 199.151C22.212 199.081 22.161 199 22.1275 198.91C22.094 198.82 22.0788 198.725 22.0826 198.63C22.0826 196.892 23.5188 155.933 29.0766 141.615C29.1471 141.438 29.285 141.296 29.4601 141.221C29.6351 141.145 29.833 141.142 30.0101 141.213C30.1872 141.283 30.3291 141.421 30.4045 141.596C30.4799 141.771 30.4827 141.969 30.4122 142.146C24.8974 156.221 23.5331 198.256 23.5187 198.673C23.5113 198.862 23.4309 199.041 23.2943 199.172C23.1578 199.303 22.9757 199.377 22.7863 199.376Z" fill="#191B1D"/>
<path d="M353.267 177.806H262.46L247.237 158.446L247.079 178.078C243.418 178.75 240.108 180.685 237.725 183.545C235.343 186.405 234.038 190.01 234.039 193.732V262.121C234.037 264.214 234.448 266.287 235.247 268.221C236.047 270.155 237.22 271.912 238.699 273.392C240.178 274.873 241.934 276.047 243.868 276.849C245.801 277.65 247.873 278.062 249.966 278.062H353.267C357.495 278.062 361.55 276.383 364.539 273.393C367.529 270.404 369.208 266.349 369.208 262.121V193.732C369.205 189.507 367.523 185.456 364.534 182.47C361.545 179.483 357.493 177.806 353.267 177.806Z" fill="white"/>
<path d="M353.267 278.781H249.965C245.551 278.773 241.319 277.015 238.199 273.892C235.079 270.769 233.324 266.536 233.32 262.121V193.732C233.317 189.942 234.61 186.265 236.985 183.31C239.359 180.356 242.673 178.302 246.375 177.49L246.518 158.432C246.522 158.285 246.571 158.143 246.658 158.024C246.746 157.906 246.867 157.817 247.007 157.77C247.146 157.723 247.297 157.72 247.438 157.761C247.579 157.803 247.705 157.886 247.797 158.001L262.819 177.088H353.295C355.485 177.084 357.654 177.511 359.678 178.346C361.703 179.18 363.543 180.405 365.094 181.951C366.645 183.496 367.876 185.332 368.717 187.354C369.559 189.375 369.994 191.543 369.998 193.732V262.121C369.996 264.315 369.561 266.486 368.719 268.511C367.876 270.536 366.643 272.375 365.089 273.922C363.534 275.47 361.69 276.696 359.662 277.529C357.633 278.363 355.46 278.788 353.267 278.781ZM247.926 160.486L247.782 178.064C247.784 178.233 247.726 178.396 247.618 178.525C247.51 178.654 247.36 178.74 247.193 178.768C243.697 179.41 240.536 181.257 238.261 183.989C235.986 186.72 234.741 190.163 234.742 193.718V262.107C234.742 266.142 236.344 270.012 239.196 272.866C242.048 275.721 245.916 277.326 249.951 277.33H353.252C357.288 277.326 361.158 275.721 364.012 272.867C366.866 270.013 368.471 266.143 368.475 262.107V193.732C368.471 189.697 366.866 185.829 364.011 182.977C361.157 180.126 357.287 178.524 353.252 178.524H262.46C262.352 178.522 262.246 178.497 262.149 178.45C262.052 178.403 261.967 178.335 261.899 178.251L247.926 160.486Z" fill="#191B1D"/>
<path d="M334.311 251.106H268.938L269.656 250.532C270.287 250 270.905 249.455 271.566 248.966C273.928 247.216 275.875 244.966 277.268 242.377C278.66 239.788 279.464 236.923 279.622 233.987C280.01 229.679 280.082 225.486 280.34 221.235C280.481 217.594 281.381 214.023 282.983 210.751C285.956 204.906 290.882 201.789 297.215 200.698H297.445C298.249 197.696 299.613 196.504 301.997 196.662C303.014 196.72 303.972 197.158 304.68 197.89C305.388 198.622 305.794 199.594 305.818 200.612C307.153 200.971 308.503 201.243 309.81 201.689C316.517 204.015 320.366 208.869 322.089 215.605C322.832 218.786 323.169 222.048 323.094 225.313C323.04 229.463 323.449 233.605 324.315 237.664C325.167 241.671 327.323 245.282 330.447 247.932L334.311 251.106Z" fill="#05AAFF"/>
<path d="M310.458 254.74C310.075 256.929 308.88 258.895 307.113 260.244C305.346 261.593 303.136 262.227 300.922 262.021C296.815 261.676 292.952 258.143 292.981 254.74H310.458Z" fill="#05AAFF"/>
</svg>
