<svg width="66" height="66" viewBox="0 0 66 66" fill="none" xmlns="http://www.w3.org/2000/svg">
<path d="M15.9336 50.0667V7.4C15.9336 5.70261 16.6079 4.07475 17.8081 2.87452C19.0083 1.67428 20.6362 1 22.3336 1H58.6003" stroke="#FF5B26" stroke-width="2" stroke-miterlimit="10" stroke-linecap="round" stroke-linejoin="round"/>
<path d="M52.2 11.6667H65V7.4C65 5.70261 64.3257 4.07475 63.1255 2.87452C61.9253 1.67428 60.2974 1 58.6 1C56.9026 1 55.2748 1.67428 54.0745 2.87452C52.8743 4.07475 52.2 5.70261 52.2 7.4V54.3333C52.2 57.1623 51.0762 59.8754 49.0758 61.8758C47.0754 63.8762 44.3623 65 41.5333 65M41.5333 65C38.7044 65 35.9913 63.8762 33.9909 61.8758C31.9905 59.8754 30.8667 57.1623 30.8667 54.3333V50.0667H1V54.3333C1 57.1623 2.12381 59.8754 4.12419 61.8758C5.11469 62.8663 6.29057 63.652 7.58471 64.1881C8.87885 64.7241 10.2659 65 11.6667 65H41.5333Z" stroke="#FF5B26" stroke-width="2" stroke-miterlimit="10" stroke-linecap="round" stroke-linejoin="round"/>
<path d="M24.4648 11.6667H41.5315M24.4648 28.7334H41.5315M24.4648 20.2001H37.2648M24.4648 37.2667H37.2648" stroke="#FF5B26" stroke-width="2" stroke-miterlimit="10" stroke-linecap="round" stroke-linejoin="round"/>
</svg>
