<svg width="470" height="530" viewBox="0 0 470 530" fill="none" xmlns="http://www.w3.org/2000/svg">
<rect width="470" height="530" rx="12" fill="#FFECE5"/>
<rect x="50" y="50" width="370" height="430" rx="12" fill="white"/>
<path d="M155.354 255.397C154.186 255.31 153.072 254.869 152.159 254.135L146.376 250.189C144.57 249.111 143.035 247.636 141.886 245.875C141.007 244.099 140.527 242.152 140.48 240.171L138.084 214.609C138.187 213.713 138.003 212.808 137.558 212.024C137.112 211.24 136.429 210.618 135.607 210.247L135.288 210.024C131.97 207.73 129.154 204.783 127.012 201.364C126.015 199.905 125.4 198.218 125.223 196.46C125.253 194.587 125.723 192.748 126.597 191.091C126.804 190.612 127.012 190.149 127.204 189.686C127.806 187.918 128.25 186.1 128.53 184.253C128.816 182.502 129.222 180.773 129.744 179.077C130.958 175.403 134.074 171.089 138.835 171.089C141.405 171.3 143.859 172.255 145.896 173.837C147.316 174.919 148.95 175.686 150.689 176.089C151.22 176.144 151.753 176.171 152.287 176.169C153.052 176.145 153.817 176.199 154.572 176.329C158.166 177 160.243 179.844 162.08 182.368C162.7 183.259 163.373 184.113 164.094 184.925C166.327 187.307 169.41 188.713 172.673 188.839C176.859 189.094 179.511 190.804 179.958 193.52C180.091 195.326 179.518 197.112 178.361 198.505C177.731 199.255 177.312 200.159 177.146 201.125C177.195 201.634 177.314 202.134 177.498 202.611C177.741 203.243 177.908 203.903 177.993 204.576C178.329 207.771 175.932 210.183 173.983 212.101C168.512 217.895 163.881 224.43 160.227 231.512C159.153 233.294 158.27 235.185 157.591 237.152C156.575 240.488 156.722 244.07 158.006 247.313L158.246 247.888C158.728 248.893 159.031 249.974 159.141 251.083C159.238 252.022 159.005 252.966 158.484 253.753C157.962 254.539 157.184 255.121 156.281 255.397C155.974 255.448 155.661 255.448 155.354 255.397ZM138.899 174.204C136.023 174.204 133.77 177.144 132.811 180.036C132.326 181.604 131.958 183.206 131.709 184.829C131.399 186.869 130.897 188.875 130.207 190.82C130.016 191.347 129.792 191.858 129.568 192.417C128.908 193.629 128.521 194.971 128.434 196.348C128.592 197.563 129.047 198.721 129.76 199.719C131.662 202.767 134.169 205.393 137.125 207.435L137.429 207.659C138.493 208.278 139.414 209.117 140.129 210.119C140.872 211.414 141.273 212.877 141.295 214.369L143.691 239.932C143.715 241.461 144.058 242.968 144.698 244.357C145.637 245.665 146.846 246.755 148.245 247.552L153.996 251.547C154.3 251.77 155.115 252.345 155.45 252.25C155.786 252.154 155.898 251.722 155.882 251.211C155.775 250.478 155.554 249.766 155.227 249.102L154.955 248.479C153.389 244.555 153.214 240.214 154.46 236.177C155.197 233.997 156.166 231.903 157.351 229.93C161.135 222.588 165.944 215.82 171.634 209.832C173.232 208.234 174.91 206.637 174.734 204.879C174.665 204.438 174.553 204.004 174.398 203.585C174.088 202.789 173.91 201.947 173.871 201.093C173.998 199.492 174.605 197.966 175.613 196.715C176.284 195.677 176.875 194.782 176.747 193.999C176.539 192.705 174.366 192.114 172.417 191.986C168.339 191.826 164.49 190.057 161.713 187.065C160.901 186.163 160.143 185.214 159.444 184.222C157.847 181.985 156.249 179.876 153.948 179.429C153.372 179.346 152.789 179.314 152.207 179.333C151.556 179.334 150.905 179.296 150.258 179.221C148.062 178.77 145.994 177.836 144.203 176.489C142.683 175.246 140.845 174.455 138.899 174.204Z" fill="#DFEAEF"/>
<path d="M128.014 176.361C125.81 176.361 123.381 174.427 121.624 173.053C121.32 172.814 121.065 172.606 120.857 172.462C118.262 170.58 115.326 169.219 112.214 168.452L111.623 168.308C110.402 168.089 109.222 167.685 108.124 167.11C106.769 166.184 105.621 164.988 104.753 163.595L96.3809 151.916C92.275 146.181 88.3927 139.439 90.9489 132.984C91.7744 131.142 92.8496 129.421 94.1442 127.872C95.7419 125.747 97.2596 123.75 97.1957 121.481C97.1479 120.814 96.9663 120.163 96.6616 119.567C96.3569 118.972 95.9355 118.444 95.4223 118.014C93.7355 116.584 91.5577 115.868 89.3513 116.017C85.3092 116.369 81.6027 119.021 78.3275 121.353C77.8911 121.73 77.3832 122.015 76.8341 122.191C76.2851 122.366 75.7062 122.429 75.1322 122.376C74.6203 122.27 74.1384 122.051 73.7212 121.736C73.304 121.422 72.9619 121.018 72.7197 120.555C71.1221 117.887 72.2245 114.42 75.6274 110.969C78.5072 108.073 81.6051 105.402 84.8938 102.98C87.728 100.744 90.9904 99.1132 94.4797 98.1875C97.3791 97.7168 100.335 97.7168 103.235 98.1875C107.781 98.7177 112.286 99.5557 116.719 100.696L119.483 101.447C122.514 102.373 125.62 103.036 128.765 103.428C132.585 103.971 136.472 103.114 139.709 101.015L139.997 100.792C141.323 99.8011 143.112 98.4591 145.237 99.194C146.033 99.554 146.729 100.102 147.266 100.792C148.113 101.702 150.366 104.163 149.343 106.847C148.754 108.122 147.736 109.151 146.467 109.754L139.677 113.701C138.556 114.184 137.608 114.998 136.961 116.033C136.861 116.316 136.82 116.616 136.839 116.915C136.858 117.215 136.938 117.507 137.073 117.775C137.266 118.185 137.539 118.552 137.877 118.853C138.214 119.155 138.609 119.386 139.038 119.532C139.966 119.738 140.929 119.728 141.852 119.5C142.775 119.273 143.633 118.836 144.358 118.222C145.805 117.048 147.108 115.707 148.241 114.228L149.04 113.253C151.1 110.809 153.465 110.058 155.35 111.112C156.211 111.684 156.88 112.503 157.267 113.461C157.423 113.852 157.65 114.209 157.938 114.515C158.274 114.755 158.945 114.611 159.935 114.372C161.042 114.031 162.212 113.949 163.354 114.132C166.358 114.819 167.78 118.078 167.125 122.855C167.056 124.544 166.439 126.165 165.368 127.472C163.841 128.783 161.863 129.442 159.856 129.31C158.75 129.267 157.651 129.503 156.66 129.997C155.93 130.67 155.381 131.516 155.063 132.457C154.669 133.366 154.176 134.229 153.593 135.029C151.897 136.835 149.726 138.125 147.33 138.752C145.269 139.503 143.336 140.206 142.393 141.707C142.033 142.358 141.754 143.05 141.562 143.768C141.243 145.038 140.667 146.229 139.869 147.267C139.071 148.106 138.137 148.803 137.105 149.328C136.284 149.676 135.564 150.226 135.012 150.926C134.771 151.44 134.579 151.974 134.437 152.524C133.99 153.993 133.223 156.422 130.667 156.358C130.103 156.313 129.556 156.147 129.062 155.871C128.569 155.596 128.14 155.217 127.807 154.76C127.231 154.102 126.698 153.408 126.209 152.683C125.219 151.214 124.372 149.951 123.142 149.68C122.512 149.616 121.878 149.732 121.312 150.015C120.747 150.298 120.273 150.736 119.946 151.277C119.115 152.662 118.643 154.233 118.572 155.847C118.349 157.977 118.636 159.367 119.435 160.017C120.417 160.528 121.535 160.718 122.63 160.56C123.878 160.481 125.129 160.605 126.337 160.927C127.658 161.436 128.821 162.287 129.705 163.393C130.59 164.5 131.164 165.821 131.369 167.222C131.369 167.526 132.68 174.555 129.42 176.121C128.976 176.306 128.495 176.388 128.014 176.361ZM89.9903 112.79C92.768 112.801 95.4516 113.797 97.5632 115.602C98.4061 116.313 99.0925 117.192 99.5792 118.182C100.066 119.171 100.342 120.251 100.391 121.353C100.503 124.708 98.5857 127.265 96.7164 129.725C95.6029 131.045 94.6781 132.513 93.9685 134.087C91.9874 139.103 95.2306 144.695 99.0171 150.063L107.373 161.742C107.852 162.695 108.562 163.513 109.438 164.122C110.314 164.73 111.329 165.109 112.389 165.225L113.012 165.369C116.533 166.238 119.853 167.779 122.79 169.906L123.669 170.593C126.593 172.926 127.679 173.293 128.062 173.197C128.549 171.425 128.603 169.563 128.222 167.765C128.113 166.933 127.794 166.142 127.293 165.468C126.793 164.794 126.128 164.259 125.362 163.915C124.483 163.71 123.578 163.64 122.678 163.707C120.846 163.924 118.997 163.489 117.454 162.477C115.713 161.103 115.042 158.802 115.393 155.463C115.519 153.317 116.178 151.236 117.31 149.408C117.991 148.347 118.969 147.511 120.123 147.005C121.278 146.499 122.556 146.346 123.797 146.564C126.257 147.108 127.615 149.121 128.813 150.894C129.209 151.516 129.641 152.113 130.107 152.683C130.491 153.115 130.667 153.163 130.682 153.163C130.925 152.65 131.117 152.115 131.258 151.565C131.463 150.831 131.742 150.119 132.088 149.44C132.896 148.192 134.043 147.199 135.396 146.58C136.101 146.229 136.747 145.771 137.313 145.222C137.816 144.497 138.179 143.685 138.383 142.826C138.661 141.856 139.052 140.923 139.549 140.046C141.147 137.602 143.751 136.643 146.116 135.78C147.929 135.331 149.585 134.398 150.909 133.08C151.35 132.475 151.72 131.821 152.011 131.131C152.556 129.668 153.49 128.381 154.711 127.409C156.205 126.531 157.916 126.093 159.648 126.146C160.843 126.258 162.039 125.953 163.035 125.284C163.652 124.436 164.003 123.424 164.041 122.376C164.281 120.603 164.265 117.583 162.731 117.184C162.062 117.135 161.389 117.217 160.75 117.423C160.007 117.708 159.209 117.822 158.416 117.759C157.623 117.695 156.854 117.455 156.165 117.056C155.456 116.46 154.907 115.697 154.567 114.835C154.411 114.451 154.177 114.103 153.88 113.812C153.561 113.621 152.586 114.1 151.628 115.25L150.845 116.193C149.552 117.878 148.061 119.402 146.403 120.73C145.271 121.647 143.94 122.286 142.517 122.596C141.094 122.907 139.619 122.881 138.207 122.52C137.361 122.236 136.581 121.784 135.913 121.191C135.246 120.598 134.706 119.876 134.325 119.069C133.994 118.403 133.807 117.674 133.777 116.931C133.747 116.187 133.874 115.446 134.149 114.755C135.047 113.056 136.471 111.694 138.207 110.873L144.997 106.927C145.541 106.607 146.355 106.144 146.595 105.664C146.835 105.185 146.323 104.163 145.157 102.885C144.93 102.61 144.66 102.372 144.358 102.182C143.895 102.006 142.889 102.757 142.154 103.3L141.85 103.54C137.98 106.111 133.307 107.19 128.701 106.575C125.373 106.154 122.087 105.454 118.876 104.482L116.16 103.747C111.871 102.635 107.509 101.824 103.107 101.319C100.552 100.893 97.945 100.893 95.3904 101.319C92.3187 102.151 89.4522 103.608 86.9708 105.601C83.8066 107.894 80.8308 110.437 78.0719 113.205C77.2251 114.052 74.557 116.944 75.6754 118.877C75.7295 118.987 75.8123 119.081 75.915 119.149C76.1915 119.016 76.4539 118.855 76.6979 118.669C80.3086 116.097 84.3986 113.189 89.3033 112.758L89.9903 112.79Z" fill="#DFEAEF"/>
<path d="M140.084 167.75H139.557C138.819 167.581 138.127 167.254 137.528 166.791L133.007 163.596C132.885 163.511 132.778 163.409 132.687 163.292C132.477 163.036 132.324 162.739 132.239 162.419C132.153 162.099 132.137 161.765 132.192 161.439C132.258 161.072 132.398 160.723 132.604 160.412C132.81 160.102 133.078 159.837 133.39 159.633C134.143 159.197 135.021 159.028 135.882 159.154C138.917 159.469 141.714 160.94 143.695 163.26C143.83 163.421 143.933 163.606 143.997 163.806C144.06 164.006 144.084 164.217 144.066 164.426C144.048 164.635 143.989 164.839 143.893 165.026C143.796 165.212 143.664 165.378 143.503 165.513C143.412 165.591 143.31 165.656 143.2 165.705C143.031 166.077 142.799 166.418 142.513 166.711C141.871 167.363 140.999 167.736 140.084 167.75ZM137.304 162.685L139.365 164.123C139.587 164.303 139.835 164.448 140.1 164.554C140.184 164.509 140.256 164.443 140.308 164.363C139.442 163.607 138.431 163.036 137.336 162.685H137.304Z" fill="#DFEAEF"/>
<path d="M175.71 117.328C175.064 117.363 174.42 117.245 173.828 116.984C173.237 116.723 172.716 116.326 172.307 115.826C171.777 115.109 171.492 114.241 171.492 113.35C171.511 111.756 171.786 110.175 172.307 108.668C172.946 106.48 173.281 105.074 172.546 104.003C171.947 103.305 171.192 102.758 170.342 102.406L169.207 101.783C167.402 100.712 165.581 98.5872 166.316 96.1428C167.21 93.2191 170.789 92.9475 171.971 92.8037L192.389 91.0783C195.584 90.8067 199.802 90.4392 202.598 92.4043C203.122 92.721 203.572 93.1454 203.919 93.6495C204.266 94.1536 204.502 94.7258 204.611 95.328C204.835 97.1494 203.621 98.5233 202.438 99.9612C201.864 100.589 201.356 101.275 200.921 102.006C200.697 102.438 200.489 102.885 200.266 103.348C199.163 105.681 197.917 108.333 195.105 109.276C194.069 109.582 192.988 109.706 191.91 109.643C191.431 109.643 190.935 109.643 190.456 109.643C188.251 109.883 186.318 111.432 184.289 113.078C181.988 114.931 179.624 116.848 176.509 117.216L175.71 117.328ZM196.271 94.0819C195.009 94.0819 193.715 94.1937 192.661 94.2736L172.243 96.015C169.974 96.2067 169.463 96.7659 169.367 97.0854C169.271 97.405 169.862 98.4594 170.837 99.0506C171.156 99.2423 171.492 99.418 171.827 99.5938C173.151 100.167 174.31 101.062 175.198 102.198C176.796 104.578 176.061 107.231 175.374 109.563C174.963 110.741 174.731 111.975 174.687 113.222C174.668 113.457 174.724 113.691 174.847 113.893C175.03 114.01 175.234 114.089 175.449 114.125C175.663 114.161 175.882 114.152 176.093 114.1C178.298 113.845 180.199 112.295 182.228 110.665C184.529 108.796 186.909 106.879 190.057 106.528C190.669 106.496 191.282 106.496 191.894 106.528C192.629 106.583 193.368 106.518 194.083 106.336C195.6 105.825 196.463 103.987 197.374 102.054C197.614 101.575 197.837 101.08 198.077 100.616C198.617 99.665 199.26 98.7757 199.994 97.9642C200.601 97.2772 201.496 96.2227 201.432 95.8073C201.432 95.7115 201.272 95.4558 200.761 95.1044C199.393 94.3407 197.835 93.9858 196.271 94.0819Z" fill="#DFEAEF"/>
<path d="M241.436 233.732C240.58 233.735 239.727 233.633 238.896 233.429C236.952 232.911 235.189 231.868 233.799 230.414C232.41 228.959 231.448 227.15 231.019 225.185C230.895 224.53 230.805 223.868 230.748 223.204C230.705 222.244 230.5 221.299 230.141 220.408C229.937 220.027 229.702 219.664 229.438 219.322C229.093 218.852 228.778 218.361 228.495 217.852C227.975 216.676 227.646 215.425 227.521 214.145L226.466 206.492C226.077 204.862 226.335 203.144 227.185 201.699C227.492 201.292 227.852 200.926 228.255 200.613C228.455 200.458 228.637 200.281 228.799 200.086C229.454 199.239 228.639 197.514 227.537 196.347L226.85 195.644C225.13 194.233 223.992 192.236 223.654 190.037C223.635 189.269 223.71 188.502 223.878 187.752C224.074 187.128 224.074 186.459 223.878 185.835C223.654 185.451 222.887 185.212 221.641 185.132C218.926 184.969 216.201 185.087 213.509 185.483L212.598 185.611C210.625 186.049 208.585 186.103 206.591 185.771C201.559 184.685 198.603 179.508 197.9 174.875C197.576 172.187 197.523 169.473 197.74 166.775C197.82 165.049 197.9 163.42 197.852 161.79V161.279C197.642 159.843 197.789 158.378 198.279 157.013C198.77 155.648 199.589 154.424 200.664 153.45C209.18 143.753 217.423 140.302 224.517 143.449C226.393 144.401 228.086 145.678 229.518 147.22C230.574 148.323 231.766 149.29 233.064 150.095C233.791 150.546 234.636 150.768 235.49 150.734C236.344 150.7 237.169 150.41 237.857 149.904C239.627 148.872 241.703 148.499 243.721 148.849C248.043 149.933 251.825 152.55 254.361 156.214C256.561 159.395 258.404 162.808 259.857 166.391L260.209 167.158C261.982 171.088 264.091 174.875 267.542 175.945L267.845 176.041C269.443 176.536 272.191 177.351 272.143 180.003C272.093 180.785 271.828 181.537 271.376 182.176C269.916 184.379 268.264 186.448 266.439 188.359C265.529 189.366 264.634 190.372 263.771 191.411C260.927 194.909 259.585 198.041 259.681 200.997C259.714 201.795 259.8 202.59 259.937 203.377C260.276 204.996 260.32 206.663 260.065 208.298C259.49 210.307 258.456 212.156 257.045 213.698C256.47 214.429 255.936 215.191 255.448 215.982C254.478 217.833 253.778 219.813 253.371 221.862C252.846 224.803 251.655 227.585 249.888 229.994C248.836 231.195 247.535 232.152 246.075 232.798C244.615 233.443 243.032 233.762 241.436 233.732ZM219.213 181.825C220.076 181.825 220.938 181.825 221.801 181.825C222.721 181.786 223.636 181.968 224.471 182.358C225.305 182.747 226.033 183.331 226.594 184.061C227.232 185.346 227.357 186.825 226.945 188.199C226.836 188.698 226.782 189.207 226.786 189.717C227.137 191.139 227.966 192.396 229.134 193.28C229.374 193.536 229.629 193.775 229.853 194.031C231.93 196.22 233.176 199.511 231.323 201.907C231.03 202.277 230.698 202.615 230.332 202.914C230.123 203.075 229.93 203.257 229.757 203.457C229.444 204.257 229.399 205.137 229.629 205.965L230.7 213.618C230.765 214.548 230.986 215.461 231.355 216.318C231.551 216.69 231.781 217.043 232.042 217.372C233.256 218.916 233.914 220.824 233.911 222.788C233.911 223.348 234.039 223.907 234.151 224.386C234.434 225.775 235.102 227.055 236.081 228.08C237.059 229.105 238.307 229.833 239.681 230.18C241.054 230.528 242.498 230.48 243.846 230.043C245.194 229.606 246.391 228.797 247.299 227.709C248.735 225.66 249.701 223.32 250.127 220.855C250.6 218.506 251.419 216.239 252.556 214.129C253.127 213.216 253.757 212.341 254.441 211.509C255.494 210.571 256.265 209.358 256.665 208.006C257.066 206.654 257.082 205.217 256.71 203.856C256.555 202.942 256.459 202.019 256.422 201.092C256.31 197.354 257.892 193.536 261.215 189.414C262.11 188.311 263.068 187.257 263.979 186.218C265.68 184.447 267.22 182.527 268.58 180.483C268.699 180.314 268.795 180.132 268.868 179.939C268.244 179.545 267.558 179.259 266.839 179.093L266.519 178.997C261.854 177.559 259.282 173.086 257.205 168.468L256.869 167.701C255.502 164.332 253.777 161.118 251.725 158.116C249.656 155.079 246.557 152.894 243.002 151.965C241.663 151.744 240.289 152.016 239.135 152.731C237.99 153.452 236.668 153.842 235.315 153.859C233.961 153.876 232.63 153.519 231.467 152.827C229.917 151.896 228.499 150.762 227.249 149.456C226.07 148.167 224.682 147.087 223.143 146.261C215.97 143.066 208.237 149.456 203.013 155.447C202.22 156.226 201.59 157.155 201.159 158.179C200.935 159.11 200.875 160.072 200.984 161.023V161.566C201.063 163.324 200.984 165.097 200.888 166.823C200.681 169.308 200.724 171.807 201.016 174.284C201.559 177.831 203.684 181.777 207.214 182.544C208.811 182.757 210.433 182.692 212.007 182.352L212.95 182.208C215.025 181.925 217.119 181.797 219.213 181.825Z" fill="#DFEAEF"/>
<path d="M263.243 220.328C262.91 220.332 262.577 220.294 262.253 220.217C261.648 220.1 261.091 219.805 260.655 219.37C260.331 219.046 260.076 218.66 259.904 218.235C259.288 216.655 259.143 214.93 259.486 213.268C259.829 211.607 260.646 210.081 261.837 208.873L262.013 208.698C262.147 208.588 262.271 208.464 262.381 208.33V207.531C262.464 206.555 262.747 205.606 263.211 204.743C263.676 203.881 264.312 203.122 265.081 202.515C265.605 202.074 266.222 201.755 266.885 201.581C267.548 201.406 268.241 201.382 268.915 201.508C269.432 201.617 269.922 201.829 270.355 202.131C270.789 202.433 271.158 202.819 271.439 203.266C272.749 205.374 272.174 208.538 271.871 209.8C271.345 211.739 270.56 213.598 269.538 215.328C268.909 216.614 268.054 217.778 267.014 218.763C265.983 219.716 264.646 220.271 263.243 220.328ZM262.972 217.021C263.343 217.061 263.719 217.018 264.072 216.897C264.426 216.775 264.748 216.578 265.017 216.318C265.766 215.573 266.387 214.71 266.854 213.762C267.734 212.258 268.416 210.647 268.883 208.969C269.335 207.654 269.335 206.226 268.883 204.911C268.835 204.822 268.766 204.745 268.683 204.687C268.6 204.629 268.504 204.591 268.404 204.576C268.187 204.557 267.969 204.583 267.763 204.652C267.557 204.721 267.368 204.83 267.205 204.975C266.397 205.62 265.87 206.554 265.736 207.579V207.835C265.755 208.378 265.674 208.919 265.496 209.432C265.234 209.997 264.852 210.499 264.378 210.902L264.234 211.046C263.496 211.808 262.991 212.763 262.776 213.802C262.561 214.84 262.645 215.918 263.02 216.909L262.972 217.021Z" fill="#DFEAEF"/>
<path d="M327.882 178.997C325.677 178.997 323.089 177.623 320.628 174.97L314.382 168.372C312.337 166.231 309.365 164.202 307.703 165.528C306.585 166.423 306.585 168.324 306.585 170.321V171.408C306.584 172.517 306.355 173.613 305.912 174.63C305.47 175.647 304.823 176.562 304.013 177.319C303.544 177.715 302.991 177.999 302.395 178.148C301.8 178.298 301.178 178.309 300.578 178.182C299.497 177.931 298.511 177.376 297.734 176.584C293.598 172.76 290.775 167.728 289.666 162.205C289.625 161.704 289.472 161.218 289.219 160.783C288.892 160.577 288.528 160.436 288.148 160.368L287.861 160.288C286.201 159.754 284.597 159.064 283.068 158.227C281.958 157.622 280.811 157.088 279.633 156.629C278.104 156.037 276.428 155.937 274.84 156.342L277.556 158.035C277.759 158.159 277.931 158.327 278.061 158.526C278.191 158.725 278.275 158.95 278.307 159.186C278.521 160.868 278.255 162.577 277.54 164.115C276.825 165.653 275.689 166.958 274.265 167.878C272.84 168.799 271.184 169.297 269.488 169.317C267.791 169.337 266.124 168.876 264.679 167.989C262.685 166.544 261.046 164.665 259.886 162.493L251.578 149.536C251.145 148.695 250.515 147.971 249.741 147.427C249.345 147.257 248.933 147.128 248.51 147.044C247.777 146.897 247.067 146.65 246.402 146.309C245.839 145.981 245.368 145.516 245.033 144.957C244.697 144.399 244.509 143.764 244.484 143.113C244.476 142.996 244.476 142.879 244.484 142.762C240.756 140.939 236.518 140.443 232.47 141.356L231.767 141.532C230.288 142.009 228.715 142.124 227.182 141.867C226.201 141.576 225.27 141.14 224.418 140.573C224.21 140.429 223.986 140.301 223.763 140.174C221.789 139.085 219.532 138.619 217.288 138.836C215.044 139.052 212.919 139.942 211.189 141.388C211.003 141.548 210.782 141.663 210.543 141.724C210.305 141.785 210.056 141.79 209.815 141.739C209.578 141.689 209.356 141.585 209.165 141.435C208.974 141.286 208.819 141.095 208.713 140.877C206.492 136.275 206.94 132.361 209.863 130.875C210.411 130.627 210.984 130.439 211.573 130.316C211.963 130.256 212.337 130.121 212.675 129.917C212.835 129.709 212.531 128.83 212.324 128.239C212.187 127.889 212.07 127.532 211.972 127.169C211.777 126.368 211.825 125.527 212.109 124.753C212.394 123.979 212.902 123.307 213.57 122.823C214.02 122.525 214.556 122.382 215.096 122.416C215.635 122.451 216.149 122.661 216.557 123.015C216.633 123.072 216.698 123.142 216.749 123.223L226.926 120.283C228.939 119.692 231 118.525 230.745 117.327C230.709 117.079 230.576 116.856 230.375 116.706C230.174 116.556 229.922 116.492 229.674 116.528C229.426 116.564 229.203 116.697 229.053 116.898C228.903 117.099 228.839 117.351 228.875 117.599C228.894 117.875 228.84 118.151 228.72 118.401C228.599 118.65 228.416 118.864 228.188 119.021C227.958 119.183 227.689 119.282 227.409 119.308C227.128 119.333 226.846 119.284 226.591 119.164L218.459 115.41C218.231 115.305 218.031 115.147 217.876 114.95C217.72 114.753 217.613 114.522 217.564 114.276C217.512 114.031 217.519 113.778 217.582 113.537C217.646 113.296 217.766 113.073 217.931 112.886C220.639 109.861 223.624 107.095 226.846 104.626C229.371 102.693 235.745 98.6027 240.65 102.325C241.127 102.708 241.575 103.124 241.992 103.571C242.366 103.983 242.784 104.353 243.238 104.674C244.113 105.094 245.064 105.333 246.034 105.377H246.306C249.764 105.96 253.287 106.051 256.77 105.648C258.379 105.29 259.917 104.67 261.324 103.811C262.606 103.068 263.96 102.458 265.366 101.99C267.687 101.371 270.095 101.144 272.491 101.319C275.383 101.319 277.875 101.447 280.591 99.7211C281.422 99.1939 282.189 98.6027 282.892 98.0435C285.081 96.3341 287.333 94.5607 291.104 94.8482C295.274 95.1198 298.868 97.5962 302.287 99.9767C303.911 101.174 305.626 102.242 307.416 103.172C315.74 107.102 324.99 105.872 334.895 104.546C343.635 103.38 352.677 102.181 361.161 104.834C362.385 105.172 363.528 105.754 364.521 106.545C365.515 107.335 366.339 108.318 366.944 109.435C367.228 110.028 367.375 110.678 367.375 111.336C367.375 111.994 367.228 112.644 366.944 113.237C366.401 114.231 365.622 115.076 364.676 115.698C364.436 115.889 364.196 116.081 363.989 116.273C362.95 117.254 362.279 118.562 362.09 119.979C361.901 121.396 362.205 122.834 362.95 124.053C363.105 124.288 363.196 124.559 363.213 124.839C363.229 125.12 363.172 125.4 363.046 125.651C362.914 125.907 362.715 126.122 362.47 126.274C362.225 126.426 361.944 126.509 361.656 126.514C358.889 126.486 356.203 125.573 353.992 123.908C351.781 122.244 350.162 119.915 349.37 117.263C348.219 116.898 346.998 116.81 345.807 117.008C344.849 117.247 343.858 118.174 344.018 119.021C344.178 119.867 344.993 120.299 346.351 121.082C347.811 121.547 349.035 122.557 349.77 123.902C350.505 125.247 350.694 126.823 350.297 128.303L347.437 147.938C347.395 148.221 347.278 148.487 347.098 148.709C346.918 148.931 346.682 149.101 346.414 149.2C346.148 149.302 345.86 149.33 345.579 149.282C345.298 149.234 345.035 149.112 344.817 148.929C342.542 146.988 340.581 144.709 339.001 142.171C338.674 142.986 338.513 143.858 338.53 144.737C338.546 145.615 338.739 146.481 339.097 147.283C339.559 148.331 340.092 149.345 340.695 150.319C341.792 152.08 342.601 154.006 343.091 156.022C343.346 157.015 343.332 158.057 343.051 159.042C342.77 160.028 342.233 160.921 341.494 161.63C339.704 163.148 337.452 162.78 335.646 162.493C334.604 162.184 333.494 162.184 332.451 162.493C330.582 163.515 331.844 167.509 332.116 168.292C332.707 170.034 334.528 175.338 330.965 177.974C330.082 178.653 328.995 179.013 327.882 178.997ZM308.966 161.902C311.314 161.902 314.014 163.356 316.698 166.167L322.945 172.766C323.616 173.469 327.019 176.872 328.968 175.434C330.087 174.619 330.087 172.574 328.968 169.363C327.37 164.745 328.041 161.247 330.773 159.777C332.455 159.039 334.34 158.904 336.11 159.393C337.707 159.665 338.762 159.793 339.305 159.266C339.585 158.903 339.775 158.48 339.858 158.03C339.941 157.579 339.916 157.116 339.784 156.677C339.361 154.981 338.671 153.363 337.739 151.884C337.103 150.79 336.532 149.659 336.03 148.497C334.56 144.871 334.959 140.046 338.554 138.193C338.741 138.096 338.945 138.037 339.154 138.019C339.364 138.001 339.575 138.024 339.775 138.088C339.975 138.152 340.161 138.255 340.322 138.391C340.482 138.526 340.615 138.693 340.711 138.88C341.76 140.891 343.071 142.756 344.609 144.423L347.006 127.856C347.141 127.208 347.141 126.539 347.006 125.891C346.718 125.092 345.68 124.485 344.593 123.846C343.674 123.473 342.849 122.9 342.18 122.167C341.511 121.434 341.014 120.561 340.727 119.612C340.585 118.315 340.932 117.011 341.7 115.956C342.468 114.901 343.602 114.171 344.881 113.908C346.914 113.552 349.004 113.722 350.952 114.403C351.246 114.481 351.512 114.641 351.719 114.864C351.926 115.088 352.064 115.366 352.118 115.666C352.494 117.404 353.336 119.007 354.555 120.302C355.774 121.597 357.323 122.535 359.036 123.015C358.66 121.382 358.719 119.678 359.207 118.075C359.694 116.471 360.594 115.024 361.816 113.876C362.087 113.637 362.391 113.413 362.679 113.173C363.213 112.829 363.67 112.377 364.021 111.847C364.108 111.671 364.153 111.477 364.153 111.28C364.153 111.083 364.108 110.889 364.021 110.713C363.162 109.318 361.801 108.306 360.218 107.885C352.406 105.441 343.714 106.591 335.327 107.709C325.437 109.035 315.228 110.393 306.042 106.112C304.099 105.11 302.235 103.962 300.466 102.677C297.351 100.536 294.075 98.3151 290.88 98.1075C288.324 97.9477 286.854 99.098 284.841 100.68C284.042 101.303 283.243 101.942 282.285 102.549C279.304 104.304 275.833 105.044 272.395 104.658C270.334 104.498 268.261 104.681 266.26 105.201C265.054 105.617 263.893 106.152 262.793 106.799C261.096 107.825 259.238 108.56 257.297 108.971C253.504 109.452 249.66 109.371 245.89 108.732H245.619C244.194 108.654 242.804 108.267 241.545 107.598C240.861 107.141 240.233 106.604 239.675 106C239.366 105.665 239.035 105.35 238.685 105.057C235.49 102.613 230.265 106.192 228.763 107.358C226.275 109.265 223.936 111.359 221.766 113.621L226.207 115.666C226.519 115.121 226.949 114.655 227.466 114.301C227.984 113.946 228.575 113.714 229.195 113.621C230.225 113.489 231.267 113.743 232.122 114.332C232.977 114.922 233.585 115.806 233.828 116.816C234.435 119.676 232.119 122.248 227.757 123.51L217.276 126.562C216.509 126.771 215.693 126.697 214.976 126.354C214.967 126.401 214.967 126.45 214.976 126.498C214.976 126.769 215.151 127.057 215.247 127.36C215.622 128.076 215.809 128.874 215.792 129.681C215.775 130.489 215.555 131.278 215.151 131.978C214.399 132.843 213.362 133.41 212.228 133.575C211.876 133.634 211.532 133.736 211.205 133.879C210.151 134.406 210.279 136.164 210.79 137.825C212.969 136.521 215.45 135.809 217.989 135.759C220.528 135.708 223.036 136.321 225.265 137.537L226 137.985C226.562 138.38 227.182 138.687 227.837 138.895C228.872 139.017 229.92 138.902 230.904 138.56L231.671 138.384C237.017 137.179 242.621 138.071 247.328 140.877C247.536 141.003 247.713 141.175 247.844 141.381C247.976 141.586 248.059 141.818 248.086 142.06C248.114 142.302 248.086 142.548 248.005 142.777C247.923 143.007 247.79 143.215 247.616 143.385C247.669 143.496 247.745 143.594 247.839 143.672C248.253 143.857 248.688 143.991 249.133 144.072C249.812 144.213 250.471 144.433 251.099 144.727C252.379 145.51 253.436 146.611 254.166 147.922L262.378 160.831C263.322 162.588 264.636 164.12 266.228 165.321C267.107 165.862 268.114 166.159 269.146 166.18C270.178 166.201 271.196 165.946 272.096 165.441C272.996 164.935 273.744 164.198 274.263 163.306C274.782 162.414 275.053 161.4 275.047 160.368L271.085 157.748C270.891 157.627 270.725 157.467 270.598 157.276C270.471 157.086 270.387 156.871 270.35 156.645C270.316 156.418 270.331 156.187 270.395 155.966C270.458 155.746 270.568 155.541 270.718 155.367C273.274 152.332 277.715 152.539 280.751 153.626C282.055 154.122 283.326 154.704 284.553 155.367C285.899 156.105 287.311 156.715 288.771 157.189L289.027 157.268C289.949 157.449 290.809 157.867 291.519 158.483C292.26 159.316 292.718 160.361 292.829 161.47C293.788 166.379 296.284 170.855 299.955 174.252C300.309 174.641 300.753 174.938 301.249 175.114C301.393 175.147 301.542 175.144 301.684 175.105C301.827 175.066 301.957 174.992 302.064 174.891C302.95 173.954 303.442 172.713 303.438 171.424V170.305C303.438 167.861 303.438 164.825 305.77 162.988C306.678 162.268 307.807 161.884 308.966 161.902Z" fill="#DFEAEF"/>
<path d="M360.075 242.855C359.768 242.857 359.462 242.82 359.165 242.743C358.831 242.661 358.533 242.474 358.314 242.209C358.095 241.944 357.968 241.616 357.95 241.273C357.872 239.66 357.167 238.141 355.985 237.04L355.378 236.528C354.779 236.067 354.242 235.53 353.78 234.931C353.147 234.007 352.667 232.988 352.359 231.911C351.879 230.569 351.56 229.754 351.001 229.626C350.488 229.624 349.981 229.733 349.515 229.946C349.192 230.074 348.861 230.181 348.524 230.266C347.139 230.566 345.716 230.647 344.306 230.505C343.056 230.307 341.775 230.428 340.584 230.857C340.062 231.134 339.565 231.454 339.098 231.815C337.612 232.886 335.599 234.324 333.394 233.061C331.19 231.799 331.174 229.003 332.132 226.958C332.365 226.459 332.626 225.974 332.915 225.505C333.363 224.852 333.683 224.12 333.858 223.348C333.886 222.752 333.832 222.155 333.698 221.574C333.618 221.159 333.538 220.728 333.49 220.312C333.344 218.67 333.642 217.019 334.353 215.532C335.064 214.045 336.162 212.777 337.532 211.861C338.792 211.107 340.146 210.521 341.558 210.119C343.157 209.797 344.621 209.001 345.76 207.835C346.075 207.378 346.342 206.891 346.559 206.381C347.003 205.177 347.758 204.113 348.748 203.297C349.845 202.591 351.104 202.179 352.406 202.099C353.213 202.078 353.998 201.835 354.675 201.396C355.011 201.018 355.281 200.586 355.474 200.118C355.931 198.869 356.852 197.844 358.046 197.258C358.562 197.045 359.121 196.959 359.677 197.006C360.233 197.053 360.769 197.233 361.241 197.53C362.038 198.1 362.701 198.837 363.184 199.69C363.667 200.542 363.958 201.49 364.037 202.466C364.037 202.722 364.037 202.994 364.117 203.313C364.117 204.352 364.325 206.301 364.996 206.7C365.124 206.792 365.274 206.85 365.431 206.866C365.587 206.883 365.746 206.859 365.891 206.796C366.127 206.687 366.335 206.525 366.498 206.323C366.662 206.121 366.776 205.883 366.833 205.63C366.954 205.156 367.049 204.676 367.121 204.192C367.219 202.54 367.892 200.975 369.022 199.766C369.252 199.558 369.538 199.422 369.844 199.374C370.151 199.326 370.465 199.368 370.748 199.495C373.543 200.741 375.189 203.729 375.652 208.346L375.748 209.368C375.972 211.909 376.18 214.305 377.569 215.919C377.777 216.158 378.001 216.366 378.225 216.59C379.063 217.306 379.707 218.224 380.094 219.258C380.286 220.144 380.284 221.061 380.089 221.946C379.893 222.832 379.508 223.664 378.959 224.386C377.166 227.208 374.883 229.686 372.217 231.703C371.642 232.135 371.051 232.534 370.46 232.95C368.696 233.98 367.167 235.368 365.971 237.024C365.71 237.449 365.481 237.892 365.284 238.35C364.94 239.101 364.534 239.823 364.069 240.506C363.634 241.183 363.045 241.748 362.352 242.156C361.658 242.564 360.878 242.803 360.075 242.855ZM350.873 226.479C351.158 226.48 351.442 226.512 351.719 226.575C354.084 227.07 354.819 229.211 355.41 230.937C355.638 231.688 355.96 232.407 356.369 233.077C356.684 233.433 357.032 233.76 357.407 234.052C357.663 234.26 357.918 234.467 358.158 234.691C359.503 235.941 360.452 237.557 360.89 239.34C361.134 239.16 361.349 238.945 361.529 238.701C361.881 238.169 362.185 237.608 362.44 237.024C362.711 236.48 362.967 235.937 363.286 235.426C364.706 233.382 366.548 231.666 368.687 230.393C369.246 230.01 369.805 229.61 370.284 229.211C372.65 227.433 374.674 225.24 376.259 222.741C376.962 221.622 377.218 220.823 377.042 220.28C376.797 219.758 376.437 219.299 375.988 218.938C375.7 218.651 375.413 218.379 375.157 218.075C373.096 215.695 372.808 212.516 372.553 209.72L372.457 208.713C372.393 206.763 371.735 204.879 370.572 203.313C370.442 203.796 370.346 204.287 370.284 204.783C370.172 205.374 370.076 205.981 369.917 206.556C369.723 207.285 369.364 207.959 368.868 208.527C368.372 209.095 367.753 209.541 367.057 209.832C366.455 210.077 365.804 210.175 365.157 210.12C364.51 210.064 363.885 209.856 363.334 209.512C361.257 208.25 361.05 205.454 360.922 203.601C360.922 203.329 360.922 203.074 360.922 202.85C360.841 201.874 360.383 200.968 359.644 200.326C359.593 200.296 359.535 200.281 359.476 200.281C359.417 200.281 359.359 200.296 359.308 200.326C358.989 200.453 358.701 201.029 358.398 201.652C358.046 202.461 357.554 203.203 356.944 203.84C355.811 204.785 354.406 205.345 352.934 205.438C352.158 205.474 351.399 205.681 350.713 206.045C350.173 206.566 349.762 207.206 349.515 207.914C349.203 208.612 348.829 209.281 348.396 209.911C346.881 211.629 344.863 212.825 342.629 213.33C341.477 213.652 340.371 214.119 339.338 214.72C338.458 215.31 337.752 216.126 337.294 217.081C336.836 218.036 336.643 219.097 336.734 220.152C336.734 220.504 336.845 220.839 336.893 221.191C337.106 222.085 337.171 223.008 337.085 223.923C336.873 225.129 336.41 226.278 335.727 227.294C335.503 227.677 335.28 228.077 335.088 228.476C334.704 229.323 334.736 230.282 335.088 230.473C335.439 230.665 336.254 230.17 337.325 229.403C337.934 228.936 338.581 228.519 339.258 228.157C340.942 227.47 342.776 227.239 344.578 227.486C345.643 227.606 346.721 227.563 347.773 227.358L348.54 227.118C349.275 226.772 350.064 226.556 350.873 226.479Z" fill="#DFEAEF"/>
<path d="M367.92 198.265C367.134 198.307 366.35 198.145 365.645 197.795C364.94 197.445 364.337 196.919 363.894 196.267C363.593 195.735 363.377 195.158 363.255 194.558C363.213 194.294 363.138 194.036 363.032 193.791C362.678 193.355 362.23 193.005 361.722 192.769C360.847 192.326 360.074 191.706 359.453 190.947C359.183 190.618 359.018 190.215 358.978 189.79C358.938 189.366 359.026 188.94 359.23 188.566C359.435 188.191 359.746 187.887 360.124 187.691C360.503 187.495 360.931 187.416 361.354 187.464L364.629 187.337C366.744 187.054 368.895 187.44 370.78 188.439C371.919 189.226 372.855 190.272 373.512 191.491C374.39 192.855 375.002 194.373 375.318 195.964C375.356 196.221 375.33 196.483 375.244 196.728C375.158 196.973 375.013 197.193 374.822 197.37C374.633 197.548 374.404 197.678 374.153 197.748C373.902 197.817 373.639 197.825 373.384 197.769C372.378 197.61 371.349 197.665 370.365 197.929C369.822 198.041 369.279 198.137 368.767 198.217L367.92 198.265ZM364.198 190.548C364.866 190.994 365.415 191.597 365.796 192.305C366.039 192.783 366.212 193.295 366.307 193.823C366.356 194.092 366.437 194.355 366.547 194.606C366.754 194.957 367.473 195.133 368.272 195.037C368.773 194.973 369.252 194.894 369.71 194.798C370.284 194.671 370.866 194.58 371.451 194.526C371.227 194.044 370.976 193.575 370.7 193.12C370.292 192.337 369.713 191.654 369.007 191.123C367.657 190.513 366.158 190.307 364.693 190.532L364.198 190.548Z" fill="#DFEAEF"/>
<path d="M338.873 192.226C336.285 192.226 333.649 191.347 332.595 189.558C331.94 188.455 331.38 186.202 334.927 183.486L335.774 182.879C336.389 182.488 336.953 182.021 337.451 181.489C337.828 180.993 338.149 180.458 338.41 179.892C338.758 179.119 339.187 178.386 339.688 177.703C340.133 177.147 340.691 176.692 341.324 176.367C341.957 176.043 342.652 175.855 343.363 175.818C343.866 175.799 344.366 175.896 344.826 176.101C345.286 176.306 345.693 176.613 346.015 177C346.215 177.238 346.342 177.53 346.379 177.84C346.416 178.149 346.361 178.463 346.223 178.741C345.874 179.433 345.675 180.19 345.639 180.964C345.603 181.738 345.731 182.51 346.015 183.231C346.245 183.732 346.364 184.277 346.366 184.828C346.31 185.55 346.031 186.237 345.567 186.794C344.743 187.958 344.087 189.233 343.618 190.58C343.547 190.788 343.434 190.979 343.285 191.141C343.137 191.304 342.957 191.433 342.756 191.523C341.523 192.018 340.202 192.258 338.873 192.226ZM342.612 179.221C342.433 179.323 342.276 179.458 342.149 179.62C341.789 180.122 341.479 180.657 341.222 181.218C340.862 182.031 340.406 182.798 339.864 183.502C339.189 184.263 338.415 184.929 337.563 185.484L336.828 186.011C335.454 187.065 335.231 187.752 335.231 187.912C335.726 188.759 338.618 189.366 340.759 188.759C341.282 187.399 341.975 186.111 342.82 184.924L343.043 184.605V184.445C342.406 182.779 342.272 180.962 342.66 179.221H342.612Z" fill="#DFEAEF"/>
<path d="M328.313 194.925H328.201C324.814 194.782 322.194 188.535 321.907 187.752C321.107 185.694 320.032 183.754 318.711 181.984C318.544 181.757 318.439 181.49 318.408 181.209C318.377 180.929 318.421 180.645 318.536 180.387C318.653 180.123 318.84 179.896 319.077 179.73C319.313 179.564 319.59 179.465 319.878 179.444C320.98 179.364 323.52 179.189 324.91 181.042C325.23 181.494 325.473 181.996 325.629 182.528C325.676 182.663 325.729 182.797 325.789 182.927C326.373 183.772 327.085 184.521 327.898 185.148C330.007 187.033 332.915 189.621 331.365 192.721C331.137 193.352 330.724 193.901 330.179 194.294C329.635 194.687 328.985 194.907 328.313 194.925ZM325.022 186.937C325.709 188.757 326.802 190.396 328.217 191.73C328.302 191.609 328.377 191.48 328.441 191.347C328.904 190.436 327.131 188.854 325.709 187.576C325.485 187.321 325.246 187.113 325.022 186.889V186.937Z" fill="#DFEAEF"/>
<path d="M341.254 201.731C340.449 201.717 339.646 201.626 338.858 201.46C337.118 201.118 335.409 200.637 333.745 200.022C333.331 199.898 332.946 199.692 332.611 199.418C332.276 199.144 332 198.806 331.796 198.424C331.543 197.826 331.505 197.158 331.689 196.535C331.872 195.912 332.266 195.371 332.803 195.005C333.49 194.569 334.275 194.311 335.087 194.254C338.335 193.884 341.62 194.002 344.833 194.606C345.088 194.654 345.328 194.764 345.531 194.925C345.734 195.086 345.895 195.295 345.999 195.533C346.233 195.955 346.378 196.421 346.428 196.901C346.477 197.382 346.429 197.867 346.287 198.328C346.107 198.932 345.804 199.492 345.397 199.974C344.99 200.455 344.488 200.847 343.922 201.124C343.091 201.527 342.178 201.735 341.254 201.731ZM335.998 197.466C337.143 197.822 338.306 198.121 339.481 198.36C340.475 198.666 341.538 198.666 342.533 198.36C342.818 198.211 343.043 197.969 343.172 197.673C340.798 197.309 338.389 197.239 335.998 197.466Z" fill="#DFEAEF"/>
<path d="M348.649 185.036C348.44 185.053 348.229 185.028 348.028 184.964C347.828 184.899 347.643 184.795 347.482 184.659C347.322 184.522 347.19 184.356 347.094 184.168C346.999 183.981 346.941 183.776 346.924 183.567C346.907 183.357 346.932 183.146 346.997 182.945C347.061 182.745 347.165 182.56 347.302 182.399C347.438 182.239 347.605 182.107 347.792 182.012C347.98 181.916 348.184 181.858 348.394 181.841C348.718 181.8 349.038 181.736 349.352 181.649C349.537 181.598 349.715 181.523 349.88 181.426C349.507 181.287 349.199 181.013 349.017 180.659C347.875 178.418 346.887 176.101 346.061 173.725C345.714 172.935 345.641 172.053 345.854 171.217C346.153 170.438 346.737 169.802 347.487 169.437C348.237 169.072 349.098 169.006 349.896 169.252C351.004 169.653 351.959 170.39 352.628 171.36C354.226 173.353 355.059 175.853 354.976 178.406C354.903 179.804 354.418 181.149 353.583 182.272C352.747 183.395 351.597 184.246 350.279 184.717C349.827 184.837 349.368 184.933 348.905 185.004L348.649 185.036ZM348.953 172.335C348.953 172.463 349.049 172.623 349.065 172.687C349.812 174.804 350.687 176.874 351.685 178.885C351.746 178.661 351.783 178.431 351.797 178.198C351.82 176.416 351.209 174.683 350.071 173.31C349.912 173.102 349.432 172.463 349.001 172.335H348.953Z" fill="#DFEAEF"/>
<path d="M352.391 149.041C351.747 149.076 351.107 148.93 350.542 148.619C349.977 148.309 349.511 147.846 349.195 147.284C349.042 146.984 348.987 146.643 349.038 146.311C349.09 145.978 349.246 145.67 349.483 145.431C350.784 144.377 351.741 142.958 352.231 141.357C352.331 140.63 352.331 139.894 352.231 139.168C352.231 138.896 352.231 138.625 352.151 138.353C352.039 137.207 352.233 136.052 352.713 135.005C353.193 133.958 353.942 133.057 354.883 132.394C355.552 132.042 356.313 131.903 357.063 131.994C357.814 132.085 358.519 132.403 359.085 132.905C362.44 135.477 359.644 142.97 359.612 143.05C359.184 144.258 358.523 145.369 357.664 146.321C356.806 147.272 355.769 148.045 354.611 148.594C353.912 148.9 353.154 149.053 352.391 149.041ZM355.234 138.065C355.234 138.305 355.234 138.561 355.314 138.8C355.452 139.813 355.452 140.839 355.314 141.852C355.075 143.141 354.526 144.352 353.717 145.383C354.996 144.569 355.965 143.348 356.465 141.916C357.407 139.423 357.679 135.972 356.976 135.429C356.273 134.886 356.321 135.158 356.257 135.19C355.877 135.561 355.583 136.011 355.395 136.507C355.208 137.004 355.131 137.536 355.17 138.065H355.234Z" fill="#DFEAEF"/>
<path d="M380.493 243.383H380.413C380.079 243.373 379.751 243.293 379.451 243.147C379.151 243.001 378.885 242.793 378.672 242.536C378.382 242.169 378.17 241.749 378.046 241.299C377.922 240.849 377.891 240.378 377.953 239.916C378.352 236.624 381.388 234.627 383.64 233.413C385.893 232.199 387.762 231.192 388.353 229.467C388.416 229.3 388.469 229.129 388.513 228.956C388.612 228.308 388.868 227.695 389.257 227.169C389.647 226.643 390.159 226.22 390.75 225.936C391.55 225.706 392.405 225.754 393.174 226.074C393.943 226.393 394.581 226.964 394.984 227.694L395.319 228.205C395.531 228.603 395.825 228.951 396.182 229.227C396.568 229.396 396.873 229.71 397.029 230.103C397.184 230.495 397.178 230.932 397.013 231.32C396.891 231.613 396.685 231.864 396.421 232.039C396.491 232.569 396.491 233.107 396.421 233.637C396.178 234.969 395.628 236.227 394.816 237.311C394.003 238.395 392.951 239.275 391.74 239.884C390.083 240.66 388.324 241.197 386.516 241.481C384.992 241.736 383.509 242.193 382.106 242.839C381.628 243.163 381.07 243.351 380.493 243.383ZM391.676 229.563C391.676 229.675 391.676 229.771 391.596 229.85C391.517 229.93 391.469 230.298 391.389 230.505C390.398 233.413 387.57 234.931 385.286 236.161C383.588 236.875 382.177 238.134 381.276 239.74C382.732 239.144 384.248 238.705 385.797 238.43C387.316 238.175 388.793 237.719 390.191 237.072C390.96 236.692 391.634 236.143 392.16 235.465C392.686 234.786 393.05 233.998 393.226 233.158C393.329 232.472 393.237 231.771 392.96 231.135C392.683 230.499 392.233 229.954 391.66 229.563H391.676Z" fill="#DFEAEF"/>
<path d="M206.143 125.268C205.958 125.268 205.774 125.235 205.6 125.172C205.332 125.072 205.096 124.903 204.916 124.681C204.736 124.459 204.619 124.192 204.577 123.91C204.06 121.808 204.233 119.595 205.073 117.599C205.455 116.909 205.991 116.317 206.639 115.868C207.288 115.419 208.031 115.126 208.811 115.011C209.415 114.91 210.035 114.957 210.617 115.149C211.199 115.341 211.725 115.672 212.15 116.113C212.395 116.371 212.547 116.703 212.582 117.056C213.307 118.263 213.891 119.55 214.323 120.89C214.439 121.227 214.439 121.592 214.323 121.929C213.572 123.99 211.399 123.782 210.217 123.67C209.893 123.647 209.567 123.647 209.243 123.67C208.464 123.881 207.76 124.307 207.214 124.9C206.914 125.149 206.533 125.28 206.143 125.268ZM209.418 118.158H209.259C208.977 118.2 208.708 118.305 208.473 118.466C208.238 118.626 208.042 118.838 207.901 119.085C207.631 119.62 207.493 120.212 207.501 120.81C208.006 120.586 208.547 120.456 209.099 120.427C209.578 120.396 210.058 120.396 210.537 120.427H210.808C210.536 119.794 210.221 119.18 209.866 118.59C209.773 118.432 209.708 118.259 209.674 118.078L209.418 118.158Z" fill="#DFEAEF"/>
<path d="M203.251 114.387C202.808 114.394 202.366 114.335 201.941 114.212C201.04 113.97 200.229 113.471 199.608 112.776C198.986 112.081 198.581 111.219 198.442 110.297C198.313 109.17 198.501 108.029 198.983 107.002C199.465 105.975 200.224 105.103 201.174 104.482C201.934 103.893 202.86 103.559 203.821 103.528C204.782 103.496 205.729 103.769 206.526 104.306C207.423 105.074 208.068 106.094 208.379 107.234C208.689 108.373 208.651 109.58 208.267 110.697C208.083 111.344 207.772 111.949 207.352 112.475C206.932 113.002 206.413 113.44 205.823 113.764C205.032 114.187 204.147 114.401 203.251 114.387ZM204.113 106.719C203.673 106.755 203.252 106.916 202.899 107.182C202.464 107.47 202.114 107.869 201.886 108.339C201.659 108.808 201.562 109.33 201.605 109.85C201.658 110.164 201.803 110.454 202.023 110.685C202.242 110.916 202.525 111.075 202.835 111.144C203.075 111.204 203.325 111.216 203.569 111.177C203.813 111.139 204.047 111.052 204.257 110.92C204.7 110.69 205.033 110.294 205.184 109.818C205.372 109.328 205.421 108.796 205.325 108.28C205.229 107.764 204.992 107.284 204.641 106.894C204.5 106.753 204.313 106.667 204.113 106.655V106.719Z" fill="#DFEAEF"/>
<path d="M215.381 85.6299C211.87 85.6341 208.504 87.0309 206.021 89.5138C203.538 91.9967 202.141 95.363 202.137 98.8744C202.137 106.208 215.381 132.249 215.381 132.249C215.381 132.249 228.626 106.208 228.626 98.8744C228.626 95.3617 227.23 91.9929 224.747 89.5091C222.263 87.0253 218.894 85.6299 215.381 85.6299ZM215.381 104.019C214.325 104.022 213.292 103.712 212.412 103.127C211.533 102.543 210.846 101.711 210.44 100.736C210.034 99.7611 209.926 98.6877 210.13 97.6515C210.334 96.6153 210.841 95.663 211.586 94.9151C212.332 94.1673 213.283 93.6575 214.318 93.4503C215.354 93.2431 216.428 93.3478 217.404 93.7512C218.38 94.1546 219.214 94.8386 219.801 95.7164C220.388 96.5943 220.701 97.6266 220.701 98.6827C220.685 100.086 220.118 101.426 219.123 102.415C218.128 103.404 216.784 103.963 215.381 103.971V104.019Z" fill="#FFC200"/>
<path d="M215.381 133.799C215.088 133.8 214.8 133.72 214.549 133.567C214.298 133.415 214.094 133.197 213.959 132.936C212.585 130.236 200.539 106.32 200.539 98.8266C200.539 94.8902 202.103 91.115 204.886 88.3315C207.67 85.5481 211.445 83.9844 215.381 83.9844C219.318 83.9844 223.093 85.5481 225.876 88.3315C228.66 91.115 230.223 94.8902 230.223 98.8266C230.223 106.32 218.177 130.236 216.803 132.936C216.668 133.197 216.464 133.415 216.213 133.567C215.962 133.72 215.675 133.8 215.381 133.799ZM215.381 87.1797C212.294 87.1839 209.334 88.4123 207.15 90.5956C204.967 92.7789 203.739 95.7389 203.734 98.8266C203.734 103.891 211.179 120.059 215.381 128.623C219.599 120.059 227.028 103.891 227.028 98.8266C227.011 95.7472 225.777 92.7995 223.595 90.6266C221.413 88.4536 218.461 87.2318 215.381 87.2276V87.1797ZM215.381 105.569C214.009 105.572 212.667 105.168 211.525 104.408C210.382 103.648 209.491 102.566 208.964 101.299C208.437 100.033 208.297 98.638 208.563 97.2919C208.828 95.9459 209.488 94.7089 210.457 93.7376C211.426 92.7663 212.661 92.1043 214.007 91.8355C215.352 91.5666 216.747 91.703 218.015 92.2273C219.283 92.7517 220.367 93.6404 221.129 94.781C221.892 95.9216 222.299 97.2628 222.299 98.6348C222.295 100.47 221.565 102.229 220.269 103.527C218.973 104.826 217.216 105.56 215.381 105.569ZM215.381 94.9123C214.64 94.9091 213.915 95.1261 213.298 95.5357C212.681 95.9453 212.199 96.529 211.914 97.2128C211.629 97.8965 211.554 98.6495 211.698 99.3762C211.842 100.103 212.198 100.771 212.722 101.294C213.246 101.818 213.913 102.174 214.64 102.318C215.367 102.462 216.12 102.387 216.803 102.102C217.487 101.817 218.071 101.335 218.48 100.718C218.89 100.101 219.107 99.3756 219.104 98.6348C219.104 97.6476 218.712 96.7007 218.013 96.0026C217.315 95.3045 216.369 94.9123 215.381 94.9123Z" fill="#191B1D"/>
<path d="M339.006 151.453C335.494 151.453 332.125 152.849 329.641 155.332C327.157 157.816 325.762 161.185 325.762 164.698C325.762 172.031 339.006 198.073 339.006 198.073C339.006 198.073 352.251 172.031 352.251 164.698C352.247 161.186 350.85 157.82 348.367 155.337C345.884 152.854 342.518 151.457 339.006 151.453ZM339.006 169.842C337.951 169.845 336.918 169.535 336.039 168.952C335.16 168.368 334.473 167.537 334.066 166.563C333.66 165.589 333.551 164.516 333.754 163.481C333.956 162.445 334.462 161.493 335.206 160.744C335.95 159.996 336.899 159.484 337.934 159.275C338.968 159.066 340.041 159.169 341.018 159.57C341.994 159.971 342.829 160.652 343.418 161.528C344.007 162.404 344.323 163.435 344.326 164.49C344.329 165.191 344.193 165.885 343.926 166.533C343.66 167.181 343.269 167.771 342.775 168.268C342.281 168.765 341.694 169.16 341.047 169.43C340.4 169.7 339.707 169.84 339.006 169.842Z" fill="#FF5B26"/>
<path d="M339.002 199.67C338.707 199.669 338.418 199.587 338.167 199.432C337.916 199.277 337.713 199.055 337.58 198.792C336.206 196.091 324.16 172.191 324.16 164.698C324.16 160.761 325.724 156.986 328.507 154.203C331.291 151.419 335.066 149.855 339.002 149.855C342.939 149.855 346.714 151.419 349.497 154.203C352.281 156.986 353.844 160.761 353.844 164.698C353.844 172.191 341.798 196.091 340.424 198.792C340.291 199.055 340.088 199.277 339.837 199.432C339.586 199.587 339.297 199.669 339.002 199.67ZM339.002 153.051C335.915 153.055 332.955 154.283 330.771 156.467C328.588 158.65 327.36 161.61 327.355 164.698C327.355 169.746 334.785 185.93 339.002 194.494C343.22 185.914 350.649 169.746 350.649 164.698C350.645 161.61 349.417 158.65 347.233 156.467C345.05 154.283 342.09 153.055 339.002 153.051ZM339.002 171.44C337.631 171.443 336.289 171.039 335.147 170.28C334.005 169.521 333.114 168.44 332.586 167.174C332.059 165.908 331.918 164.515 332.183 163.169C332.447 161.823 333.105 160.586 334.072 159.614C335.04 158.642 336.274 157.979 337.618 157.709C338.962 157.438 340.357 157.572 341.625 158.094C342.893 158.616 343.978 159.502 344.743 160.64C345.507 161.779 345.917 163.119 345.92 164.49C345.92 166.328 345.192 168.091 343.896 169.393C342.6 170.695 340.84 171.431 339.002 171.44ZM339.002 160.783C338.261 160.78 337.535 160.998 336.918 161.408C336.3 161.818 335.819 162.403 335.534 163.088C335.25 163.772 335.175 164.526 335.32 165.253C335.465 165.98 335.823 166.648 336.349 167.171C336.874 167.694 337.543 168.049 338.271 168.191C338.999 168.333 339.752 168.255 340.436 167.968C341.119 167.681 341.702 167.197 342.109 166.577C342.517 165.958 342.731 165.231 342.725 164.49C342.731 163.997 342.64 163.508 342.455 163.051C342.271 162.594 341.998 162.177 341.652 161.827C341.305 161.476 340.893 161.197 340.438 161.007C339.983 160.817 339.495 160.719 339.002 160.72V160.783Z" fill="#191B1D"/>
<path d="M244.389 177.99C240.876 177.99 237.508 179.386 235.024 181.869C232.54 184.353 231.145 187.722 231.145 191.235C231.145 198.568 244.389 224.61 244.389 224.61C244.389 224.61 257.618 198.568 257.618 191.235C257.618 187.725 256.224 184.358 253.744 181.875C251.264 179.392 247.899 177.994 244.389 177.99ZM244.389 196.379C243.332 196.386 242.298 196.078 241.416 195.495C240.534 194.913 239.845 194.082 239.436 193.107C239.028 192.133 238.917 191.059 239.12 190.022C239.322 188.985 239.828 188.031 240.573 187.281C241.318 186.532 242.268 186.02 243.304 185.812C244.34 185.603 245.415 185.707 246.392 186.11C247.369 186.513 248.204 187.197 248.792 188.075C249.379 188.953 249.693 189.986 249.693 191.043C249.689 192.451 249.13 193.802 248.137 194.8C247.144 195.799 245.797 196.367 244.389 196.379Z" fill="#1EB482"/>
<path d="M244.389 226.224C244.091 226.226 243.799 226.144 243.545 225.989C243.291 225.834 243.085 225.611 242.951 225.345C241.577 222.645 229.547 198.744 229.547 191.251C229.482 189.262 229.817 187.28 230.533 185.423C231.249 183.567 232.332 181.873 233.715 180.443C235.099 179.013 236.757 177.875 238.589 177.099C240.421 176.322 242.391 175.922 244.381 175.922C246.371 175.922 248.341 176.322 250.173 177.099C252.006 177.875 253.663 179.013 255.047 180.443C256.431 181.873 257.513 183.567 258.229 185.423C258.945 187.28 259.281 189.262 259.215 191.251C259.215 198.744 247.185 222.645 245.811 225.345C245.678 225.608 245.475 225.83 245.224 225.985C244.973 226.14 244.684 226.223 244.389 226.224ZM244.389 179.604C241.304 179.608 238.347 180.835 236.164 183.014C233.981 185.194 232.751 188.15 232.742 191.235C232.742 196.3 240.171 212.468 244.389 221.031C248.591 212.468 256.02 196.3 256.02 191.235C256.016 188.15 254.79 185.193 252.61 183.01C250.43 180.827 247.474 179.597 244.389 179.588V179.604ZM244.389 197.993C243.016 197.999 241.673 197.598 240.528 196.84C239.384 196.082 238.49 195.001 237.96 193.735C237.431 192.468 237.289 191.073 237.553 189.726C237.817 188.379 238.475 187.141 239.443 186.168C240.411 185.195 241.647 184.531 242.993 184.261C244.339 183.991 245.734 184.126 247.003 184.65C248.272 185.174 249.357 186.063 250.12 187.204C250.884 188.345 251.291 189.687 251.291 191.059C251.283 192.889 250.553 194.641 249.261 195.936C247.969 197.231 246.219 197.964 244.389 197.977V197.993ZM244.389 187.337C243.648 187.33 242.921 187.545 242.302 187.952C241.683 188.36 241.198 188.942 240.911 189.626C240.624 190.309 240.546 191.063 240.688 191.791C240.83 192.518 241.185 193.188 241.708 193.713C242.231 194.238 242.899 194.596 243.626 194.741C244.353 194.886 245.107 194.812 245.792 194.528C246.476 194.243 247.061 193.761 247.471 193.144C247.882 192.526 248.099 191.801 248.096 191.059C248.096 190.073 247.706 189.127 247.012 188.427C246.318 187.727 245.375 187.329 244.389 187.321V187.337Z" fill="#191B1D"/>
<path d="M144.568 181.825C144.366 181.825 144.165 181.787 143.977 181.713C143.782 181.635 143.604 181.52 143.453 181.374C143.303 181.227 143.182 181.053 143.099 180.86C143.016 180.667 142.972 180.46 142.969 180.25C142.966 180.04 143.005 179.831 143.082 179.636C143.082 179.636 143.546 178.486 144.424 176.632C144.609 176.257 144.934 175.969 145.329 175.831C145.724 175.692 146.158 175.714 146.537 175.892C146.916 176.07 147.21 176.39 147.355 176.782C147.501 177.174 147.487 177.608 147.316 177.99C146.485 179.748 146.07 180.786 146.054 180.818C145.936 181.115 145.731 181.37 145.466 181.55C145.201 181.729 144.888 181.825 144.568 181.825Z" fill="#191B1D"/>
<path d="M149.04 172.83C148.76 172.832 148.484 172.76 148.241 172.622C147.875 172.411 147.608 172.064 147.497 171.657C147.387 171.25 147.441 170.816 147.65 170.449C148.784 168.436 150.014 166.423 151.292 164.49C151.529 164.144 151.892 163.904 152.303 163.823C152.714 163.742 153.141 163.826 153.491 164.056C153.841 164.287 154.086 164.646 154.174 165.056C154.262 165.466 154.185 165.894 153.96 166.247C152.714 168.133 151.532 170.066 150.43 172.015C150.291 172.262 150.089 172.467 149.845 172.61C149.601 172.753 149.323 172.829 149.04 172.83ZM156.597 161.374C156.246 161.371 155.906 161.26 155.622 161.055C155.454 160.927 155.314 160.766 155.208 160.583C155.103 160.4 155.035 160.198 155.008 159.989C154.982 159.779 154.997 159.566 155.053 159.363C155.109 159.159 155.204 158.969 155.334 158.802C156.772 156.933 158.258 155.128 159.792 153.418C160.076 153.102 160.473 152.913 160.897 152.89C161.321 152.868 161.737 153.014 162.053 153.298C162.368 153.582 162.558 153.98 162.581 154.404C162.603 154.828 162.456 155.243 162.172 155.559C160.703 157.157 159.249 158.946 157.859 160.751C157.71 160.945 157.519 161.101 157.3 161.209C157.081 161.317 156.841 161.374 156.597 161.374ZM165.767 151.181C165.548 151.181 165.331 151.135 165.131 151.047C164.93 150.959 164.75 150.831 164.601 150.67C164.314 150.36 164.161 149.95 164.176 149.527C164.191 149.105 164.372 148.706 164.681 148.418C166.384 146.812 168.17 145.298 170.033 143.88C170.189 143.716 170.379 143.586 170.59 143.501C170.8 143.415 171.026 143.376 171.253 143.385C171.48 143.394 171.703 143.451 171.906 143.552C172.109 143.654 172.288 143.798 172.431 143.974C172.574 144.151 172.678 144.355 172.736 144.575C172.793 144.795 172.804 145.024 172.766 145.248C172.728 145.472 172.643 145.685 172.516 145.874C172.389 146.062 172.223 146.221 172.03 146.341C170.304 147.667 168.595 149.136 166.933 150.686C166.779 150.835 166.596 150.952 166.396 151.029C166.195 151.105 165.982 151.141 165.767 151.134V151.181ZM176.663 142.874C176.39 142.873 176.122 142.801 175.884 142.667C175.646 142.533 175.447 142.34 175.305 142.107C175.195 141.927 175.122 141.726 175.089 141.518C175.057 141.309 175.066 141.096 175.117 140.891C175.167 140.686 175.258 140.493 175.384 140.323C175.509 140.154 175.667 140.01 175.848 139.902C177.863 138.709 179.949 137.642 182.095 136.707C182.287 136.622 182.494 136.575 182.704 136.57C182.914 136.565 183.122 136.602 183.318 136.677C183.514 136.753 183.693 136.867 183.845 137.011C183.997 137.156 184.119 137.33 184.204 137.522C184.289 137.714 184.335 137.92 184.34 138.13C184.345 138.34 184.309 138.549 184.233 138.745C184.158 138.941 184.044 139.12 183.899 139.272C183.755 139.424 183.581 139.545 183.389 139.63C181.36 140.531 179.391 141.561 177.494 142.714C177.235 142.836 176.949 142.891 176.663 142.874ZM189.189 137.346C188.979 137.375 188.765 137.363 188.56 137.31C188.355 137.257 188.163 137.164 187.993 137.036C187.652 136.778 187.427 136.396 187.367 135.972C187.308 135.548 187.419 135.118 187.677 134.777C187.935 134.435 188.318 134.21 188.741 134.15C191.004 133.467 193.31 132.933 195.643 132.553C196.067 132.491 196.498 132.601 196.841 132.857C197.184 133.113 197.411 133.495 197.472 133.919C197.534 134.343 197.425 134.773 197.168 135.116C196.912 135.459 196.53 135.687 196.106 135.748C193.946 136.074 191.811 136.549 189.716 137.17C189.552 137.259 189.373 137.318 189.189 137.346Z" fill="#191B1D"/>
<path d="M205.933 135.413H205.853C204.799 135.413 203.776 135.413 202.754 135.413C202.33 135.413 201.924 135.244 201.624 134.945C201.325 134.645 201.156 134.239 201.156 133.815C201.156 133.391 201.325 132.985 201.624 132.685C201.924 132.386 202.33 132.217 202.754 132.217C203.84 132.217 204.927 132.217 206.045 132.217C206.455 132.238 206.841 132.415 207.123 132.713C207.406 133.01 207.563 133.405 207.563 133.815C207.563 134.027 207.521 134.238 207.438 134.434C207.356 134.63 207.235 134.807 207.084 134.956C206.932 135.105 206.752 135.222 206.554 135.3C206.357 135.379 206.146 135.417 205.933 135.413Z" fill="#191B1D"/>
<path d="M138.147 133.671C134.634 133.671 131.265 135.067 128.782 137.551C126.298 140.034 124.902 143.403 124.902 146.916C124.902 154.249 138.147 180.291 138.147 180.291C138.147 180.291 151.391 154.249 151.391 146.916C151.387 143.405 149.99 140.038 147.507 137.555C145.025 135.072 141.658 133.676 138.147 133.671ZM138.147 152.06C137.091 152.064 136.058 151.753 135.178 151.169C134.298 150.584 133.612 149.752 133.206 148.777C132.799 147.803 132.691 146.729 132.895 145.693C133.099 144.657 133.606 143.705 134.352 142.957C135.098 142.209 136.048 141.699 137.084 141.492C138.12 141.285 139.193 141.389 140.169 141.793C141.145 142.196 141.98 142.88 142.567 143.758C143.154 144.636 143.467 145.668 143.467 146.724C143.467 148.137 142.907 149.492 141.91 150.492C140.913 151.492 139.559 152.056 138.147 152.06Z" fill="#FF5B26"/>
<path d="M138.147 181.888C137.853 181.889 137.566 181.809 137.315 181.657C137.064 181.505 136.86 181.286 136.725 181.026C135.351 178.326 123.305 154.409 123.305 146.916C123.305 144.967 123.689 143.037 124.434 141.236C125.18 139.435 126.274 137.799 127.652 136.421C129.03 135.043 130.666 133.949 132.467 133.204C134.268 132.458 136.198 132.074 138.147 132.074C140.096 132.074 142.026 132.458 143.827 133.204C145.627 133.949 147.264 135.043 148.642 136.421C150.02 137.799 151.113 139.435 151.859 141.236C152.605 143.037 152.989 144.967 152.989 146.916C152.989 154.409 140.943 178.326 139.569 181.026C139.434 181.286 139.23 181.505 138.979 181.657C138.728 181.809 138.44 181.889 138.147 181.888ZM138.147 135.269C135.059 135.273 132.099 136.502 129.916 138.685C127.733 140.868 126.504 143.828 126.5 146.916C126.5 151.98 133.929 168.149 138.147 176.712C142.349 168.149 149.794 151.98 149.794 146.916C149.79 143.828 148.561 140.868 146.378 138.685C144.194 136.502 141.235 135.273 138.147 135.269ZM138.147 153.658C136.775 153.661 135.433 153.257 134.29 152.497C133.148 151.737 132.257 150.655 131.729 149.389C131.202 148.122 131.063 146.727 131.328 145.381C131.594 144.035 132.253 142.798 133.222 141.827C134.191 140.856 135.427 140.194 136.772 139.925C138.118 139.656 139.513 139.792 140.781 140.317C142.049 140.841 143.132 141.73 143.895 142.87C144.658 144.011 145.065 145.352 145.065 146.724C145.065 148.56 144.336 150.322 143.039 151.621C141.743 152.921 139.983 153.654 138.147 153.658ZM138.147 143.002C137.406 142.999 136.681 143.215 136.064 143.625C135.447 144.035 134.965 144.618 134.68 145.302C134.395 145.986 134.32 146.739 134.463 147.466C134.607 148.192 134.964 148.86 135.487 149.384C136.011 149.907 136.679 150.264 137.405 150.408C138.132 150.551 138.885 150.476 139.569 150.191C140.253 149.906 140.836 149.424 141.246 148.807C141.656 148.19 141.873 147.465 141.869 146.724C141.869 146.235 141.773 145.751 141.586 145.3C141.399 144.848 141.125 144.438 140.779 144.092C140.433 143.746 140.023 143.472 139.571 143.285C139.12 143.098 138.636 143.002 138.147 143.002Z" fill="#191B1D"/>
<path d="M234.708 221.67C234.396 221.672 234.091 221.583 233.829 221.414C231.976 220.2 230.186 218.954 228.509 217.692C228.341 217.566 228.2 217.408 228.093 217.228C227.986 217.047 227.916 216.847 227.886 216.639C227.856 216.432 227.868 216.22 227.92 216.017C227.972 215.814 228.063 215.623 228.189 215.455C228.315 215.287 228.473 215.146 228.653 215.039C228.834 214.932 229.034 214.862 229.241 214.832C229.449 214.802 229.661 214.814 229.864 214.866C230.067 214.918 230.258 215.01 230.426 215.135C232.024 216.35 233.781 217.564 235.57 218.73C235.86 218.917 236.081 219.193 236.201 219.515C236.321 219.838 236.334 220.191 236.237 220.522C236.14 220.853 235.938 221.143 235.663 221.35C235.387 221.557 235.052 221.669 234.708 221.67ZM224.499 214.001C224.11 214.001 223.736 213.859 223.444 213.602C221.847 212.164 220.249 210.646 218.651 209.128C218.486 208.983 218.353 208.804 218.261 208.605C218.168 208.405 218.117 208.189 218.112 207.969C218.107 207.749 218.147 207.53 218.23 207.327C218.313 207.123 218.438 206.939 218.596 206.785C218.753 206.632 218.941 206.513 219.147 206.436C219.353 206.358 219.573 206.324 219.792 206.336C220.012 206.347 220.227 206.404 220.424 206.502C220.621 206.601 220.795 206.739 220.936 206.908C222.358 208.361 223.876 209.799 225.489 211.205C225.733 211.42 225.905 211.703 225.983 212.018C226.061 212.333 226.042 212.664 225.927 212.967C225.813 213.271 225.609 213.532 225.342 213.717C225.076 213.901 224.759 214.001 224.435 214.001H224.499ZM215.616 204.831C215.377 204.831 215.141 204.779 214.926 204.676C214.71 204.574 214.52 204.425 214.37 204.239C212.996 202.514 211.702 200.725 210.535 198.935C210.304 198.579 210.224 198.146 210.313 197.731C210.401 197.316 210.651 196.953 211.007 196.722C211.362 196.492 211.796 196.411 212.211 196.5C212.626 196.588 212.988 196.838 213.219 197.194C214.322 198.903 215.552 200.597 216.862 202.242C217.048 202.477 217.164 202.76 217.196 203.058C217.229 203.355 217.178 203.656 217.048 203.926C216.918 204.196 216.715 204.424 216.462 204.584C216.208 204.744 215.915 204.829 215.616 204.831ZM208.778 194.11C208.48 194.112 208.188 194.031 207.934 193.876C207.68 193.721 207.474 193.498 207.34 193.232C206.367 191.27 205.509 189.253 204.768 187.193C204.637 186.798 204.666 186.367 204.848 185.993C205.03 185.619 205.35 185.331 205.741 185.189C206.133 185.048 206.563 185.065 206.942 185.236C207.322 185.407 207.619 185.719 207.771 186.106C208.471 188.052 209.282 189.957 210.2 191.81C210.389 192.187 210.422 192.624 210.29 193.025C210.158 193.426 209.873 193.759 209.497 193.951C209.273 194.059 209.027 194.114 208.778 194.11ZM204.464 182.112C204.097 182.122 203.738 182.005 203.447 181.781C203.156 181.557 202.951 181.239 202.867 180.882C202.37 178.744 202.002 176.578 201.764 174.395C201.718 173.972 201.841 173.547 202.108 173.214C202.374 172.882 202.762 172.669 203.186 172.622C203.61 172.575 204.035 172.699 204.367 172.966C204.7 173.232 204.913 173.62 204.959 174.044C205.184 176.102 205.53 178.146 205.998 180.163C206.045 180.367 206.052 180.579 206.017 180.786C205.983 180.994 205.907 181.192 205.796 181.37C205.685 181.548 205.54 181.702 205.369 181.824C205.198 181.946 205.004 182.033 204.8 182.08C204.669 182.109 204.534 182.12 204.4 182.112H204.464ZM203.074 169.443C202.65 169.443 202.244 169.274 201.945 168.975C201.645 168.675 201.477 168.269 201.477 167.845C201.48 165.656 201.603 163.47 201.844 161.295C201.867 161.085 201.931 160.882 202.033 160.697C202.135 160.512 202.272 160.348 202.436 160.216C202.601 160.084 202.79 159.986 202.993 159.927C203.195 159.868 203.408 159.85 203.617 159.873C203.827 159.896 204.03 159.96 204.215 160.062C204.4 160.163 204.564 160.3 204.696 160.465C204.828 160.63 204.926 160.819 204.985 161.021C205.044 161.224 205.062 161.436 205.039 161.646C204.817 163.705 204.705 165.774 204.704 167.845C204.704 168.063 204.66 168.279 204.574 168.479C204.488 168.68 204.361 168.86 204.203 169.01C204.044 169.16 203.856 169.275 203.651 169.35C203.446 169.424 203.228 169.456 203.01 169.443H203.074ZM204.432 156.757H204.097C203.891 156.714 203.696 156.63 203.522 156.51C203.349 156.391 203.201 156.239 203.087 156.062C202.972 155.886 202.894 155.688 202.856 155.481C202.818 155.274 202.822 155.062 202.867 154.856C203.29 152.7 203.823 150.567 204.464 148.465C204.599 148.073 204.881 147.748 205.251 147.56C205.621 147.371 206.05 147.335 206.447 147.457C206.844 147.58 207.177 147.852 207.377 148.216C207.576 148.58 207.626 149.008 207.516 149.408C206.893 151.405 206.381 153.434 205.918 155.447C205.851 155.811 205.661 156.141 205.378 156.38C205.095 156.619 204.738 156.752 204.368 156.757H204.432ZM208.171 144.551C207.962 144.546 207.757 144.502 207.564 144.423C207.175 144.261 206.866 143.951 206.705 143.562C206.543 143.173 206.542 142.736 206.701 142.346C207.529 140.292 208.484 138.291 209.561 136.355C209.793 136.035 210.136 135.813 210.523 135.732C210.91 135.65 211.314 135.715 211.656 135.914C211.998 136.113 212.254 136.431 212.374 136.808C212.495 137.184 212.472 137.592 212.309 137.953C211.309 139.754 210.423 141.616 209.657 143.529C209.537 143.839 209.323 144.105 209.045 144.288C208.768 144.471 208.439 144.563 208.107 144.551H208.171Z" fill="#191B1D"/>
<path d="M254.1 221.286C253.957 221.31 253.812 221.31 253.669 221.286C253.263 221.171 252.919 220.899 252.712 220.531C252.506 220.163 252.453 219.728 252.566 219.321C253.226 217.194 254.038 215.117 254.995 213.106C255.172 212.724 255.493 212.428 255.888 212.281C256.283 212.134 256.72 212.15 257.104 212.324C257.295 212.411 257.467 212.536 257.61 212.69C257.753 212.845 257.864 213.026 257.937 213.223C258.009 213.421 258.042 213.631 258.034 213.841C258.025 214.051 257.975 214.258 257.886 214.448C257.002 216.303 256.254 218.22 255.65 220.184C255.544 220.51 255.336 220.792 255.057 220.991C254.778 221.189 254.442 221.293 254.1 221.286ZM259.436 209.671C259.148 209.667 258.866 209.584 258.621 209.432C258.26 209.213 257.999 208.86 257.898 208.45C257.796 208.039 257.861 207.605 258.078 207.243C259.215 205.365 260.464 203.556 261.817 201.827C261.939 201.644 262.098 201.489 262.283 201.37C262.468 201.252 262.676 201.173 262.893 201.138C263.11 201.104 263.332 201.114 263.544 201.169C263.757 201.224 263.957 201.323 264.13 201.458C264.303 201.594 264.446 201.764 264.55 201.957C264.655 202.151 264.718 202.363 264.736 202.583C264.755 202.802 264.728 203.022 264.657 203.23C264.586 203.438 264.473 203.63 264.325 203.792C263.052 205.424 261.878 207.131 260.81 208.905C260.667 209.14 260.465 209.335 260.224 209.469C259.983 209.603 259.712 209.673 259.436 209.671ZM267.329 199.638C267.117 199.637 266.908 199.595 266.713 199.512C266.519 199.43 266.342 199.31 266.194 199.159C265.897 198.86 265.73 198.455 265.73 198.033C265.73 197.61 265.897 197.206 266.194 196.906C267.774 195.354 269.473 193.928 271.275 192.64C271.446 192.519 271.639 192.432 271.844 192.385C272.048 192.338 272.26 192.332 272.467 192.367C272.674 192.401 272.872 192.477 273.05 192.588C273.228 192.7 273.382 192.845 273.504 193.016C273.625 193.187 273.712 193.38 273.759 193.585C273.806 193.789 273.812 194.001 273.777 194.208C273.743 194.415 273.667 194.613 273.556 194.791C273.444 194.969 273.299 195.123 273.128 195.245C271.431 196.435 269.829 197.754 268.335 199.191C268.063 199.455 267.707 199.613 267.329 199.638ZM332.832 197.082C332.459 197.083 332.097 196.953 331.81 196.715C330.244 195.444 328.546 194.346 326.745 193.439C326.538 193.357 326.35 193.233 326.193 193.074C326.037 192.915 325.915 192.725 325.837 192.516C325.758 192.307 325.724 192.084 325.737 191.862C325.75 191.639 325.809 191.421 325.911 191.223C326.013 191.024 326.155 190.849 326.329 190.709C326.503 190.569 326.704 190.467 326.919 190.41C327.135 190.352 327.36 190.34 327.581 190.375C327.801 190.41 328.012 190.49 328.199 190.611C330.216 191.614 332.114 192.841 333.855 194.27C334.017 194.404 334.15 194.569 334.248 194.755C334.346 194.941 334.407 195.144 334.426 195.353C334.445 195.563 334.423 195.774 334.361 195.974C334.298 196.175 334.197 196.361 334.062 196.523C333.904 196.709 333.705 196.856 333.48 196.953C333.256 197.05 333.012 197.094 332.768 197.082H332.832ZM277.777 192.289C277.415 192.29 277.063 192.169 276.779 191.944C276.495 191.719 276.296 191.405 276.214 191.052C276.132 190.699 276.173 190.329 276.329 190.002C276.486 189.675 276.748 189.411 277.074 189.253C279.075 188.287 281.154 187.49 283.289 186.873C283.492 186.815 283.704 186.797 283.913 186.821C284.122 186.844 284.325 186.909 284.509 187.012C284.693 187.114 284.855 187.252 284.986 187.418C285.117 187.583 285.213 187.772 285.27 187.975C285.383 188.382 285.331 188.817 285.124 189.185C284.918 189.554 284.574 189.825 284.168 189.94C282.214 190.508 280.311 191.24 278.48 192.129C278.242 192.245 277.978 192.3 277.713 192.289H277.777ZM321.585 191.155C321.412 191.15 321.24 191.123 321.074 191.075C319.114 190.429 317.119 189.896 315.098 189.477C314.715 189.362 314.39 189.107 314.186 188.762C313.982 188.418 313.914 188.01 313.996 187.619C314.079 187.227 314.305 186.881 314.63 186.648C314.956 186.416 315.356 186.313 315.753 186.362C317.916 186.801 320.051 187.372 322.144 188.071C322.568 188.139 322.947 188.372 323.199 188.72C323.451 189.067 323.554 189.501 323.486 189.924C323.418 190.348 323.185 190.728 322.837 190.979C322.49 191.231 322.057 191.334 321.633 191.267L321.585 191.155ZM289.999 188.758C289.576 188.786 289.158 188.644 288.839 188.364C288.52 188.084 288.325 187.688 288.298 187.264C288.27 186.841 288.412 186.423 288.692 186.104C288.972 185.785 289.368 185.59 289.792 185.563C291.98 185.307 294.153 185.116 296.182 185.004C296.392 184.993 296.602 185.024 296.8 185.095C296.998 185.165 297.18 185.274 297.335 185.415C297.491 185.556 297.618 185.726 297.708 185.916C297.798 186.106 297.849 186.312 297.86 186.521C297.87 186.731 297.839 186.941 297.769 187.139C297.698 187.337 297.589 187.519 297.448 187.675C297.307 187.83 297.137 187.957 296.947 188.047C296.757 188.137 296.552 188.189 296.342 188.199C294.313 188.311 292.22 188.487 290.095 188.726L289.999 188.758ZM309.171 188.503H308.995C306.982 188.295 304.889 188.167 302.749 188.119C302.325 188.119 301.918 187.951 301.619 187.651C301.319 187.352 301.151 186.945 301.151 186.521C301.151 186.098 301.319 185.691 301.619 185.392C301.918 185.092 302.325 184.924 302.749 184.924C304.953 184.924 307.158 185.116 309.251 185.339C309.675 185.36 310.073 185.549 310.357 185.864C310.642 186.178 310.79 186.593 310.769 187.017C310.748 187.44 310.559 187.838 310.244 188.123C309.93 188.408 309.515 188.556 309.091 188.535L309.171 188.503Z" fill="#191B1D"/>
<path d="M321.172 230.969H266.645V281.838H321.172V230.969Z" fill="white"/>
<path d="M321.188 283.435H266.645C266.221 283.435 265.814 283.267 265.515 282.967C265.215 282.667 265.047 282.261 265.047 281.837V231.016C265.047 230.592 265.215 230.186 265.515 229.886C265.814 229.587 266.221 229.418 266.645 229.418H321.188C321.612 229.418 322.018 229.587 322.318 229.886C322.618 230.186 322.786 230.592 322.786 231.016V281.885C322.773 282.301 322.6 282.695 322.301 282.984C322.003 283.273 321.604 283.435 321.188 283.435ZM268.242 280.24H319.591V232.614H268.242V280.24Z" fill="#191B1D"/>
<path d="M312.131 244.549H283.98C283.557 244.549 283.15 244.38 282.851 244.081C282.551 243.781 282.383 243.375 282.383 242.951C282.383 242.527 282.551 242.121 282.851 241.821C283.15 241.522 283.557 241.354 283.98 241.354H312.131C312.555 241.354 312.961 241.522 313.261 241.821C313.56 242.121 313.729 242.527 313.729 242.951C313.729 243.375 313.56 243.781 313.261 244.081C312.961 244.38 312.555 244.549 312.131 244.549Z" fill="#DFEAEF"/>
<path d="M312.128 253.975H304.875C304.451 253.975 304.045 253.806 303.745 253.507C303.446 253.207 303.277 252.801 303.277 252.377C303.277 251.953 303.446 251.547 303.745 251.247C304.045 250.948 304.451 250.779 304.875 250.779H312.128C312.552 250.779 312.958 250.948 313.258 251.247C313.558 251.547 313.726 251.953 313.726 252.377C313.726 252.801 313.558 253.207 313.258 253.507C312.958 253.806 312.552 253.975 312.128 253.975Z" fill="#DFEAEF"/>
<path d="M295.961 253.975H275.719C275.295 253.975 274.889 253.806 274.589 253.507C274.289 253.207 274.121 252.801 274.121 252.377C274.121 251.953 274.289 251.547 274.589 251.247C274.889 250.948 275.295 250.779 275.719 250.779H295.961C296.385 250.779 296.791 250.948 297.091 251.247C297.39 251.547 297.559 251.953 297.559 252.377C297.559 252.801 297.39 253.207 297.091 253.507C296.791 253.806 296.385 253.975 295.961 253.975Z" fill="#DFEAEF"/>
<path d="M312.129 263.401H275.719C275.295 263.401 274.889 263.233 274.589 262.933C274.289 262.633 274.121 262.227 274.121 261.803C274.121 261.379 274.289 260.973 274.589 260.674C274.889 260.374 275.295 260.206 275.719 260.206H312.129C312.553 260.206 312.959 260.374 313.259 260.674C313.559 260.973 313.727 261.379 313.727 261.803C313.727 262.227 313.559 262.633 313.259 262.933C312.959 263.233 312.553 263.401 312.129 263.401Z" fill="#DFEAEF"/>
<path d="M299.22 272.827H275.719C275.295 272.827 274.889 272.659 274.589 272.359C274.289 272.06 274.121 271.653 274.121 271.229C274.121 270.806 274.289 270.399 274.589 270.1C274.889 269.8 275.295 269.632 275.719 269.632H299.22C299.644 269.632 300.05 269.8 300.35 270.1C300.65 270.399 300.818 270.806 300.818 271.229C300.818 271.653 300.65 272.06 300.35 272.359C300.05 272.659 299.644 272.827 299.22 272.827Z" fill="#DFEAEF"/>
<path d="M293.915 236.161C296.783 236.161 299.107 233.836 299.107 230.969C299.107 228.101 296.783 225.776 293.915 225.776C291.047 225.776 288.723 228.101 288.723 230.969C288.723 233.836 291.047 236.161 293.915 236.161Z" fill="#FF5B26"/>
<path d="M293.915 237.759C292.572 237.759 291.259 237.361 290.143 236.614C289.026 235.868 288.156 234.808 287.642 233.567C287.128 232.326 286.993 230.961 287.255 229.644C287.517 228.327 288.164 227.117 289.114 226.167C290.063 225.218 291.273 224.571 292.59 224.309C293.907 224.047 295.273 224.182 296.513 224.696C297.754 225.209 298.815 226.08 299.561 227.196C300.307 228.313 300.705 229.626 300.705 230.969C300.705 232.77 299.99 234.497 298.716 235.77C297.443 237.043 295.716 237.759 293.915 237.759ZM293.915 227.374C293.204 227.374 292.509 227.585 291.918 227.98C291.327 228.375 290.866 228.936 290.594 229.593C290.322 230.25 290.251 230.973 290.389 231.67C290.528 232.367 290.87 233.008 291.373 233.511C291.876 234.013 292.516 234.356 293.214 234.494C293.911 234.633 294.634 234.562 295.291 234.29C295.948 234.018 296.509 233.557 296.904 232.966C297.299 232.375 297.51 231.68 297.51 230.969C297.51 230.015 297.131 229.101 296.457 228.427C295.783 227.753 294.868 227.374 293.915 227.374Z" fill="#191B1D"/>
<path d="M330.551 78.8721H281.344V124.773H330.551V78.8721Z" fill="white"/>
<path d="M330.555 126.37H281.348C280.924 126.37 280.518 126.202 280.218 125.902C279.918 125.603 279.75 125.196 279.75 124.773V78.8721C279.75 78.4483 279.918 78.042 280.218 77.7424C280.518 77.4427 280.924 77.2744 281.348 77.2744H330.555C330.979 77.2744 331.385 77.4427 331.685 77.7424C331.985 78.042 332.153 78.4483 332.153 78.8721V124.773C332.153 125.196 331.985 125.603 331.685 125.902C331.385 126.202 330.979 126.37 330.555 126.37ZM282.945 123.175H328.958V80.4697H282.945V123.175Z" fill="#191B1D"/>
<path d="M322.374 94.1777H293.84C293.416 94.1777 293.01 94.0094 292.71 93.7098C292.411 93.4102 292.242 93.0038 292.242 92.5801C292.242 92.1563 292.411 91.75 292.71 91.4504C293.01 91.1507 293.416 90.9824 293.84 90.9824H322.374C322.798 90.9824 323.204 91.1507 323.504 91.4504C323.803 91.75 323.972 92.1563 323.972 92.5801C323.972 93.0038 323.803 93.4102 323.504 93.7098C323.204 94.0094 322.798 94.1777 322.374 94.1777Z" fill="#DFEAEF"/>
<path d="M322.375 105.488H309.434C309.01 105.488 308.603 105.32 308.304 105.02C308.004 104.721 307.836 104.314 307.836 103.891C307.836 103.467 308.004 103.061 308.304 102.761C308.603 102.461 309.01 102.293 309.434 102.293H322.454C322.878 102.293 323.285 102.461 323.584 102.761C323.884 103.061 324.052 103.467 324.052 103.891C324.052 104.314 323.884 104.721 323.584 105.02C323.285 105.32 322.878 105.488 322.454 105.488H322.375Z" fill="#DFEAEF"/>
<path d="M300.132 105.488H289.523C289.1 105.488 288.693 105.32 288.394 105.02C288.094 104.721 287.926 104.314 287.926 103.891C287.926 103.467 288.094 103.061 288.394 102.761C288.693 102.461 289.1 102.293 289.523 102.293H300.132C300.556 102.293 300.962 102.461 301.262 102.761C301.561 103.061 301.729 103.467 301.729 103.891C301.729 104.314 301.561 104.721 301.262 105.02C300.962 105.32 300.556 105.488 300.132 105.488Z" fill="#DFEAEF"/>
<path d="M310.74 116.8H289.523C289.1 116.8 288.693 116.632 288.394 116.332C288.094 116.033 287.926 115.626 287.926 115.203C287.926 114.779 288.094 114.373 288.394 114.073C288.693 113.773 289.1 113.605 289.523 113.605H310.74C311.164 113.605 311.57 113.773 311.87 114.073C312.17 114.373 312.338 114.779 312.338 115.203C312.338 115.626 312.17 116.033 311.87 116.332C311.57 116.632 311.164 116.8 310.74 116.8Z" fill="#DFEAEF"/>
<path d="M305.947 83.569C308.541 83.569 310.644 81.466 310.644 78.8719C310.644 76.2778 308.541 74.1748 305.947 74.1748C303.353 74.1748 301.25 76.2778 301.25 78.8719C301.25 81.466 303.353 83.569 305.947 83.569Z" fill="#FF5B26"/>
<path d="M305.947 85.1666C304.702 85.1666 303.485 84.7975 302.45 84.1058C301.415 83.4141 300.608 82.431 300.132 81.2808C299.655 80.1306 299.53 78.8649 299.773 77.6438C300.016 76.4228 300.616 75.3012 301.496 74.4208C302.376 73.5405 303.498 72.941 304.719 72.6981C305.94 72.4552 307.206 72.5799 308.356 73.0563C309.506 73.5327 310.489 74.3396 311.181 75.3747C311.873 76.4099 312.242 77.6269 312.242 78.8719C312.238 80.5401 311.573 82.1387 310.393 83.3183C309.214 84.4979 307.615 85.1624 305.947 85.1666ZM305.947 75.7884C305.333 75.7884 304.734 75.9706 304.223 76.3119C303.713 76.6532 303.316 77.1382 303.082 77.7055C302.848 78.2728 302.788 78.8968 302.908 79.4984C303.029 80.1001 303.326 80.6523 303.761 81.0852C304.196 81.518 304.75 81.8119 305.352 81.9297C305.955 82.0475 306.578 81.9838 307.144 81.7468C307.71 81.5097 308.193 81.11 308.532 80.5982C308.871 80.0864 309.05 79.4856 309.047 78.8719C309.042 78.0526 308.714 77.2684 308.133 76.6906C307.552 76.1128 306.766 75.7884 305.947 75.7884Z" fill="#191B1D"/>
<path d="M183.891 206.444H141.984V245.539H183.891V206.444Z" fill="white"/>
<path d="M183.891 247.121H141.984C141.561 247.121 141.154 246.952 140.855 246.653C140.555 246.353 140.387 245.947 140.387 245.523V206.444C140.387 206.021 140.555 205.614 140.855 205.315C141.154 205.015 141.561 204.847 141.984 204.847H183.891C184.314 204.847 184.721 205.015 185.02 205.315C185.32 205.614 185.488 206.021 185.488 206.444V245.523C185.488 245.947 185.32 246.353 185.02 246.653C184.721 246.952 184.314 247.121 183.891 247.121ZM143.582 243.925H182.293V208.042H143.582V243.925Z" fill="#191B1D"/>
<path d="M176.917 219.705H152.617C152.193 219.705 151.787 219.537 151.487 219.237C151.188 218.938 151.02 218.531 151.02 218.107C151.02 217.684 151.188 217.277 151.487 216.978C151.787 216.678 152.193 216.51 152.617 216.51H176.917C177.341 216.51 177.748 216.678 178.047 216.978C178.347 217.277 178.515 217.684 178.515 218.107C178.515 218.531 178.347 218.938 178.047 219.237C177.748 219.537 177.341 219.705 176.917 219.705Z" fill="#DFEAEF"/>
<path d="M176.92 229.419H165.832C165.408 229.419 165.002 229.251 164.702 228.951C164.403 228.651 164.234 228.245 164.234 227.821C164.234 227.398 164.403 226.991 164.702 226.692C165.002 226.392 165.408 226.224 165.832 226.224H176.92C177.343 226.224 177.75 226.392 178.049 226.692C178.349 226.991 178.517 227.398 178.517 227.821C178.517 228.245 178.349 228.651 178.049 228.951C177.75 229.251 177.343 229.419 176.92 229.419Z" fill="#DFEAEF"/>
<path d="M157.988 229.419H148.945C148.522 229.419 148.115 229.251 147.816 228.951C147.516 228.651 147.348 228.245 147.348 227.821C147.348 227.398 147.516 226.991 147.816 226.692C148.115 226.392 148.522 226.224 148.945 226.224H157.988C158.412 226.224 158.818 226.392 159.118 226.692C159.417 226.991 159.586 227.398 159.586 227.821C159.586 228.245 159.417 228.651 159.118 228.951C158.818 229.251 158.412 229.419 157.988 229.419Z" fill="#DFEAEF"/>
<path d="M167.015 239.005H148.945C148.522 239.005 148.115 238.837 147.816 238.537C147.516 238.237 147.348 237.831 147.348 237.407C147.348 236.983 147.516 236.577 147.816 236.278C148.115 235.978 148.522 235.81 148.945 235.81H167.015C167.438 235.81 167.845 235.978 168.144 236.278C168.444 236.577 168.612 236.983 168.612 237.407C168.612 237.831 168.444 238.237 168.144 238.537C167.845 238.837 167.438 239.005 167.015 239.005Z" fill="#DFEAEF"/>
<path d="M162.939 210.438C165.145 210.438 166.934 208.65 166.934 206.444C166.934 204.238 165.145 202.45 162.939 202.45C160.734 202.45 158.945 204.238 158.945 206.444C158.945 208.65 160.734 210.438 162.939 210.438Z" fill="#FF5B26"/>
<path d="M162.939 212.036C161.833 212.036 160.752 211.708 159.833 211.094C158.913 210.479 158.197 209.606 157.773 208.584C157.35 207.562 157.239 206.438 157.455 205.353C157.671 204.269 158.203 203.272 158.985 202.49C159.767 201.708 160.764 201.176 161.849 200.96C162.933 200.744 164.058 200.855 165.079 201.278C166.101 201.701 166.974 202.418 167.589 203.338C168.203 204.257 168.531 205.338 168.531 206.444C168.531 207.927 167.942 209.35 166.893 210.398C165.845 211.447 164.422 212.036 162.939 212.036ZM162.939 204.048C162.465 204.048 162.002 204.188 161.608 204.452C161.214 204.715 160.907 205.089 160.725 205.527C160.544 205.965 160.497 206.447 160.589 206.912C160.681 207.377 160.91 207.804 161.245 208.139C161.58 208.474 162.007 208.702 162.472 208.795C162.937 208.887 163.419 208.84 163.857 208.658C164.294 208.477 164.669 208.17 164.932 207.776C165.195 207.382 165.336 206.918 165.336 206.444C165.336 205.809 165.083 205.199 164.634 204.75C164.185 204.3 163.575 204.048 162.939 204.048Z" fill="#191B1D"/>
<rect x="70" y="304" width="330" height="6" rx="3" fill="#DFEAEF"/>
<rect x="70" y="322" width="145" height="6" rx="3" fill="#DFEAEF"/>
<rect x="70" y="340" width="244" height="6" rx="3" fill="#DFEAEF"/>
<rect x="70" y="358" width="330" height="6" rx="3" fill="#DFEAEF"/>
<rect x="169" y="384" width="131" height="60" rx="30" fill="#05AAFF"/>
<path d="M191.61 421L195.822 408.04H198.531L202.743 421H200.79L196.911 409.174H197.397L193.563 421H191.61ZM193.797 418.075V416.311H200.565V418.075H193.797ZM208.219 421.27C207.313 421.27 206.53 421.045 205.87 420.595C205.216 420.145 204.709 419.533 204.349 418.759C203.995 417.979 203.818 417.103 203.818 416.131C203.818 415.153 203.998 414.28 204.358 413.512C204.718 412.738 205.228 412.129 205.888 411.685C206.554 411.235 207.343 411.01 208.255 411.01C209.173 411.01 209.944 411.235 210.568 411.685C211.198 412.129 211.672 412.738 211.99 413.512C212.314 414.286 212.476 415.159 212.476 416.131C212.476 417.103 212.314 417.976 211.99 418.75C211.666 419.524 211.189 420.139 210.559 420.595C209.929 421.045 209.149 421.27 208.219 421.27ZM208.48 419.569C209.098 419.569 209.602 419.422 209.992 419.128C210.382 418.834 210.667 418.429 210.847 417.913C211.027 417.397 211.117 416.803 211.117 416.131C211.117 415.459 211.024 414.865 210.838 414.349C210.658 413.833 210.376 413.431 209.992 413.143C209.614 412.855 209.131 412.711 208.543 412.711C207.919 412.711 207.406 412.864 207.004 413.17C206.602 413.476 206.302 413.887 206.104 414.403C205.912 414.919 205.816 415.495 205.816 416.131C205.816 416.773 205.912 417.355 206.104 417.877C206.302 418.393 206.596 418.804 206.986 419.11C207.382 419.416 207.88 419.569 208.48 419.569ZM211.117 421V414.007H210.901V408.04H212.791V421H211.117ZM224.474 421C223.862 421.12 223.262 421.171 222.674 421.153C222.086 421.135 221.561 421.021 221.099 420.811C220.637 420.601 220.289 420.271 220.055 419.821C219.845 419.419 219.731 419.011 219.713 418.597C219.701 418.177 219.695 417.703 219.695 417.175V408.58H221.585V417.085C221.585 417.475 221.588 417.814 221.594 418.102C221.606 418.39 221.669 418.633 221.783 418.831C221.999 419.203 222.341 419.416 222.809 419.47C223.283 419.518 223.838 419.497 224.474 419.407V421ZM217.832 412.792V411.28H224.474V412.792H217.832ZM230.288 421.27C229.316 421.27 228.473 421.051 227.759 420.613C227.045 420.175 226.493 419.572 226.103 418.804C225.719 418.03 225.527 417.139 225.527 416.131C225.527 415.117 225.725 414.226 226.121 413.458C226.517 412.684 227.072 412.084 227.786 411.658C228.5 411.226 229.334 411.01 230.288 411.01C231.26 411.01 232.103 411.229 232.817 411.667C233.531 412.105 234.083 412.708 234.473 413.476C234.863 414.244 235.058 415.129 235.058 416.131C235.058 417.145 234.86 418.039 234.464 418.813C234.074 419.581 233.522 420.184 232.808 420.622C232.094 421.054 231.254 421.27 230.288 421.27ZM230.288 419.497C231.218 419.497 231.911 419.185 232.367 418.561C232.829 417.931 233.06 417.121 233.06 416.131C233.06 415.117 232.826 414.307 232.358 413.701C231.896 413.089 231.206 412.783 230.288 412.783C229.658 412.783 229.139 412.927 228.731 413.215C228.323 413.497 228.02 413.89 227.822 414.394C227.624 414.892 227.525 415.471 227.525 416.131C227.525 417.151 227.759 417.967 228.227 418.579C228.695 419.191 229.382 419.497 230.288 419.497ZM240.639 421V408.04H245.877C246.003 408.04 246.159 408.046 246.345 408.058C246.531 408.064 246.708 408.082 246.876 408.112C247.596 408.226 248.196 408.472 248.676 408.85C249.162 409.228 249.525 409.705 249.765 410.281C250.005 410.857 250.125 411.493 250.125 412.189C250.125 412.891 250.005 413.53 249.765 414.106C249.525 414.682 249.162 415.159 248.676 415.537C248.196 415.915 247.596 416.161 246.876 416.275C246.708 416.299 246.528 416.317 246.336 416.329C246.15 416.341 245.997 416.347 245.877 416.347H242.52V421H240.639ZM242.52 414.565H245.805C245.925 414.565 246.057 414.559 246.201 414.547C246.351 414.535 246.492 414.514 246.624 414.484C247.008 414.394 247.317 414.229 247.551 413.989C247.785 413.743 247.953 413.461 248.055 413.143C248.157 412.825 248.208 412.507 248.208 412.189C248.208 411.871 248.157 411.556 248.055 411.244C247.953 410.926 247.785 410.647 247.551 410.407C247.317 410.161 247.008 409.993 246.624 409.903C246.492 409.867 246.351 409.843 246.201 409.831C246.057 409.819 245.925 409.813 245.805 409.813H242.52V414.565ZM252.104 421V407.77H253.985V421H252.104ZM259.433 421.27C258.713 421.27 258.11 421.138 257.624 420.874C257.138 420.604 256.769 420.25 256.517 419.812C256.271 419.368 256.148 418.882 256.148 418.354C256.148 417.862 256.235 417.43 256.409 417.058C256.583 416.686 256.841 416.371 257.183 416.113C257.525 415.849 257.945 415.636 258.443 415.474C258.875 415.348 259.364 415.237 259.91 415.141C260.456 415.045 261.029 414.955 261.629 414.871C262.235 414.787 262.835 414.703 263.429 414.619L262.745 414.997C262.757 414.235 262.595 413.671 262.259 413.305C261.929 412.933 261.359 412.747 260.549 412.747C260.039 412.747 259.571 412.867 259.145 413.107C258.719 413.341 258.422 413.731 258.254 414.277L256.499 413.737C256.739 412.903 257.195 412.24 257.867 411.748C258.545 411.256 259.445 411.01 260.567 411.01C261.437 411.01 262.193 411.16 262.835 411.46C263.483 411.754 263.957 412.222 264.257 412.864C264.413 413.182 264.509 413.518 264.545 413.872C264.581 414.226 264.599 414.607 264.599 415.015V421H262.934V418.777L263.258 419.065C262.856 419.809 262.343 420.364 261.719 420.73C261.101 421.09 260.339 421.27 259.433 421.27ZM259.766 419.731C260.3 419.731 260.759 419.638 261.143 419.452C261.527 419.26 261.836 419.017 262.07 418.723C262.304 418.429 262.457 418.123 262.529 417.805C262.631 417.517 262.688 417.193 262.7 416.833C262.718 416.473 262.727 416.185 262.727 415.969L263.339 416.194C262.745 416.284 262.205 416.365 261.719 416.437C261.233 416.509 260.792 416.581 260.396 416.653C260.006 416.719 259.658 416.8 259.352 416.896C259.094 416.986 258.863 417.094 258.659 417.22C258.461 417.346 258.302 417.499 258.182 417.679C258.068 417.859 258.011 418.078 258.011 418.336C258.011 418.588 258.074 418.822 258.2 419.038C258.326 419.248 258.518 419.416 258.776 419.542C259.034 419.668 259.364 419.731 259.766 419.731ZM273.758 421V416.221C273.758 415.843 273.725 415.456 273.659 415.06C273.599 414.658 273.479 414.286 273.299 413.944C273.125 413.602 272.876 413.326 272.552 413.116C272.234 412.906 271.817 412.801 271.301 412.801C270.965 412.801 270.647 412.858 270.347 412.972C270.047 413.08 269.783 413.257 269.555 413.503C269.333 413.749 269.156 414.073 269.024 414.475C268.898 414.877 268.835 415.366 268.835 415.942L267.665 415.501C267.665 414.619 267.83 413.842 268.16 413.17C268.49 412.492 268.964 411.964 269.582 411.586C270.2 411.208 270.947 411.019 271.823 411.019C272.495 411.019 273.059 411.127 273.515 411.343C273.971 411.559 274.34 411.844 274.622 412.198C274.91 412.546 275.129 412.927 275.279 413.341C275.429 413.755 275.531 414.16 275.585 414.556C275.639 414.952 275.666 415.3 275.666 415.6V421H273.758ZM266.927 421V411.28H268.61V414.088H268.835V421H266.927Z" fill="white"/>
<path d="M332.298 439.649L301.468 428.689C301.231 428.604 301.004 428.847 301.103 429.077L314.014 459.143C314.143 459.444 314.656 459.318 314.654 458.988C314.607 451.85 318.011 440.683 332.175 440.267C332.504 440.258 332.607 439.759 332.298 439.649Z" fill="#05AAFF"/>
</svg>
